M48
; DRILL file {KiCad 8.0.0} date 2024-08-30T23:56:31+0300
; FORMAT={-:-/ absolute / metric / decimal}
; #@! TF.CreationDate,2024-08-30T23:56:31+03:00
; #@! TF.GenerationSoftware,Kicad,Pcbnew,8.0.0
; #@! TF.FileFunction,Plated,1,4,PTH
FMAT,2
METRIC
; #@! TA.AperFunction,Plated,PTH,ViaDrill
T1C0.300
; #@! TA.AperFunction,Plated,PTH,ViaDrill
T2C0.500
; #@! TA.AperFunction,Plated,PTH,ComponentDrill
T3C1.000
; #@! TA.AperFunction,Plated,PTH,ComponentDrill
T4C1.500
; #@! TA.AperFunction,Plated,PTH,ComponentDrill
T5C1.700
%
G90
G05
T1
X81.35Y-54.75
X81.35Y-143.65
X83.89Y-68.72
X83.89Y-69.99
X83.89Y-71.26
X83.89Y-72.53
X83.89Y-73.8
X83.89Y-75.07
X83.89Y-76.34
X83.89Y-77.61
X83.89Y-78.88
X83.89Y-80.15
X83.89Y-81.42
X83.89Y-82.69
X83.89Y-83.96
X83.89Y-85.23
X83.89Y-86.5
X83.89Y-87.77
X83.89Y-89.04
X83.89Y-90.31
X83.89Y-91.58
X83.89Y-92.85
X83.89Y-94.12
X83.89Y-95.39
X83.89Y-96.66
X83.89Y-97.93
X83.89Y-99.2
X83.89Y-100.47
X83.89Y-101.74
X83.89Y-103.01
X83.89Y-104.28
X83.89Y-105.55
X83.89Y-106.82
X83.89Y-108.09
X83.89Y-109.36
X83.89Y-110.63
X83.89Y-111.9
X83.89Y-113.17
X83.89Y-114.44
X83.89Y-115.71
X83.89Y-116.98
X83.89Y-118.25
X87.7Y-68.72
X87.7Y-69.99
X87.7Y-71.26
X87.7Y-72.53
X87.7Y-73.8
X87.7Y-75.07
X87.7Y-76.34
X87.7Y-77.61
X87.7Y-78.88
X87.7Y-83.96
X87.7Y-85.23
X87.7Y-86.5
X87.7Y-87.77
X87.7Y-89.04
X87.7Y-90.31
X87.7Y-91.58
X87.7Y-92.85
X87.7Y-94.12
X87.7Y-95.39
X87.7Y-96.66
X87.7Y-97.93
X87.7Y-99.2
X87.7Y-100.47
X87.7Y-101.74
X87.7Y-103.01
X87.7Y-104.28
X87.7Y-105.55
X87.7Y-106.82
X87.7Y-108.09
X87.7Y-109.36
X87.7Y-110.63
X87.7Y-111.9
X87.7Y-113.17
X87.7Y-114.44
X87.7Y-115.71
X87.7Y-116.98
X87.7Y-118.25
X88.97Y-68.72
X88.97Y-69.99
X88.97Y-71.26
X88.97Y-72.53
X88.97Y-73.8
X88.97Y-75.07
X88.97Y-76.34
X88.97Y-77.61
X88.97Y-78.88
X88.97Y-80.15
X88.97Y-81.42
X88.97Y-82.69
X88.97Y-83.96
X88.97Y-85.23
X88.97Y-86.5
X88.97Y-87.77
X88.97Y-89.04
X88.97Y-90.31
X88.97Y-91.58
X88.97Y-92.85
X88.97Y-94.12
X88.97Y-95.39
X88.97Y-96.66
X88.97Y-97.93
X88.97Y-99.2
X88.97Y-100.47
X88.97Y-101.74
X88.97Y-103.01
X88.97Y-104.28
X88.97Y-105.55
X88.97Y-106.82
X88.97Y-108.09
X88.97Y-109.36
X88.97Y-110.63
X88.97Y-111.9
X88.97Y-113.17
X88.97Y-114.44
X88.97Y-115.71
X88.97Y-116.98
X88.97Y-118.25
X92.78Y-68.72
X92.78Y-69.99
X92.78Y-71.26
X92.78Y-72.53
X92.78Y-73.8
X92.78Y-75.07
X92.78Y-76.34
X92.78Y-77.61
X92.78Y-78.88
X92.78Y-80.15
X92.78Y-81.42
X92.78Y-82.69
X92.78Y-83.96
X92.78Y-85.23
X92.78Y-86.5
X92.78Y-87.77
X92.78Y-89.04
X92.78Y-90.31
X92.78Y-91.58
X92.78Y-92.85
X92.78Y-94.12
X92.78Y-95.39
X92.78Y-96.66
X92.78Y-97.93
X92.78Y-99.2
X92.78Y-100.47
X92.78Y-101.74
X92.78Y-103.01
X92.78Y-104.28
X92.78Y-105.55
X92.78Y-106.82
X92.78Y-108.09
X92.78Y-109.36
X92.78Y-110.63
X92.78Y-111.9
X92.78Y-113.17
X92.78Y-114.44
X92.78Y-115.71
X92.78Y-116.98
X92.78Y-118.25
X94.685Y-93.442
X94.685Y-95.39
X94.685Y-100.47
X94.685Y-104.28
X94.685Y-108.09
X94.685Y-113.805
X97.225Y-89.718
X97.412Y-116.793
X98.016Y-116.189
X100.4Y-54.75
X100.4Y-78.245
X100.4Y-92.85
X100.4Y-124.6
X100.4Y-143.65
X100.781Y-80.943
X100.781Y-81.897
X106.369Y-72.688
X106.369Y-73.642
X106.75Y-105.55
X111.43Y-73.165
X115.005Y-75.07
X115.005Y-76.975
X116.91Y-66.18
X116.91Y-67.45
X118.815Y-81.42
X119.45Y-54.75
X119.45Y-70.625
X119.45Y-92.85
X119.45Y-105.55
X119.45Y-124.6
X119.45Y-143.65
X120.085Y-82.055
X120.72Y-73.165
X121.355Y-64.91
X121.99Y-63.64
X121.99Y-75.07
X123.26Y-71.26
X123.26Y-74.435
X123.26Y-80.15
X123.26Y-118.25
X123.26Y-119.52
X123.26Y-120.79
X123.895Y-62.37
X123.895Y-72.53
X123.895Y-116.345
X124.021Y-122.186
X124.53Y-61.1
X125.165Y-67.45
X125.165Y-76.975
X125.292Y-124.092
X126.435Y-69.355
X126.742Y-78.755
X128.34Y-109.36
X128.34Y-110.884
X128.34Y-112.916
X128.362Y-125.719
X129.102Y-121.806
X129.757Y-125.108
X130.245Y-125.87
X130.503Y-116.726
X132.15Y-75.705
X132.15Y-116.726
X132.912Y-118.758
X132.912Y-120.536
X134.055Y-125.87
X134.69Y-54.75
X134.69Y-128.41
X135.96Y-92.85
X135.96Y-113.17
X135.96Y-115.71
X136.722Y-127.775
X137.23Y-119.643
X137.484Y-125.997
X138.246Y-119.012
X138.5Y-79.515
X138.5Y-128.41
X140.405Y-78.88
X140.405Y-105.55
X140.405Y-124.6
X140.405Y-143.65
X148.025Y-132.22
X150.565Y-129.68
X157.55Y-54.75
X157.55Y-78.88
X157.55Y-92.85
X157.55Y-105.55
X157.55Y-143.65
X163.9Y-124.6
T2
X87.7Y-52.845
X87.7Y-56.655
X101.67Y-95.39
X106.75Y-52.845
X106.75Y-56.655
X108.02Y-77.61
X108.655Y-75.07
X118.815Y-98.565
X120.694Y-70.083
X126.435Y-52.845
X126.435Y-56.655
X128.975Y-104.28
X129.61Y-91.58
X129.61Y-91.58
X129.61Y-99.2
X130.245Y-63.64
X131.515Y-82.055
X132.785Y-134.76
X133.42Y-69.355
X134.055Y-107.455
X135.325Y-136.03
X135.325Y-139.205
X135.96Y-59.83
X141.675Y-112.535
X146.12Y-56.02
X146.12Y-63.64
X146.12Y-85.23
X146.12Y-93.485
X146.755Y-118.25
X147.136Y-115.71
X147.136Y-120.79
X151.835Y-115.075
X151.835Y-116.345
X151.835Y-131.585
X151.835Y-132.855
X154.335Y-111.305
X154.335Y-127.815
T3
X76.885Y-92.19
X76.885Y-94.73
X76.885Y-97.27
X76.885Y-99.81
X76.885Y-102.35
X76.885Y-104.89
X76.905Y-75.705
X76.905Y-78.245
X76.905Y-80.785
X76.905Y-83.325
X76.905Y-85.865
X76.905Y-88.405
X76.905Y-108.725
X76.905Y-111.265
X76.905Y-113.805
X76.905Y-116.345
X76.905Y-118.885
X76.905Y-121.425
X79.425Y-92.19
X79.425Y-94.73
X79.425Y-97.27
X79.425Y-99.81
X79.425Y-102.35
X79.425Y-104.89
X79.445Y-75.705
X79.445Y-78.245
X79.445Y-80.785
X79.445Y-83.325
X79.445Y-85.865
X79.445Y-88.405
X79.445Y-108.725
X79.445Y-111.265
X79.445Y-113.805
X79.445Y-116.345
X79.445Y-118.885
X79.445Y-121.425
T4
X168.98Y-58.56
X168.98Y-88.405
X168.98Y-110.63
X168.98Y-134.76
T5
X166.44Y-56.02
X166.44Y-61.1
X166.44Y-85.865
X166.44Y-90.945
X166.44Y-108.09
X166.44Y-113.17
X166.44Y-132.22
X166.44Y-137.3
X171.52Y-56.02
X171.52Y-61.1
X171.52Y-85.865
X171.52Y-90.945
X171.52Y-108.09
X171.52Y-113.17
X171.52Y-132.22
X171.52Y-137.3
M30
