%TF.GenerationSoftware,KiCad,Pcbnew,8.0.0*%
%TF.CreationDate,2024-09-01T00:48:49+03:00*%
%TF.ProjectId,ML605_LPC_Board_wADC_DAC,4d4c3630-355f-44c5-9043-5f426f617264,rev?*%
%TF.SameCoordinates,Original*%
%TF.FileFunction,Soldermask,Top*%
%TF.FilePolarity,Negative*%
%FSLAX46Y46*%
G04 Gerber Fmt 4.6, Leading zero omitted, Abs format (unit mm)*
G04 Created by KiCad (PCBNEW 8.0.0) date 2024-09-01 00:48:49*
%MOMM*%
%LPD*%
G01*
G04 APERTURE LIST*
G04 Aperture macros list*
%AMRoundRect*
0 Rectangle with rounded corners*
0 $1 Rounding radius*
0 $2 $3 $4 $5 $6 $7 $8 $9 X,Y pos of 4 corners*
0 Add a 4 corners polygon primitive as box body*
4,1,4,$2,$3,$4,$5,$6,$7,$8,$9,$2,$3,0*
0 Add four circle primitives for the rounded corners*
1,1,$1+$1,$2,$3*
1,1,$1+$1,$4,$5*
1,1,$1+$1,$6,$7*
1,1,$1+$1,$8,$9*
0 Add four rect primitives between the rounded corners*
20,1,$1+$1,$2,$3,$4,$5,0*
20,1,$1+$1,$4,$5,$6,$7,0*
20,1,$1+$1,$6,$7,$8,$9,0*
20,1,$1+$1,$8,$9,$2,$3,0*%
%AMFreePoly0*
4,1,6,1.000000,0.000000,0.500000,-0.750000,-0.500000,-0.750000,-0.500000,0.750000,0.500000,0.750000,1.000000,0.000000,1.000000,0.000000,$1*%
%AMFreePoly1*
4,1,6,0.500000,-0.750000,-0.650000,-0.750000,-0.150000,0.000000,-0.650000,0.750000,0.500000,0.750000,0.500000,-0.750000,0.500000,-0.750000,$1*%
G04 Aperture macros list end*
%ADD10RoundRect,0.250000X-0.337500X-0.475000X0.337500X-0.475000X0.337500X0.475000X-0.337500X0.475000X0*%
%ADD11RoundRect,0.250000X0.350000X0.450000X-0.350000X0.450000X-0.350000X-0.450000X0.350000X-0.450000X0*%
%ADD12RoundRect,0.250000X0.337500X0.475000X-0.337500X0.475000X-0.337500X-0.475000X0.337500X-0.475000X0*%
%ADD13R,1.000000X2.510000*%
%ADD14RoundRect,0.250000X0.450000X-0.350000X0.450000X0.350000X-0.450000X0.350000X-0.450000X-0.350000X0*%
%ADD15C,1.000000*%
%ADD16C,3.200000*%
%ADD17RoundRect,0.250000X-0.450000X0.350000X-0.450000X-0.350000X0.450000X-0.350000X0.450000X0.350000X0*%
%ADD18C,2.050000*%
%ADD19C,2.250000*%
%ADD20RoundRect,0.250000X-0.550000X1.250000X-0.550000X-1.250000X0.550000X-1.250000X0.550000X1.250000X0*%
%ADD21RoundRect,0.250000X-0.350000X-0.450000X0.350000X-0.450000X0.350000X0.450000X-0.350000X0.450000X0*%
%ADD22RoundRect,0.250000X-0.475000X0.337500X-0.475000X-0.337500X0.475000X-0.337500X0.475000X0.337500X0*%
%ADD23RoundRect,0.100000X-0.100000X0.225000X-0.100000X-0.225000X0.100000X-0.225000X0.100000X0.225000X0*%
%ADD24RoundRect,0.375000X-0.625000X-0.375000X0.625000X-0.375000X0.625000X0.375000X-0.625000X0.375000X0*%
%ADD25RoundRect,0.500000X-0.500000X-1.400000X0.500000X-1.400000X0.500000X1.400000X-0.500000X1.400000X0*%
%ADD26RoundRect,0.250000X-1.250000X-0.550000X1.250000X-0.550000X1.250000X0.550000X-1.250000X0.550000X0*%
%ADD27RoundRect,0.075000X-0.075000X0.662500X-0.075000X-0.662500X0.075000X-0.662500X0.075000X0.662500X0*%
%ADD28RoundRect,0.075000X-0.662500X0.075000X-0.662500X-0.075000X0.662500X-0.075000X0.662500X0.075000X0*%
%ADD29R,1.700000X1.700000*%
%ADD30O,1.700000X1.700000*%
%ADD31RoundRect,0.100000X-0.225000X-0.100000X0.225000X-0.100000X0.225000X0.100000X-0.225000X0.100000X0*%
%ADD32FreePoly0,270.000000*%
%ADD33FreePoly1,270.000000*%
%ADD34RoundRect,0.150000X-0.825000X-0.150000X0.825000X-0.150000X0.825000X0.150000X-0.825000X0.150000X0*%
%ADD35RoundRect,0.250000X-0.350000X0.275000X-0.350000X-0.275000X0.350000X-0.275000X0.350000X0.275000X0*%
%ADD36RoundRect,0.250000X0.550000X-1.250000X0.550000X1.250000X-0.550000X1.250000X-0.550000X-1.250000X0*%
%ADD37RoundRect,0.150000X-0.150000X0.825000X-0.150000X-0.825000X0.150000X-0.825000X0.150000X0.825000X0*%
%ADD38C,1.270000*%
G04 APERTURE END LIST*
D10*
%TO.C,C38*%
X109522500Y-77610000D03*
X111597500Y-77610000D03*
%TD*%
%TO.C,C29*%
X160322500Y-88405000D03*
X162397500Y-88405000D03*
%TD*%
D11*
%TO.C,R40*%
X139770000Y-56655000D03*
X137770000Y-56655000D03*
%TD*%
D12*
%TO.C,C14*%
X142077500Y-118250000D03*
X140002500Y-118250000D03*
%TD*%
D10*
%TO.C,C12*%
X140002500Y-120790000D03*
X142077500Y-120790000D03*
%TD*%
D11*
%TO.C,R5*%
X117910000Y-116345000D03*
X115910000Y-116345000D03*
%TD*%
%TO.C,R3*%
X117910000Y-114440000D03*
X115910000Y-114440000D03*
%TD*%
D13*
%TO.C,J14*%
X168980000Y-141995000D03*
X166440000Y-145305000D03*
X163900000Y-141995000D03*
%TD*%
D14*
%TO.C,R45*%
X139770000Y-93850000D03*
X139770000Y-91850000D03*
%TD*%
D15*
%TO.C,FID2*%
X173425000Y-147460000D03*
%TD*%
D10*
%TO.C,C37*%
X135557500Y-131585000D03*
X137632500Y-131585000D03*
%TD*%
D11*
%TO.C,R41*%
X139770000Y-58560000D03*
X137770000Y-58560000D03*
%TD*%
D16*
%TO.C,H1*%
X163900000Y-73165000D03*
%TD*%
D17*
%TO.C,R39*%
X131515000Y-88040000D03*
X131515000Y-90040000D03*
%TD*%
%TO.C,R16*%
X127705000Y-127410000D03*
X127705000Y-129410000D03*
%TD*%
D14*
%TO.C,R38*%
X131515000Y-85595000D03*
X131515000Y-83595000D03*
%TD*%
D11*
%TO.C,R11*%
X117910000Y-122060000D03*
X115910000Y-122060000D03*
%TD*%
D18*
%TO.C,J8*%
X168980000Y-58560000D03*
D19*
X166440000Y-56020000D03*
X166440000Y-61100000D03*
X171520000Y-56020000D03*
X171520000Y-61100000D03*
%TD*%
D20*
%TO.C,C1*%
X121990000Y-93825000D03*
X121990000Y-98225000D03*
%TD*%
D21*
%TO.C,R48*%
X94320000Y-118250000D03*
X96320000Y-118250000D03*
%TD*%
D15*
%TO.C,FID1*%
X173425000Y-51575000D03*
%TD*%
D11*
%TO.C,R30*%
X162360000Y-118250000D03*
X160360000Y-118250000D03*
%TD*%
D10*
%TO.C,C4*%
X132150000Y-111900000D03*
X134225000Y-111900000D03*
%TD*%
D13*
%TO.C,J2*%
X130245000Y-141495000D03*
X132785000Y-138185000D03*
X135325000Y-141495000D03*
%TD*%
D11*
%TO.C,R26*%
X154740000Y-122060000D03*
X152740000Y-122060000D03*
%TD*%
%TO.C,R43*%
X139770000Y-87770000D03*
X137770000Y-87770000D03*
%TD*%
D22*
%TO.C,C2*%
X127705000Y-94987500D03*
X127705000Y-97062500D03*
%TD*%
D13*
%TO.C,J6*%
X149295000Y-71010000D03*
X151835000Y-67700000D03*
X154375000Y-71010000D03*
%TD*%
D16*
%TO.C,H2*%
X163900000Y-123330000D03*
%TD*%
D23*
%TO.C,U2*%
X111845000Y-72215000D03*
X111195000Y-72215000D03*
X110545000Y-72215000D03*
X110545000Y-74115000D03*
X111845000Y-74115000D03*
%TD*%
D11*
%TO.C,R28*%
X162360000Y-134760000D03*
X160360000Y-134760000D03*
%TD*%
D21*
%TO.C,R46*%
X147295000Y-52845000D03*
X149295000Y-52845000D03*
%TD*%
D24*
%TO.C,U3*%
X104235000Y-90550000D03*
X104235000Y-92850000D03*
D25*
X110535000Y-92850000D03*
D24*
X104235000Y-95150000D03*
%TD*%
D11*
%TO.C,R25*%
X154740000Y-125870000D03*
X152740000Y-125870000D03*
%TD*%
D17*
%TO.C,R20*%
X129610000Y-127410000D03*
X129610000Y-129410000D03*
%TD*%
D21*
%TO.C,R50*%
X151835000Y-87770000D03*
X153835000Y-87770000D03*
%TD*%
D26*
%TO.C,C24*%
X158525000Y-63005000D03*
X162925000Y-63005000D03*
%TD*%
D18*
%TO.C,J9*%
X168980000Y-88405000D03*
D19*
X166440000Y-85865000D03*
X166440000Y-90945000D03*
X171520000Y-85865000D03*
X171520000Y-90945000D03*
%TD*%
D21*
%TO.C,R15*%
X124165000Y-113170000D03*
X126165000Y-113170000D03*
%TD*%
D27*
%TO.C,IC1*%
X133630000Y-115357500D03*
X133130000Y-115357500D03*
X132630000Y-115357500D03*
X132130000Y-115357500D03*
X131630000Y-115357500D03*
X131130000Y-115357500D03*
X130630000Y-115357500D03*
X130130000Y-115357500D03*
X129630000Y-115357500D03*
X129130000Y-115357500D03*
X128630000Y-115357500D03*
X128130000Y-115357500D03*
D28*
X126717500Y-116770000D03*
X126717500Y-117270000D03*
X126717500Y-117770000D03*
X126717500Y-118270000D03*
X126717500Y-118770000D03*
X126717500Y-119270000D03*
X126717500Y-119770000D03*
X126717500Y-120270000D03*
X126717500Y-120770000D03*
X126717500Y-121270000D03*
X126717500Y-121770000D03*
X126717500Y-122270000D03*
D27*
X128130000Y-123682500D03*
X128630000Y-123682500D03*
X129130000Y-123682500D03*
X129630000Y-123682500D03*
X130130000Y-123682500D03*
X130630000Y-123682500D03*
X131130000Y-123682500D03*
X131630000Y-123682500D03*
X132130000Y-123682500D03*
X132630000Y-123682500D03*
X133130000Y-123682500D03*
X133630000Y-123682500D03*
D28*
X135042500Y-122270000D03*
X135042500Y-121770000D03*
X135042500Y-121270000D03*
X135042500Y-120770000D03*
X135042500Y-120270000D03*
X135042500Y-119770000D03*
X135042500Y-119270000D03*
X135042500Y-118770000D03*
X135042500Y-118270000D03*
X135042500Y-117770000D03*
X135042500Y-117270000D03*
X135042500Y-116770000D03*
%TD*%
D11*
%TO.C,R42*%
X139770000Y-85865000D03*
X137770000Y-85865000D03*
%TD*%
D14*
%TO.C,R36*%
X131515000Y-56385000D03*
X131515000Y-54385000D03*
%TD*%
D11*
%TO.C,R7*%
X117910000Y-118250000D03*
X115910000Y-118250000D03*
%TD*%
D12*
%TO.C,C30*%
X162397500Y-90945000D03*
X160322500Y-90945000D03*
%TD*%
D15*
%TO.C,FID3*%
X94050000Y-148095000D03*
%TD*%
D20*
%TO.C,C27*%
X168980000Y-76680000D03*
X168980000Y-81080000D03*
%TD*%
D21*
%TO.C,R19*%
X124165000Y-111265000D03*
X126165000Y-111265000D03*
%TD*%
D10*
%TO.C,C5*%
X132150000Y-109360000D03*
X134225000Y-109360000D03*
%TD*%
D17*
%TO.C,R37*%
X131515000Y-58830000D03*
X131515000Y-60830000D03*
%TD*%
D29*
%TO.C,J10*%
X76905000Y-121425000D03*
D30*
X79445000Y-121425000D03*
X76905000Y-118885000D03*
X79445000Y-118885000D03*
X76905000Y-116345000D03*
X79445000Y-116345000D03*
X76905000Y-113805000D03*
X79445000Y-113805000D03*
X76905000Y-111265000D03*
X79445000Y-111265000D03*
X76905000Y-108725000D03*
X79445000Y-108725000D03*
%TD*%
D11*
%TO.C,R27*%
X154740000Y-109360000D03*
X152740000Y-109360000D03*
%TD*%
D12*
%TO.C,C26*%
X162397500Y-56020000D03*
X160322500Y-56020000D03*
%TD*%
D27*
%TO.C,IC4*%
X123855000Y-68650000D03*
X123355000Y-68650000D03*
X122855000Y-68650000D03*
X122355000Y-68650000D03*
X121855000Y-68650000D03*
X121355000Y-68650000D03*
X120855000Y-68650000D03*
X120355000Y-68650000D03*
X119855000Y-68650000D03*
X119355000Y-68650000D03*
X118855000Y-68650000D03*
X118355000Y-68650000D03*
D28*
X116942500Y-70062500D03*
X116942500Y-70562500D03*
X116942500Y-71062500D03*
X116942500Y-71562500D03*
X116942500Y-72062500D03*
X116942500Y-72562500D03*
X116942500Y-73062500D03*
X116942500Y-73562500D03*
X116942500Y-74062500D03*
X116942500Y-74562500D03*
X116942500Y-75062500D03*
X116942500Y-75562500D03*
D27*
X118355000Y-76975000D03*
X118855000Y-76975000D03*
X119355000Y-76975000D03*
X119855000Y-76975000D03*
X120355000Y-76975000D03*
X120855000Y-76975000D03*
X121355000Y-76975000D03*
X121855000Y-76975000D03*
X122355000Y-76975000D03*
X122855000Y-76975000D03*
X123355000Y-76975000D03*
X123855000Y-76975000D03*
D28*
X125267500Y-75562500D03*
X125267500Y-75062500D03*
X125267500Y-74562500D03*
X125267500Y-74062500D03*
X125267500Y-73562500D03*
X125267500Y-73062500D03*
X125267500Y-72562500D03*
X125267500Y-72062500D03*
X125267500Y-71562500D03*
X125267500Y-71062500D03*
X125267500Y-70562500D03*
X125267500Y-70062500D03*
%TD*%
D21*
%TO.C,R32*%
X168980000Y-118250000D03*
X170980000Y-118250000D03*
%TD*%
D10*
%TO.C,C13*%
X140002500Y-115710000D03*
X142077500Y-115710000D03*
%TD*%
D31*
%TO.C,U1*%
X135645000Y-127125000D03*
X135645000Y-127775000D03*
X135645000Y-128425000D03*
X137545000Y-128425000D03*
X137545000Y-127125000D03*
%TD*%
D13*
%TO.C,J7*%
X149295000Y-78630000D03*
X151835000Y-75320000D03*
X154375000Y-78630000D03*
%TD*%
D22*
%TO.C,C3*%
X131515000Y-94987500D03*
X131515000Y-97062500D03*
%TD*%
D17*
%TO.C,R2*%
X115005000Y-97565000D03*
X115005000Y-99565000D03*
%TD*%
D32*
%TO.C,JP2*%
X80715000Y-67360000D03*
D33*
X80715000Y-68810000D03*
%TD*%
D18*
%TO.C,J5*%
X168980000Y-110630000D03*
D19*
X166440000Y-108090000D03*
X166440000Y-113170000D03*
X171520000Y-108090000D03*
X171520000Y-113170000D03*
%TD*%
D34*
%TO.C,U4*%
X143645000Y-56020000D03*
X143645000Y-57290000D03*
X143645000Y-58560000D03*
X143645000Y-59830000D03*
X148595000Y-59830000D03*
X148595000Y-58560000D03*
X148595000Y-57290000D03*
X148595000Y-56020000D03*
%TD*%
D13*
%TO.C,J3*%
X131515000Y-79265000D03*
X134055000Y-75955000D03*
X136595000Y-79265000D03*
%TD*%
D14*
%TO.C,R44*%
X139770000Y-63735000D03*
X139770000Y-61735000D03*
%TD*%
D11*
%TO.C,R24*%
X154740000Y-138570000D03*
X152740000Y-138570000D03*
%TD*%
D10*
%TO.C,C25*%
X160322500Y-58560000D03*
X162397500Y-58560000D03*
%TD*%
D11*
%TO.C,R9*%
X117910000Y-120155000D03*
X115910000Y-120155000D03*
%TD*%
D35*
%TO.C,L1*%
X132150000Y-104400000D03*
X132150000Y-106700000D03*
%TD*%
D11*
%TO.C,R13*%
X117910000Y-123965000D03*
X115910000Y-123965000D03*
%TD*%
D18*
%TO.C,J4*%
X168980000Y-134760000D03*
D19*
X166440000Y-132220000D03*
X166440000Y-137300000D03*
X171520000Y-132220000D03*
X171520000Y-137300000D03*
%TD*%
D21*
%TO.C,R49*%
X152105000Y-58560000D03*
X154105000Y-58560000D03*
%TD*%
D32*
%TO.C,JP1*%
X80715000Y-71170000D03*
D33*
X80715000Y-72620000D03*
%TD*%
D36*
%TO.C,C23*%
X168980000Y-69650000D03*
X168980000Y-65250000D03*
%TD*%
D29*
%TO.C,J12*%
X76905000Y-88405000D03*
D30*
X79445000Y-88405000D03*
X76905000Y-85865000D03*
X79445000Y-85865000D03*
X76905000Y-83325000D03*
X79445000Y-83325000D03*
X76905000Y-80785000D03*
X79445000Y-80785000D03*
X76905000Y-78245000D03*
X79445000Y-78245000D03*
X76905000Y-75705000D03*
X79445000Y-75705000D03*
%TD*%
D13*
%TO.C,J13*%
X168980000Y-100085000D03*
X166440000Y-103395000D03*
X163900000Y-100085000D03*
%TD*%
D11*
%TO.C,R29*%
X162360000Y-129680000D03*
X160360000Y-129680000D03*
%TD*%
D34*
%TO.C,U5*%
X143645000Y-85230000D03*
X143645000Y-86500000D03*
X143645000Y-87770000D03*
X143645000Y-89040000D03*
X148595000Y-89040000D03*
X148595000Y-87770000D03*
X148595000Y-86500000D03*
X148595000Y-85230000D03*
%TD*%
D21*
%TO.C,R33*%
X168980000Y-127140000D03*
X170980000Y-127140000D03*
%TD*%
D37*
%TO.C,IC3*%
X155645000Y-113235000D03*
X154375000Y-113235000D03*
X153105000Y-113235000D03*
X151835000Y-113235000D03*
X151835000Y-118185000D03*
X153105000Y-118185000D03*
X154375000Y-118185000D03*
X155645000Y-118185000D03*
%TD*%
D29*
%TO.C,J11*%
X76885000Y-104890000D03*
D30*
X79425000Y-104890000D03*
X76885000Y-102350000D03*
X79425000Y-102350000D03*
X76885000Y-99810000D03*
X79425000Y-99810000D03*
X76885000Y-97270000D03*
X79425000Y-97270000D03*
X76885000Y-94730000D03*
X79425000Y-94730000D03*
X76885000Y-92190000D03*
X79425000Y-92190000D03*
%TD*%
D17*
%TO.C,R1*%
X115005000Y-93120000D03*
X115005000Y-95120000D03*
%TD*%
D21*
%TO.C,R47*%
X147295000Y-82055000D03*
X149295000Y-82055000D03*
%TD*%
D26*
%TO.C,C28*%
X158525000Y-83960000D03*
X162925000Y-83960000D03*
%TD*%
D11*
%TO.C,R31*%
X162360000Y-113170000D03*
X160360000Y-113170000D03*
%TD*%
D10*
%TO.C,C15*%
X140002500Y-123330000D03*
X142077500Y-123330000D03*
%TD*%
%TO.C,C18*%
X127937500Y-72530000D03*
X130012500Y-72530000D03*
%TD*%
D37*
%TO.C,IC2*%
X155645000Y-129745000D03*
X154375000Y-129745000D03*
X153105000Y-129745000D03*
X151835000Y-129745000D03*
X151835000Y-134695000D03*
X153105000Y-134695000D03*
X154375000Y-134695000D03*
X155645000Y-134695000D03*
%TD*%
D38*
%TO.C,J1*%
X91385000Y-66294000D03*
X88335000Y-120674000D03*
%TD*%
M02*
