%TF.GenerationSoftware,KiCad,Pcbnew,8.0.0*%
%TF.CreationDate,2024-09-01T16:52:44+03:00*%
%TF.ProjectId,ML605_LPC_Board_wADC_DAC,4d4c3630-355f-44c5-9043-5f426f617264,rev?*%
%TF.SameCoordinates,Original*%
%TF.FileFunction,Copper,L1,Top*%
%TF.FilePolarity,Positive*%
%FSLAX46Y46*%
G04 Gerber Fmt 4.6, Leading zero omitted, Abs format (unit mm)*
G04 Created by KiCad (PCBNEW 8.0.0) date 2024-09-01 16:52:44*
%MOMM*%
%LPD*%
G01*
G04 APERTURE LIST*
G04 Aperture macros list*
%AMRoundRect*
0 Rectangle with rounded corners*
0 $1 Rounding radius*
0 $2 $3 $4 $5 $6 $7 $8 $9 X,Y pos of 4 corners*
0 Add a 4 corners polygon primitive as box body*
4,1,4,$2,$3,$4,$5,$6,$7,$8,$9,$2,$3,0*
0 Add four circle primitives for the rounded corners*
1,1,$1+$1,$2,$3*
1,1,$1+$1,$4,$5*
1,1,$1+$1,$6,$7*
1,1,$1+$1,$8,$9*
0 Add four rect primitives between the rounded corners*
20,1,$1+$1,$2,$3,$4,$5,0*
20,1,$1+$1,$4,$5,$6,$7,0*
20,1,$1+$1,$6,$7,$8,$9,0*
20,1,$1+$1,$8,$9,$2,$3,0*%
%AMFreePoly0*
4,1,6,1.000000,0.000000,0.500000,-0.750000,-0.500000,-0.750000,-0.500000,0.750000,0.500000,0.750000,1.000000,0.000000,1.000000,0.000000,$1*%
%AMFreePoly1*
4,1,6,0.500000,-0.750000,-0.650000,-0.750000,-0.150000,0.000000,-0.650000,0.750000,0.500000,0.750000,0.500000,-0.750000,0.500000,-0.750000,$1*%
G04 Aperture macros list end*
%TA.AperFunction,SMDPad,CuDef*%
%ADD10RoundRect,0.150000X-0.150000X0.825000X-0.150000X-0.825000X0.150000X-0.825000X0.150000X0.825000X0*%
%TD*%
%TA.AperFunction,SMDPad,CuDef*%
%ADD11FreePoly0,90.000000*%
%TD*%
%TA.AperFunction,SMDPad,CuDef*%
%ADD12FreePoly1,90.000000*%
%TD*%
%TA.AperFunction,SMDPad,CuDef*%
%ADD13RoundRect,0.250000X-0.337500X-0.475000X0.337500X-0.475000X0.337500X0.475000X-0.337500X0.475000X0*%
%TD*%
%TA.AperFunction,SMDPad,CuDef*%
%ADD14RoundRect,0.250000X0.350000X0.450000X-0.350000X0.450000X-0.350000X-0.450000X0.350000X-0.450000X0*%
%TD*%
%TA.AperFunction,SMDPad,CuDef*%
%ADD15RoundRect,0.250000X0.337500X0.475000X-0.337500X0.475000X-0.337500X-0.475000X0.337500X-0.475000X0*%
%TD*%
%TA.AperFunction,SMDPad,CuDef*%
%ADD16R,1.000000X2.510000*%
%TD*%
%TA.AperFunction,SMDPad,CuDef*%
%ADD17RoundRect,0.250000X0.450000X-0.350000X0.450000X0.350000X-0.450000X0.350000X-0.450000X-0.350000X0*%
%TD*%
%TA.AperFunction,SMDPad,CuDef*%
%ADD18C,0.500000*%
%TD*%
%TA.AperFunction,SMDPad,CuDef*%
%ADD19RoundRect,0.250000X-0.450000X0.350000X-0.450000X-0.350000X0.450000X-0.350000X0.450000X0.350000X0*%
%TD*%
%TA.AperFunction,ComponentPad*%
%ADD20C,2.050000*%
%TD*%
%TA.AperFunction,ComponentPad*%
%ADD21C,2.250000*%
%TD*%
%TA.AperFunction,SMDPad,CuDef*%
%ADD22RoundRect,0.250000X-0.550000X1.250000X-0.550000X-1.250000X0.550000X-1.250000X0.550000X1.250000X0*%
%TD*%
%TA.AperFunction,SMDPad,CuDef*%
%ADD23RoundRect,0.250000X-0.475000X0.337500X-0.475000X-0.337500X0.475000X-0.337500X0.475000X0.337500X0*%
%TD*%
%TA.AperFunction,SMDPad,CuDef*%
%ADD24RoundRect,0.100000X-0.100000X0.225000X-0.100000X-0.225000X0.100000X-0.225000X0.100000X0.225000X0*%
%TD*%
%TA.AperFunction,SMDPad,CuDef*%
%ADD25RoundRect,0.250000X-0.350000X-0.450000X0.350000X-0.450000X0.350000X0.450000X-0.350000X0.450000X0*%
%TD*%
%TA.AperFunction,SMDPad,CuDef*%
%ADD26RoundRect,0.375000X-0.625000X-0.375000X0.625000X-0.375000X0.625000X0.375000X-0.625000X0.375000X0*%
%TD*%
%TA.AperFunction,SMDPad,CuDef*%
%ADD27RoundRect,0.500000X-0.500000X-1.400000X0.500000X-1.400000X0.500000X1.400000X-0.500000X1.400000X0*%
%TD*%
%TA.AperFunction,SMDPad,CuDef*%
%ADD28RoundRect,0.250000X-1.250000X-0.550000X1.250000X-0.550000X1.250000X0.550000X-1.250000X0.550000X0*%
%TD*%
%TA.AperFunction,SMDPad,CuDef*%
%ADD29RoundRect,0.075000X-0.075000X0.662500X-0.075000X-0.662500X0.075000X-0.662500X0.075000X0.662500X0*%
%TD*%
%TA.AperFunction,SMDPad,CuDef*%
%ADD30RoundRect,0.075000X-0.662500X0.075000X-0.662500X-0.075000X0.662500X-0.075000X0.662500X0.075000X0*%
%TD*%
%TA.AperFunction,ComponentPad*%
%ADD31R,1.700000X1.700000*%
%TD*%
%TA.AperFunction,ComponentPad*%
%ADD32O,1.700000X1.700000*%
%TD*%
%TA.AperFunction,SMDPad,CuDef*%
%ADD33RoundRect,0.100000X-0.225000X-0.100000X0.225000X-0.100000X0.225000X0.100000X-0.225000X0.100000X0*%
%TD*%
%TA.AperFunction,SMDPad,CuDef*%
%ADD34RoundRect,0.150000X-0.825000X-0.150000X0.825000X-0.150000X0.825000X0.150000X-0.825000X0.150000X0*%
%TD*%
%TA.AperFunction,SMDPad,CuDef*%
%ADD35RoundRect,0.250000X-0.350000X0.275000X-0.350000X-0.275000X0.350000X-0.275000X0.350000X0.275000X0*%
%TD*%
%TA.AperFunction,SMDPad,CuDef*%
%ADD36RoundRect,0.250000X0.550000X-1.250000X0.550000X1.250000X-0.550000X1.250000X-0.550000X-1.250000X0*%
%TD*%
%TA.AperFunction,ViaPad*%
%ADD37C,0.700000*%
%TD*%
%TA.AperFunction,ViaPad*%
%ADD38C,1.000000*%
%TD*%
%TA.AperFunction,Conductor*%
%ADD39C,0.508000*%
%TD*%
%TA.AperFunction,Conductor*%
%ADD40C,0.254000*%
%TD*%
%TA.AperFunction,Conductor*%
%ADD41C,0.355600*%
%TD*%
%TA.AperFunction,Conductor*%
%ADD42C,0.762000*%
%TD*%
%TA.AperFunction,Conductor*%
%ADD43C,1.016000*%
%TD*%
%TA.AperFunction,Conductor*%
%ADD44C,0.200000*%
%TD*%
%ADD45C,0.300000*%
%ADD46C,0.350000*%
G04 APERTURE END LIST*
D10*
%TO.P,U6,8,VCC*%
%TO.N,3V3*%
X81220000Y-67385000D03*
%TO.P,U6,7,~{WC}*%
%TO.N,GNDA*%
X79950000Y-67385000D03*
%TO.P,U6,6,SCL*%
%TO.N,/Identification_EEPROM/SCL*%
X78680000Y-67385000D03*
%TO.P,U6,5,SDA*%
%TO.N,/Identification_EEPROM/SDA*%
X77410000Y-67385000D03*
%TO.P,U6,4,VSS*%
%TO.N,GNDA*%
X77410000Y-62435000D03*
%TO.P,U6,3,E2*%
X78680000Y-62435000D03*
%TO.P,U6,2,E1*%
%TO.N,/GA0*%
X79950000Y-62435000D03*
%TO.P,U6,1,E0*%
%TO.N,/GA1*%
X81220000Y-62435000D03*
%TD*%
D11*
%TO.P,JP2,1,A*%
%TO.N,/SCL*%
X79445000Y-71350000D03*
D12*
%TO.P,JP2,2,B*%
%TO.N,/Identification_EEPROM/SCL*%
X79445000Y-69900000D03*
%TD*%
D11*
%TO.P,JP1,1,A*%
%TO.N,/SDA*%
X76905000Y-71350000D03*
D12*
%TO.P,JP1,2,B*%
%TO.N,/Identification_EEPROM/SDA*%
X76905000Y-69900000D03*
%TD*%
D13*
%TO.P,C38,1*%
%TO.N,GNDA*%
X109522500Y-77610000D03*
%TO.P,C38,2*%
%TO.N,VADJ*%
X111597500Y-77610000D03*
%TD*%
%TO.P,C29,1*%
%TO.N,Net-(J7-Pin_1)*%
X160322500Y-88405000D03*
%TO.P,C29,2*%
%TO.N,Net-(J9-In)*%
X162397500Y-88405000D03*
%TD*%
D14*
%TO.P,R40,1*%
%TO.N,Net-(U4--)*%
X139770000Y-56655000D03*
%TO.P,R40,2*%
%TO.N,/DAC Circuit/IOUTA_P*%
X137770000Y-56655000D03*
%TD*%
D15*
%TO.P,C14,1*%
%TO.N,GNDA*%
X142077500Y-118250000D03*
%TO.P,C14,2*%
%TO.N,/ADC_Circuit/VCM_ADC*%
X140002500Y-118250000D03*
%TD*%
D13*
%TO.P,C12,1*%
%TO.N,3V3*%
X140002500Y-120790000D03*
%TO.P,C12,2*%
%TO.N,GNDA*%
X142077500Y-120790000D03*
%TD*%
D14*
%TO.P,R5,1*%
%TO.N,Net-(IC1-I2)*%
X117910000Y-116345000D03*
%TO.P,R5,2*%
%TO.N,/LA16_P*%
X115910000Y-116345000D03*
%TD*%
%TO.P,R3,1*%
%TO.N,Net-(IC1-I4)*%
X117910000Y-114440000D03*
%TO.P,R3,2*%
%TO.N,/LA15_P*%
X115910000Y-114440000D03*
%TD*%
D16*
%TO.P,J14,1,Pin_1*%
%TO.N,/ADC_Circuit/Q_IN*%
X168980000Y-141995000D03*
%TO.P,J14,2,Pin_2*%
%TO.N,GNDA*%
X166440000Y-145305000D03*
%TO.P,J14,3,Pin_3*%
%TO.N,unconnected-(J14-Pin_3-Pad3)*%
X163900000Y-141995000D03*
%TD*%
D17*
%TO.P,R45,1*%
%TO.N,GNDA*%
X139770000Y-93850000D03*
%TO.P,R45,2*%
%TO.N,Net-(U5-+)*%
X139770000Y-91850000D03*
%TD*%
D18*
%TO.P,FID2,*%
%TO.N,*%
X173425000Y-147460000D03*
%TD*%
D13*
%TO.P,C37,1*%
%TO.N,GNDA*%
X135557500Y-131585000D03*
%TO.P,C37,2*%
%TO.N,VADJ*%
X137632500Y-131585000D03*
%TD*%
D14*
%TO.P,R41,1*%
%TO.N,Net-(U4-+)*%
X139770000Y-58560000D03*
%TO.P,R41,2*%
%TO.N,/DAC Circuit/IOUTA_N*%
X137770000Y-58560000D03*
%TD*%
D19*
%TO.P,R39,1*%
%TO.N,/DAC Circuit/IOUTB_N*%
X131515000Y-88040000D03*
%TO.P,R39,2*%
%TO.N,1V5*%
X131515000Y-90040000D03*
%TD*%
%TO.P,R16,1*%
%TO.N,Net-(IC1-Q2)*%
X127705000Y-127410000D03*
%TO.P,R16,2*%
%TO.N,/LA04_P*%
X127705000Y-129410000D03*
%TD*%
D17*
%TO.P,R38,1*%
%TO.N,/DAC Circuit/IOUTB_P*%
X131515000Y-85595000D03*
%TO.P,R38,2*%
%TO.N,GNDA*%
X131515000Y-83595000D03*
%TD*%
D14*
%TO.P,R11,1*%
%TO.N,Net-(IC1-Q6)*%
X117910000Y-122060000D03*
%TO.P,R11,2*%
%TO.N,/LA07_P*%
X115910000Y-122060000D03*
%TD*%
D20*
%TO.P,J8,1,In*%
%TO.N,Net-(J8-In)*%
X168980000Y-58560000D03*
D21*
%TO.P,J8,2,Ext*%
%TO.N,GNDA*%
X166440000Y-56020000D03*
X166440000Y-61100000D03*
X171520000Y-56020000D03*
X171520000Y-61100000D03*
%TD*%
D22*
%TO.P,C1,1*%
%TO.N,1V5*%
X121990000Y-93825000D03*
%TO.P,C1,2*%
%TO.N,GNDA*%
X121990000Y-98225000D03*
%TD*%
D17*
%TO.P,R48,1*%
%TO.N,/PRSNT_M2C_L*%
X95955000Y-120520000D03*
%TO.P,R48,2*%
%TO.N,GNDA*%
X95955000Y-118520000D03*
%TD*%
D18*
%TO.P,FID1,*%
%TO.N,*%
X173425000Y-51575000D03*
%TD*%
D14*
%TO.P,R30,1*%
%TO.N,/ADC_Circuit/I_IN*%
X162360000Y-118250000D03*
%TO.P,R30,2*%
%TO.N,Net-(IC3-+IN)*%
X160360000Y-118250000D03*
%TD*%
D13*
%TO.P,C4,1*%
%TO.N,Net-(IC1-VD)*%
X132150000Y-111900000D03*
%TO.P,C4,2*%
%TO.N,GNDA*%
X134225000Y-111900000D03*
%TD*%
D16*
%TO.P,J2,1,Pin_1*%
%TO.N,GNDA*%
X130245000Y-141495000D03*
%TO.P,J2,2,Pin_2*%
%TO.N,/ADC_Circuit/PD*%
X132785000Y-138185000D03*
%TO.P,J2,3,Pin_3*%
%TO.N,VADJ*%
X135325000Y-141495000D03*
%TD*%
D14*
%TO.P,R26,1*%
%TO.N,Net-(IC3-+IN)*%
X154740000Y-122060000D03*
%TO.P,R26,2*%
%TO.N,/ADC_Circuit/I-*%
X152740000Y-122060000D03*
%TD*%
%TO.P,R43,1*%
%TO.N,Net-(U5-+)*%
X139770000Y-87770000D03*
%TO.P,R43,2*%
%TO.N,/DAC Circuit/IOUTB_N*%
X137770000Y-87770000D03*
%TD*%
D23*
%TO.P,C2,1*%
%TO.N,1V5*%
X127705000Y-94987500D03*
%TO.P,C2,2*%
%TO.N,GNDA*%
X127705000Y-97062500D03*
%TD*%
D16*
%TO.P,J6,1,Pin_1*%
%TO.N,Net-(J6-Pin_1)*%
X149295000Y-71010000D03*
%TO.P,J6,2,Pin_2*%
%TO.N,Net-(J6-Pin_2)*%
X151835000Y-67700000D03*
%TO.P,J6,3,Pin_3*%
%TO.N,unconnected-(J6-Pin_3-Pad3)*%
X154375000Y-71010000D03*
%TD*%
D24*
%TO.P,U2,1*%
%TO.N,/DAC Circuit/CLKA{slash}CLKIQ*%
X111845000Y-72215000D03*
%TO.P,U2,2,V-*%
%TO.N,GNDA*%
X111195000Y-72215000D03*
%TO.P,U2,3,+*%
%TO.N,/LA26_P*%
X110545000Y-72215000D03*
%TO.P,U2,4,-*%
%TO.N,/LA26_N*%
X110545000Y-74115000D03*
%TO.P,U2,5,V+*%
%TO.N,VADJ*%
X111845000Y-74115000D03*
%TD*%
D14*
%TO.P,R28,1*%
%TO.N,/ADC_Circuit/Q_IN*%
X162360000Y-134760000D03*
%TO.P,R28,2*%
%TO.N,Net-(IC2-+IN)*%
X160360000Y-134760000D03*
%TD*%
D25*
%TO.P,R46,1*%
%TO.N,Net-(U4--)*%
X147295000Y-52845000D03*
%TO.P,R46,2*%
%TO.N,Net-(R46-Pad2)*%
X149295000Y-52845000D03*
%TD*%
D26*
%TO.P,U3,1,ADJ*%
%TO.N,Net-(U3-ADJ)*%
X104235000Y-90550000D03*
%TO.P,U3,2,VO*%
%TO.N,1V5*%
X104235000Y-92850000D03*
D27*
X110535000Y-92850000D03*
D26*
%TO.P,U3,3,VI*%
%TO.N,3V3*%
X104235000Y-95150000D03*
%TD*%
D14*
%TO.P,R25,1*%
%TO.N,Net-(IC2--IN)*%
X154740000Y-125870000D03*
%TO.P,R25,2*%
%TO.N,/ADC_Circuit/Q+*%
X152740000Y-125870000D03*
%TD*%
D19*
%TO.P,R20,1*%
%TO.N,Net-(IC1-Q0)*%
X129610000Y-127410000D03*
%TO.P,R20,2*%
%TO.N,/LA03_P*%
X129610000Y-129410000D03*
%TD*%
D25*
%TO.P,R50,1*%
%TO.N,Net-(R47-Pad2)*%
X151835000Y-87770000D03*
%TO.P,R50,2*%
%TO.N,Net-(J7-Pin_1)*%
X153835000Y-87770000D03*
%TD*%
D28*
%TO.P,C24,1*%
%TO.N,Net-(J6-Pin_2)*%
X158525000Y-63005000D03*
%TO.P,C24,2*%
%TO.N,Net-(J8-In)*%
X162925000Y-63005000D03*
%TD*%
D20*
%TO.P,J9,1,In*%
%TO.N,Net-(J9-In)*%
X168980000Y-88405000D03*
D21*
%TO.P,J9,2,Ext*%
%TO.N,GNDA*%
X166440000Y-85865000D03*
X166440000Y-90945000D03*
X171520000Y-85865000D03*
X171520000Y-90945000D03*
%TD*%
D25*
%TO.P,R15,1*%
%TO.N,/LA15_N*%
X124165000Y-113170000D03*
%TO.P,R15,2*%
%TO.N,Net-(IC1-I5)*%
X126165000Y-113170000D03*
%TD*%
D29*
%TO.P,IC1,1,VREF*%
%TO.N,1V5*%
X133630000Y-115357500D03*
%TO.P,IC1,2,OS*%
%TO.N,VADJ*%
X133130000Y-115357500D03*
%TO.P,IC1,3,AGND_1*%
%TO.N,GNDA*%
X132630000Y-115357500D03*
%TO.P,IC1,4,VD*%
%TO.N,Net-(IC1-VD)*%
X132130000Y-115357500D03*
%TO.P,IC1,5,DGND*%
%TO.N,GNDA*%
X131630000Y-115357500D03*
%TO.P,IC1,6,VDR_1*%
%TO.N,VADJ*%
X131130000Y-115357500D03*
%TO.P,IC1,7,DR_GND_1*%
%TO.N,GNDA*%
X130630000Y-115357500D03*
%TO.P,IC1,8,I9*%
%TO.N,Net-(IC1-I9)*%
X130130000Y-115357500D03*
%TO.P,IC1,9,I8*%
%TO.N,Net-(IC1-I8)*%
X129630000Y-115357500D03*
%TO.P,IC1,10,I7*%
%TO.N,Net-(IC1-I7)*%
X129130000Y-115357500D03*
%TO.P,IC1,11,I6*%
%TO.N,Net-(IC1-I6)*%
X128630000Y-115357500D03*
%TO.P,IC1,12,I5*%
%TO.N,Net-(IC1-I5)*%
X128130000Y-115357500D03*
D30*
%TO.P,IC1,13,I4*%
%TO.N,Net-(IC1-I4)*%
X126717500Y-116770000D03*
%TO.P,IC1,14,I3*%
%TO.N,Net-(IC1-I3)*%
X126717500Y-117270000D03*
%TO.P,IC1,15,I2*%
%TO.N,Net-(IC1-I2)*%
X126717500Y-117770000D03*
%TO.P,IC1,16,I1*%
%TO.N,Net-(IC1-I1)*%
X126717500Y-118270000D03*
%TO.P,IC1,17,I0*%
%TO.N,Net-(IC1-I0)*%
X126717500Y-118770000D03*
%TO.P,IC1,18,Q9*%
%TO.N,Net-(IC1-Q9)*%
X126717500Y-119270000D03*
%TO.P,IC1,19,Q8*%
%TO.N,Net-(IC1-Q8)*%
X126717500Y-119770000D03*
%TO.P,IC1,20,Q7*%
%TO.N,Net-(IC1-Q7)*%
X126717500Y-120270000D03*
%TO.P,IC1,21,Q6*%
%TO.N,Net-(IC1-Q6)*%
X126717500Y-120770000D03*
%TO.P,IC1,22,Q5*%
%TO.N,Net-(IC1-Q5)*%
X126717500Y-121270000D03*
%TO.P,IC1,23,Q4*%
%TO.N,Net-(IC1-Q4)*%
X126717500Y-121770000D03*
%TO.P,IC1,24,Q3*%
%TO.N,Net-(IC1-Q3)*%
X126717500Y-122270000D03*
D29*
%TO.P,IC1,25,Q2*%
%TO.N,Net-(IC1-Q2)*%
X128130000Y-123682500D03*
%TO.P,IC1,26,Q1*%
%TO.N,Net-(IC1-Q1)*%
X128630000Y-123682500D03*
%TO.P,IC1,27,Q0*%
%TO.N,Net-(IC1-Q0)*%
X129130000Y-123682500D03*
%TO.P,IC1,28,I/~{Q}*%
%TO.N,Net-(IC1-I{slash}~{Q})*%
X129630000Y-123682500D03*
%TO.P,IC1,29,DR_GND_2*%
%TO.N,GNDA*%
X130130000Y-123682500D03*
%TO.P,IC1,30,VDR_2*%
%TO.N,VADJ*%
X130630000Y-123682500D03*
%TO.P,IC1,31,OC*%
%TO.N,/LA02_P*%
X131130000Y-123682500D03*
%TO.P,IC1,32,OF*%
%TO.N,/LA00_N_CC*%
X131630000Y-123682500D03*
%TO.P,IC1,33,CLK*%
%TO.N,/ADC_Circuit/CLK*%
X132130000Y-123682500D03*
%TO.P,IC1,34,STBY*%
%TO.N,/ADC_Circuit/PD*%
X132630000Y-123682500D03*
%TO.P,IC1,35,PD*%
X133130000Y-123682500D03*
%TO.P,IC1,36,GAIN*%
%TO.N,/LA00_P_CC*%
X133630000Y-123682500D03*
D30*
%TO.P,IC1,37,Q+*%
%TO.N,/ADC_Circuit/Q+*%
X135042500Y-122270000D03*
%TO.P,IC1,38,Q-*%
%TO.N,/ADC_Circuit/Q-*%
X135042500Y-121770000D03*
%TO.P,IC1,39,AGND_2*%
%TO.N,GNDA*%
X135042500Y-121270000D03*
%TO.P,IC1,40,VA_1*%
%TO.N,3V3*%
X135042500Y-120770000D03*
%TO.P,IC1,41,VA_2*%
X135042500Y-120270000D03*
%TO.P,IC1,42,AGND_3*%
%TO.N,GNDA*%
X135042500Y-119770000D03*
%TO.P,IC1,43,VRP*%
%TO.N,Net-(IC1-VRP)*%
X135042500Y-119270000D03*
%TO.P,IC1,44,VRN*%
%TO.N,Net-(IC1-VRN)*%
X135042500Y-118770000D03*
%TO.P,IC1,45,VCMO*%
%TO.N,/ADC_Circuit/VCM_ADC*%
X135042500Y-118270000D03*
%TO.P,IC1,46,AGND_4*%
%TO.N,GNDA*%
X135042500Y-117770000D03*
%TO.P,IC1,47,I-*%
%TO.N,/ADC_Circuit/I-*%
X135042500Y-117270000D03*
%TO.P,IC1,48,I+*%
%TO.N,/ADC_Circuit/I+*%
X135042500Y-116770000D03*
%TD*%
D14*
%TO.P,R42,1*%
%TO.N,Net-(U5--)*%
X139770000Y-85865000D03*
%TO.P,R42,2*%
%TO.N,/DAC Circuit/IOUTB_P*%
X137770000Y-85865000D03*
%TD*%
D17*
%TO.P,R36,1*%
%TO.N,/DAC Circuit/IOUTA_P*%
X131515000Y-56385000D03*
%TO.P,R36,2*%
%TO.N,GNDA*%
X131515000Y-54385000D03*
%TD*%
D14*
%TO.P,R7,1*%
%TO.N,Net-(IC1-I0)*%
X117910000Y-118250000D03*
%TO.P,R7,2*%
%TO.N,/LA11_P*%
X115910000Y-118250000D03*
%TD*%
D15*
%TO.P,C30,1*%
%TO.N,Net-(J9-In)*%
X162397500Y-90945000D03*
%TO.P,C30,2*%
%TO.N,Net-(J7-Pin_1)*%
X160322500Y-90945000D03*
%TD*%
D18*
%TO.P,FID3,*%
%TO.N,*%
X94050000Y-148095000D03*
%TD*%
D22*
%TO.P,C27,1*%
%TO.N,Net-(J7-Pin_2)*%
X168980000Y-76680000D03*
%TO.P,C27,2*%
%TO.N,Net-(J9-In)*%
X168980000Y-81080000D03*
%TD*%
D25*
%TO.P,R19,1*%
%TO.N,/LA20_N*%
X124165000Y-111265000D03*
%TO.P,R19,2*%
%TO.N,Net-(IC1-I7)*%
X126165000Y-111265000D03*
%TD*%
D13*
%TO.P,C5,1*%
%TO.N,Net-(IC1-VD)*%
X132150000Y-109360000D03*
%TO.P,C5,2*%
%TO.N,GNDA*%
X134225000Y-109360000D03*
%TD*%
D19*
%TO.P,R37,1*%
%TO.N,/DAC Circuit/IOUTA_N*%
X131515000Y-58830000D03*
%TO.P,R37,2*%
%TO.N,1V5*%
X131515000Y-60830000D03*
%TD*%
D31*
%TO.P,J10,1,Pin_1*%
%TO.N,/CLK1_M2C_N*%
X76905000Y-121425000D03*
D32*
%TO.P,J10,2,Pin_2*%
%TO.N,/CLK1_M2C_P*%
X79445000Y-121425000D03*
%TO.P,J10,3,Pin_3*%
%TO.N,/LA01_N*%
X76905000Y-118885000D03*
%TO.P,J10,4,Pin_4*%
%TO.N,/LA01_P*%
X79445000Y-118885000D03*
%TO.P,J10,5,Pin_5*%
%TO.N,/LA06_N*%
X76905000Y-116345000D03*
%TO.P,J10,6,Pin_6*%
%TO.N,/LA06_P*%
X79445000Y-116345000D03*
%TO.P,J10,7,Pin_7*%
%TO.N,/LA05_N*%
X76905000Y-113805000D03*
%TO.P,J10,8,Pin_8*%
%TO.N,/LA05_P*%
X79445000Y-113805000D03*
%TO.P,J10,9,Pin_9*%
%TO.N,GNDA*%
X76905000Y-111265000D03*
%TO.P,J10,10,Pin_10*%
X79445000Y-111265000D03*
%TO.P,J10,11,Pin_11*%
%TO.N,3V3*%
X76905000Y-108725000D03*
%TO.P,J10,12,Pin_12*%
X79445000Y-108725000D03*
%TD*%
D14*
%TO.P,R27,1*%
%TO.N,Net-(IC3--IN)*%
X154740000Y-109360000D03*
%TO.P,R27,2*%
%TO.N,/ADC_Circuit/I+*%
X152740000Y-109360000D03*
%TD*%
D15*
%TO.P,C26,1*%
%TO.N,Net-(J8-In)*%
X162397500Y-56020000D03*
%TO.P,C26,2*%
%TO.N,Net-(J6-Pin_1)*%
X160322500Y-56020000D03*
%TD*%
D29*
%TO.P,IC4,1,DA9_(MSB)*%
%TO.N,/LA32_N*%
X123855000Y-68650000D03*
%TO.P,IC4,2,DA8*%
%TO.N,/LA32_P*%
X123355000Y-68650000D03*
%TO.P,IC4,3,DA7*%
%TO.N,/LA33_N*%
X122855000Y-68650000D03*
%TO.P,IC4,4,DA6*%
%TO.N,/LA33_P*%
X122355000Y-68650000D03*
%TO.P,IC4,5,DA5*%
%TO.N,/LA30_N*%
X121855000Y-68650000D03*
%TO.P,IC4,6,DA4*%
%TO.N,/LA30_P*%
X121355000Y-68650000D03*
%TO.P,IC4,7,DA3*%
%TO.N,/LA31_N*%
X120855000Y-68650000D03*
%TO.P,IC4,8,DA2*%
%TO.N,/LA31_P*%
X120355000Y-68650000D03*
%TO.P,IC4,9,DA1*%
%TO.N,/LA28_N*%
X119855000Y-68650000D03*
%TO.P,IC4,10,DA0_(LSB)*%
%TO.N,/LA28_P*%
X119355000Y-68650000D03*
%TO.P,IC4,11,NC_1*%
%TO.N,unconnected-(IC4-NC_1-Pad11)*%
X118855000Y-68650000D03*
%TO.P,IC4,12,NC_2*%
%TO.N,unconnected-(IC4-NC_2-Pad12)*%
X118355000Y-68650000D03*
D30*
%TO.P,IC4,13,NC_3*%
%TO.N,unconnected-(IC4-NC_3-Pad13)*%
X116942500Y-70062500D03*
%TO.P,IC4,14,NC_4*%
%TO.N,unconnected-(IC4-NC_4-Pad14)*%
X116942500Y-70562500D03*
%TO.P,IC4,15,DGND_1*%
%TO.N,GNDA*%
X116942500Y-71062500D03*
%TO.P,IC4,16,DVDD_1*%
%TO.N,3V3*%
X116942500Y-71562500D03*
%TO.P,IC4,17,WRTA/WRTIQ*%
%TO.N,/LA29_N*%
X116942500Y-72062500D03*
%TO.P,IC4,18,CLKA/CLKIQ*%
%TO.N,/DAC Circuit/CLKA{slash}CLKIQ*%
X116942500Y-72562500D03*
%TO.P,IC4,19,CLKB/RESETIQ*%
X116942500Y-73062500D03*
%TO.P,IC4,20,WRTB/SELECTIQ*%
%TO.N,/LA29_P*%
X116942500Y-73562500D03*
%TO.P,IC4,21,DGND_2*%
%TO.N,GNDA*%
X116942500Y-74062500D03*
%TO.P,IC4,22,DVDD_2*%
%TO.N,3V3*%
X116942500Y-74562500D03*
%TO.P,IC4,23,DB9_(MSB)*%
%TO.N,/LA24_N*%
X116942500Y-75062500D03*
%TO.P,IC4,24,DB8*%
%TO.N,/LA24_P*%
X116942500Y-75562500D03*
D29*
%TO.P,IC4,25,DB7*%
%TO.N,/LA25_N*%
X118355000Y-76975000D03*
%TO.P,IC4,26,DB6*%
%TO.N,/LA25_P*%
X118855000Y-76975000D03*
%TO.P,IC4,27,DB5*%
%TO.N,/LA21_N*%
X119355000Y-76975000D03*
%TO.P,IC4,28,DB4*%
%TO.N,/LA21_P*%
X119855000Y-76975000D03*
%TO.P,IC4,29,DB3*%
%TO.N,/LA22_N*%
X120355000Y-76975000D03*
%TO.P,IC4,30,DB2*%
%TO.N,/LA22_P*%
X120855000Y-76975000D03*
%TO.P,IC4,31,DB1*%
%TO.N,/LA23_N*%
X121355000Y-76975000D03*
%TO.P,IC4,32,DB0_(LSB)*%
%TO.N,/LA23_P*%
X121855000Y-76975000D03*
%TO.P,IC4,33,NC_5*%
%TO.N,unconnected-(IC4-NC_5-Pad33)*%
X122355000Y-76975000D03*
%TO.P,IC4,34,NC_6*%
%TO.N,unconnected-(IC4-NC_6-Pad34)*%
X122855000Y-76975000D03*
%TO.P,IC4,35,NC_7*%
%TO.N,unconnected-(IC4-NC_7-Pad35)*%
X123355000Y-76975000D03*
%TO.P,IC4,36,NC_8*%
%TO.N,unconnected-(IC4-NC_8-Pad36)*%
X123855000Y-76975000D03*
D30*
%TO.P,IC4,37,SLEEP*%
%TO.N,/DAC Circuit/SLEEP*%
X125267500Y-75562500D03*
%TO.P,IC4,38,AGND*%
%TO.N,GNDA*%
X125267500Y-75062500D03*
%TO.P,IC4,39,IOUTB1*%
%TO.N,/DAC Circuit/IOUTB_N*%
X125267500Y-74562500D03*
%TO.P,IC4,40,IOUTB2*%
%TO.N,/DAC Circuit/IOUTB_P*%
X125267500Y-74062500D03*
%TO.P,IC4,41,BIASJ_B*%
%TO.N,unconnected-(IC4-BIASJ_B-Pad41)*%
X125267500Y-73562500D03*
%TO.P,IC4,42,GSET*%
%TO.N,unconnected-(IC4-GSET-Pad42)*%
X125267500Y-73062500D03*
%TO.P,IC4,43,EXTIO*%
%TO.N,Net-(IC4-EXTIO)*%
X125267500Y-72562500D03*
%TO.P,IC4,44,BIASJ_A*%
%TO.N,Net-(IC4-BIASJ_A)*%
X125267500Y-72062500D03*
%TO.P,IC4,45,IOUTA2*%
%TO.N,/DAC Circuit/IOUTA_N*%
X125267500Y-71562500D03*
%TO.P,IC4,46,IOUTA1*%
%TO.N,/DAC Circuit/IOUTA_P*%
X125267500Y-71062500D03*
%TO.P,IC4,47,AVDD*%
%TO.N,3V3*%
X125267500Y-70562500D03*
%TO.P,IC4,48,MODE*%
%TO.N,VADJ*%
X125267500Y-70062500D03*
%TD*%
D25*
%TO.P,R32,1*%
%TO.N,/ADC_Circuit/I_IN*%
X168980000Y-118250000D03*
%TO.P,R32,2*%
%TO.N,GNDA*%
X170980000Y-118250000D03*
%TD*%
D13*
%TO.P,C13,1*%
%TO.N,/ADC_Circuit/VCM_ADC*%
X140002500Y-115710000D03*
%TO.P,C13,2*%
%TO.N,GNDA*%
X142077500Y-115710000D03*
%TD*%
D33*
%TO.P,U1,1*%
%TO.N,/ADC_Circuit/CLK*%
X135645000Y-127125000D03*
%TO.P,U1,2,V-*%
%TO.N,GNDA*%
X135645000Y-127775000D03*
%TO.P,U1,3,+*%
%TO.N,/CLK0_M2C_P*%
X135645000Y-128425000D03*
%TO.P,U1,4,-*%
%TO.N,/CLK0_M2C_N*%
X137545000Y-128425000D03*
%TO.P,U1,5,V+*%
%TO.N,VADJ*%
X137545000Y-127125000D03*
%TD*%
D16*
%TO.P,J7,1,Pin_1*%
%TO.N,Net-(J7-Pin_1)*%
X149295000Y-78630000D03*
%TO.P,J7,2,Pin_2*%
%TO.N,Net-(J7-Pin_2)*%
X151835000Y-75320000D03*
%TO.P,J7,3,Pin_3*%
%TO.N,unconnected-(J7-Pin_3-Pad3)*%
X154375000Y-78630000D03*
%TD*%
D23*
%TO.P,C3,1*%
%TO.N,1V5*%
X131515000Y-94987500D03*
%TO.P,C3,2*%
%TO.N,GNDA*%
X131515000Y-97062500D03*
%TD*%
D19*
%TO.P,R2,1*%
%TO.N,Net-(U3-ADJ)*%
X115005000Y-97565000D03*
%TO.P,R2,2*%
%TO.N,GNDA*%
X115005000Y-99565000D03*
%TD*%
D20*
%TO.P,J5,1,In*%
%TO.N,/ADC_Circuit/I_IN*%
X168980000Y-110630000D03*
D21*
%TO.P,J5,2,Ext*%
%TO.N,GNDA*%
X166440000Y-108090000D03*
X166440000Y-113170000D03*
X171520000Y-108090000D03*
X171520000Y-113170000D03*
%TD*%
D34*
%TO.P,U4,1,NC*%
%TO.N,unconnected-(U4-NC-Pad1)*%
X143645000Y-56020000D03*
%TO.P,U4,2,-*%
%TO.N,Net-(U4--)*%
X143645000Y-57290000D03*
%TO.P,U4,3,+*%
%TO.N,Net-(U4-+)*%
X143645000Y-58560000D03*
%TO.P,U4,4,V-*%
%TO.N,GNDA*%
X143645000Y-59830000D03*
%TO.P,U4,5,NC*%
%TO.N,unconnected-(U4-NC-Pad5)*%
X148595000Y-59830000D03*
%TO.P,U4,6*%
%TO.N,Net-(R46-Pad2)*%
X148595000Y-58560000D03*
%TO.P,U4,7,V+*%
%TO.N,3V3*%
X148595000Y-57290000D03*
%TO.P,U4,8,NC*%
%TO.N,unconnected-(U4-NC-Pad8)*%
X148595000Y-56020000D03*
%TD*%
D16*
%TO.P,J3,1,Pin_1*%
%TO.N,GNDA*%
X131515000Y-79265000D03*
%TO.P,J3,2,Pin_2*%
%TO.N,/DAC Circuit/SLEEP*%
X134055000Y-75955000D03*
%TO.P,J3,3,Pin_3*%
%TO.N,VADJ*%
X136595000Y-79265000D03*
%TD*%
D17*
%TO.P,R44,1*%
%TO.N,GNDA*%
X139770000Y-63735000D03*
%TO.P,R44,2*%
%TO.N,Net-(U4-+)*%
X139770000Y-61735000D03*
%TD*%
D14*
%TO.P,R24,1*%
%TO.N,Net-(IC2-+IN)*%
X154740000Y-138570000D03*
%TO.P,R24,2*%
%TO.N,/ADC_Circuit/Q-*%
X152740000Y-138570000D03*
%TD*%
D13*
%TO.P,C25,1*%
%TO.N,Net-(J6-Pin_1)*%
X160322500Y-58560000D03*
%TO.P,C25,2*%
%TO.N,Net-(J8-In)*%
X162397500Y-58560000D03*
%TD*%
D14*
%TO.P,R9,1*%
%TO.N,Net-(IC1-Q8)*%
X117910000Y-120155000D03*
%TO.P,R9,2*%
%TO.N,/LA12_P*%
X115910000Y-120155000D03*
%TD*%
D35*
%TO.P,L1,1*%
%TO.N,3V3*%
X132150000Y-104400000D03*
%TO.P,L1,2*%
%TO.N,Net-(IC1-VD)*%
X132150000Y-106700000D03*
%TD*%
D14*
%TO.P,R13,1*%
%TO.N,Net-(IC1-Q4)*%
X117910000Y-123965000D03*
%TO.P,R13,2*%
%TO.N,/LA08_P*%
X115910000Y-123965000D03*
%TD*%
D20*
%TO.P,J4,1,In*%
%TO.N,/ADC_Circuit/Q_IN*%
X168980000Y-134760000D03*
D21*
%TO.P,J4,2,Ext*%
%TO.N,GNDA*%
X166440000Y-132220000D03*
X166440000Y-137300000D03*
X171520000Y-132220000D03*
X171520000Y-137300000D03*
%TD*%
D25*
%TO.P,R49,1*%
%TO.N,Net-(R46-Pad2)*%
X152105000Y-58560000D03*
%TO.P,R49,2*%
%TO.N,Net-(J6-Pin_1)*%
X154105000Y-58560000D03*
%TD*%
D36*
%TO.P,C23,1*%
%TO.N,Net-(J6-Pin_2)*%
X168980000Y-69650000D03*
%TO.P,C23,2*%
%TO.N,Net-(J8-In)*%
X168980000Y-65250000D03*
%TD*%
D31*
%TO.P,J12,1,Pin_1*%
%TO.N,/LA17_P_CC*%
X76905000Y-88405000D03*
D32*
%TO.P,J12,2,Pin_2*%
%TO.N,/LA17_N_CC*%
X79445000Y-88405000D03*
%TO.P,J12,3,Pin_3*%
%TO.N,/LA18_P_CC*%
X76905000Y-85865000D03*
%TO.P,J12,4,Pin_4*%
%TO.N,/LA18_N_CC*%
X79445000Y-85865000D03*
%TO.P,J12,5,Pin_5*%
%TO.N,/LA27_P*%
X76905000Y-83325000D03*
%TO.P,J12,6,Pin_6*%
%TO.N,/LA27_N*%
X79445000Y-83325000D03*
%TO.P,J12,7,Pin_7*%
%TO.N,/SCL*%
X76905000Y-80785000D03*
%TO.P,J12,8,Pin_8*%
%TO.N,/SDA*%
X79445000Y-80785000D03*
%TO.P,J12,9,Pin_9*%
%TO.N,GNDA*%
X76905000Y-78245000D03*
%TO.P,J12,10,Pin_10*%
X79445000Y-78245000D03*
%TO.P,J12,11,Pin_11*%
%TO.N,3V3*%
X76905000Y-75705000D03*
%TO.P,J12,12,Pin_12*%
X79445000Y-75705000D03*
%TD*%
D16*
%TO.P,J13,1,Pin_1*%
%TO.N,/ADC_Circuit/I_IN*%
X168980000Y-100085000D03*
%TO.P,J13,2,Pin_2*%
%TO.N,GNDA*%
X166440000Y-103395000D03*
%TO.P,J13,3,Pin_3*%
%TO.N,unconnected-(J13-Pin_3-Pad3)*%
X163900000Y-100085000D03*
%TD*%
D14*
%TO.P,R29,1*%
%TO.N,GNDA*%
X162360000Y-129680000D03*
%TO.P,R29,2*%
%TO.N,Net-(IC2--IN)*%
X160360000Y-129680000D03*
%TD*%
D34*
%TO.P,U5,1,NC*%
%TO.N,unconnected-(U5-NC-Pad1)*%
X143645000Y-85230000D03*
%TO.P,U5,2,-*%
%TO.N,Net-(U5--)*%
X143645000Y-86500000D03*
%TO.P,U5,3,+*%
%TO.N,Net-(U5-+)*%
X143645000Y-87770000D03*
%TO.P,U5,4,V-*%
%TO.N,GNDA*%
X143645000Y-89040000D03*
%TO.P,U5,5,NC*%
%TO.N,unconnected-(U5-NC-Pad5)*%
X148595000Y-89040000D03*
%TO.P,U5,6*%
%TO.N,Net-(R47-Pad2)*%
X148595000Y-87770000D03*
%TO.P,U5,7,V+*%
%TO.N,3V3*%
X148595000Y-86500000D03*
%TO.P,U5,8,NC*%
%TO.N,unconnected-(U5-NC-Pad8)*%
X148595000Y-85230000D03*
%TD*%
D25*
%TO.P,R33,1*%
%TO.N,/ADC_Circuit/Q_IN*%
X168980000Y-127140000D03*
%TO.P,R33,2*%
%TO.N,GNDA*%
X170980000Y-127140000D03*
%TD*%
D10*
%TO.P,IC3,1,-IN*%
%TO.N,Net-(IC3--IN)*%
X155645000Y-113235000D03*
%TO.P,IC3,2,VOCM*%
%TO.N,/ADC_Circuit/VCM_ADC*%
X154375000Y-113235000D03*
%TO.P,IC3,3,VS+*%
%TO.N,3V3*%
X153105000Y-113235000D03*
%TO.P,IC3,4,+OUT*%
%TO.N,/ADC_Circuit/I+*%
X151835000Y-113235000D03*
%TO.P,IC3,5,-OUT*%
%TO.N,/ADC_Circuit/I-*%
X151835000Y-118185000D03*
%TO.P,IC3,6,VS-*%
%TO.N,GNDA*%
X153105000Y-118185000D03*
%TO.P,IC3,7,~{PD}*%
%TO.N,unconnected-(IC3-~{PD}-Pad7)*%
X154375000Y-118185000D03*
%TO.P,IC3,8,+IN*%
%TO.N,Net-(IC3-+IN)*%
X155645000Y-118185000D03*
%TD*%
D31*
%TO.P,J11,1,Pin_1*%
%TO.N,/LA09_N*%
X76885000Y-104890000D03*
D32*
%TO.P,J11,2,Pin_2*%
%TO.N,/LA09_P*%
X79425000Y-104890000D03*
%TO.P,J11,3,Pin_3*%
%TO.N,/LA10_N*%
X76885000Y-102350000D03*
%TO.P,J11,4,Pin_4*%
%TO.N,/LA10_P*%
X79425000Y-102350000D03*
%TO.P,J11,5,Pin_5*%
%TO.N,/LA13_N*%
X76885000Y-99810000D03*
%TO.P,J11,6,Pin_6*%
%TO.N,/LA13_P*%
X79425000Y-99810000D03*
%TO.P,J11,7,Pin_7*%
%TO.N,/LA14_N*%
X76885000Y-97270000D03*
%TO.P,J11,8,Pin_8*%
%TO.N,/LA14_P*%
X79425000Y-97270000D03*
%TO.P,J11,9,Pin_9*%
%TO.N,GNDA*%
X76885000Y-94730000D03*
%TO.P,J11,10,Pin_10*%
X79425000Y-94730000D03*
%TO.P,J11,11,Pin_11*%
%TO.N,3V3*%
X76885000Y-92190000D03*
%TO.P,J11,12,Pin_12*%
X79425000Y-92190000D03*
%TD*%
D19*
%TO.P,R1,1*%
%TO.N,1V5*%
X115005000Y-93120000D03*
%TO.P,R1,2*%
%TO.N,Net-(U3-ADJ)*%
X115005000Y-95120000D03*
%TD*%
D25*
%TO.P,R47,1*%
%TO.N,Net-(U5--)*%
X147295000Y-82055000D03*
%TO.P,R47,2*%
%TO.N,Net-(R47-Pad2)*%
X149295000Y-82055000D03*
%TD*%
D28*
%TO.P,C28,1*%
%TO.N,Net-(J7-Pin_2)*%
X158525000Y-83960000D03*
%TO.P,C28,2*%
%TO.N,Net-(J9-In)*%
X162925000Y-83960000D03*
%TD*%
D14*
%TO.P,R31,1*%
%TO.N,GNDA*%
X162360000Y-113170000D03*
%TO.P,R31,2*%
%TO.N,Net-(IC3--IN)*%
X160360000Y-113170000D03*
%TD*%
D13*
%TO.P,C15,1*%
%TO.N,3V3*%
X140002500Y-123330000D03*
%TO.P,C15,2*%
%TO.N,GNDA*%
X142077500Y-123330000D03*
%TD*%
%TO.P,C18,1*%
%TO.N,Net-(IC4-EXTIO)*%
X127937500Y-72530000D03*
%TO.P,C18,2*%
%TO.N,GNDA*%
X130012500Y-72530000D03*
%TD*%
D10*
%TO.P,IC2,1,-IN*%
%TO.N,Net-(IC2--IN)*%
X155645000Y-129745000D03*
%TO.P,IC2,2,VOCM*%
%TO.N,/ADC_Circuit/VCM_ADC*%
X154375000Y-129745000D03*
%TO.P,IC2,3,VS+*%
%TO.N,3V3*%
X153105000Y-129745000D03*
%TO.P,IC2,4,+OUT*%
%TO.N,/ADC_Circuit/Q+*%
X151835000Y-129745000D03*
%TO.P,IC2,5,-OUT*%
%TO.N,/ADC_Circuit/Q-*%
X151835000Y-134695000D03*
%TO.P,IC2,6,VS-*%
%TO.N,GNDA*%
X153105000Y-134695000D03*
%TO.P,IC2,7,~{PD}*%
%TO.N,unconnected-(IC2-~{PD}-Pad7)*%
X154375000Y-134695000D03*
%TO.P,IC2,8,+IN*%
%TO.N,Net-(IC2-+IN)*%
X155645000Y-134695000D03*
%TD*%
D37*
%TO.N,/Identification_EEPROM/SCL*%
X79064000Y-68593000D03*
%TO.N,/Identification_EEPROM/SDA*%
X76905000Y-68720000D03*
%TO.N,3V3*%
X81350000Y-65545000D03*
%TO.N,GNDA*%
X78048000Y-64021000D03*
X88970000Y-118250000D03*
X88970000Y-113170000D03*
X87700000Y-110630000D03*
X88970000Y-82690000D03*
X136722000Y-127775000D03*
D38*
X151835000Y-132855000D03*
D37*
X83890000Y-108090000D03*
X92780000Y-69990000D03*
X100400000Y-78245000D03*
X87700000Y-69990000D03*
X135960000Y-92850000D03*
X87700000Y-103010000D03*
X126741822Y-78755178D03*
X111430220Y-73165000D03*
X88970000Y-101740000D03*
X83890000Y-103010000D03*
D38*
X134055000Y-107455000D03*
D37*
X132912000Y-118758000D03*
X92780000Y-115710000D03*
X88970000Y-86500000D03*
X92780000Y-104280000D03*
X92780000Y-92850000D03*
X157550000Y-92850000D03*
X92780000Y-85230000D03*
X83890000Y-68720000D03*
X87700000Y-95390000D03*
X119450000Y-124600000D03*
X92780000Y-77610000D03*
X87700000Y-115710000D03*
X83890000Y-71260000D03*
X88970000Y-94120000D03*
X87700000Y-106820000D03*
X120720000Y-73165000D03*
X88970000Y-114440000D03*
X87700000Y-111900000D03*
D38*
X135960000Y-59830000D03*
D37*
X87700000Y-91580000D03*
X100400000Y-124600000D03*
X88970000Y-97930000D03*
X157550000Y-105550000D03*
D38*
X118815000Y-98565000D03*
D37*
X92780000Y-111900000D03*
D38*
X147136000Y-115710000D03*
D37*
X92780000Y-100470000D03*
D38*
X147136000Y-120790000D03*
D37*
X83890000Y-82690000D03*
X92780000Y-73800000D03*
X83890000Y-109360000D03*
D38*
X146120000Y-63640000D03*
D37*
X92780000Y-96660000D03*
X129102000Y-121806000D03*
X83890000Y-77610000D03*
X87700000Y-99200000D03*
X157550000Y-78880000D03*
X83890000Y-97930000D03*
D38*
X133420000Y-69355000D03*
D37*
X83890000Y-89040000D03*
D38*
X132785000Y-134760000D03*
D37*
X87700000Y-72530000D03*
X83890000Y-94120000D03*
X88970000Y-105550000D03*
X119450000Y-105550000D03*
X87700000Y-83960000D03*
D38*
X151835000Y-116345000D03*
D37*
X140405000Y-78880000D03*
X88970000Y-71260000D03*
X140405000Y-105550000D03*
X87700000Y-87770000D03*
X134690000Y-54750000D03*
X83890000Y-104280000D03*
X83890000Y-118250000D03*
X119450000Y-70625000D03*
X100400000Y-54750000D03*
X88970000Y-68720000D03*
D38*
X129610000Y-99200000D03*
D37*
X140405000Y-143650000D03*
X92780000Y-89040000D03*
D38*
X146120000Y-93485000D03*
D37*
X83890000Y-73800000D03*
D38*
X131515000Y-82055000D03*
D37*
X83890000Y-87770000D03*
X119450000Y-54750000D03*
X92780000Y-108090000D03*
X100400000Y-92850000D03*
X88970000Y-90310000D03*
X106750000Y-105550000D03*
D38*
X108020000Y-77610000D03*
D37*
X119450000Y-92850000D03*
X83890000Y-113170000D03*
X87700000Y-116980000D03*
X83890000Y-114440000D03*
X92780000Y-81420000D03*
X100400000Y-143650000D03*
X123260000Y-74435000D03*
X88970000Y-78880000D03*
X157550000Y-143650000D03*
X157550000Y-54750000D03*
X130503000Y-116726000D03*
X83890000Y-78880000D03*
X140405000Y-124600000D03*
X88970000Y-109360000D03*
X132150000Y-116726000D03*
X83890000Y-92850000D03*
X132912000Y-120536000D03*
X83890000Y-83960000D03*
X83890000Y-99200000D03*
X88970000Y-75070000D03*
X119450000Y-143650000D03*
D38*
%TO.N,1V5*%
X129610000Y-91580000D03*
D37*
X135960000Y-113170000D03*
D38*
X129610000Y-91580000D03*
X130245000Y-63640000D03*
D37*
%TO.N,Net-(IC1-VRN)*%
X138246000Y-119012000D03*
%TO.N,Net-(IC1-VRP)*%
X137230000Y-119643000D03*
D38*
%TO.N,3V3*%
X101670000Y-95390000D03*
X126435000Y-56655000D03*
X106750000Y-56655000D03*
D37*
X87700000Y-78880000D03*
D38*
X146120000Y-85230000D03*
D37*
X123260000Y-71260000D03*
D38*
X106750000Y-52845000D03*
D37*
X87700000Y-71260000D03*
D38*
X151835000Y-131585000D03*
D37*
X126435000Y-69355000D03*
D38*
X146120000Y-56020000D03*
D37*
X83890000Y-69990000D03*
D38*
X146755000Y-118250000D03*
X128975000Y-104280000D03*
X151835000Y-115075000D03*
D37*
X121990000Y-75070000D03*
X87700000Y-68720000D03*
D38*
X126435000Y-52845000D03*
D37*
X87700000Y-73800000D03*
D38*
%TO.N,/ADC_Circuit/VCM_ADC*%
X154335420Y-111304580D03*
X154335420Y-127814580D03*
X141675000Y-112535000D03*
D37*
%TO.N,Net-(IC1-Q3)*%
X125292000Y-124092000D03*
%TO.N,VADJ*%
X92780000Y-68720000D03*
D38*
X135325000Y-139205000D03*
X135325000Y-136030000D03*
D37*
X125165000Y-67450000D03*
X138500000Y-79515000D03*
X130245000Y-125870000D03*
X137484000Y-125997000D03*
X88970000Y-69990000D03*
D38*
X120693616Y-70083028D03*
D37*
X135960000Y-115710000D03*
D38*
X108655000Y-75070000D03*
D37*
%TO.N,Net-(IC1-I1)*%
X123260000Y-118250000D03*
%TO.N,Net-(IC1-Q7)*%
X123260000Y-120790000D03*
%TO.N,/ADC_Circuit/Q+*%
X148025000Y-132220000D03*
X150565000Y-129680000D03*
%TO.N,Net-(IC1-I6)*%
X128340000Y-112916000D03*
%TO.N,Net-(IC1-I3)*%
X123895000Y-116345000D03*
%TO.N,Net-(IC1-I{slash}~{Q})*%
X129757000Y-125108000D03*
%TO.N,Net-(IC1-I8)*%
X128340000Y-110884000D03*
%TO.N,Net-(IC1-Q5)*%
X124020857Y-122185857D03*
%TO.N,Net-(IC1-I9)*%
X128340000Y-109360000D03*
%TO.N,Net-(IC1-Q1)*%
X128361847Y-125718865D03*
%TO.N,Net-(IC1-Q9)*%
X123260000Y-119520000D03*
%TO.N,/LA20_N*%
X88970000Y-91580000D03*
%TO.N,/LA19_N*%
X92780000Y-90310000D03*
%TO.N,/LA20_P*%
X94685000Y-93442200D03*
X88970000Y-92850000D03*
%TO.N,/LA29_P*%
X88970000Y-81420000D03*
%TO.N,/LA33_P*%
X88970000Y-73800000D03*
%TO.N,/DAC Circuit/SLEEP*%
X125165000Y-76975000D03*
X132150000Y-75705000D03*
%TO.N,/LA21_P*%
X92780000Y-87770000D03*
X120085000Y-82055000D03*
%TO.N,/LA22_N*%
X88970000Y-87770000D03*
%TO.N,/LA30_P*%
X121355000Y-64910000D03*
X92780000Y-76340000D03*
%TO.N,/LA30_N*%
X121990000Y-63640000D03*
X92780000Y-75070000D03*
%TO.N,/LA24_N*%
X115005000Y-75070000D03*
X92780000Y-82690000D03*
%TO.N,/LA24_P*%
X115005000Y-76975000D03*
X92780000Y-83960000D03*
%TO.N,/LA22_P*%
X88970000Y-89040000D03*
%TO.N,/LA33_N*%
X88970000Y-72530000D03*
%TO.N,/LA25_P*%
X88970000Y-85230000D03*
%TO.N,/LA21_N*%
X92780000Y-86500000D03*
X118815000Y-81420000D03*
%TO.N,/LA32_P*%
X92780000Y-72530000D03*
X123895000Y-62370000D03*
%TO.N,/LA25_N*%
X88970000Y-83960000D03*
%TO.N,/LA32_N*%
X92780000Y-71260000D03*
X124530000Y-61100000D03*
%TO.N,/LA28_N*%
X116910000Y-66180000D03*
X92780000Y-78880000D03*
%TO.N,Net-(IC4-BIASJ_A)*%
X123895000Y-72530000D03*
%TO.N,/LA31_P*%
X88970000Y-77610000D03*
%TO.N,/LA28_P*%
X92780000Y-80150000D03*
X116910000Y-67450000D03*
%TO.N,/LA31_N*%
X88970000Y-76340000D03*
%TO.N,/PRSNT_M2C_L*%
X92780000Y-116980000D03*
%TO.N,/LA14_P*%
X83890000Y-96660000D03*
%TO.N,/LA27_P*%
X83890000Y-86500000D03*
%TO.N,/CLK1_M2C_N*%
X88970000Y-115710000D03*
%TO.N,/LA07_P*%
X92780000Y-103010000D03*
%TO.N,/PG_C2M*%
X87700000Y-118250000D03*
%TO.N,/SDA*%
X83890000Y-80150000D03*
%TO.N,/DP0_M2C_N*%
X83890000Y-110630000D03*
%TO.N,/CLK1_M2C_P*%
X88970000Y-116980000D03*
%TO.N,/TRST_L*%
X87700000Y-76340000D03*
%TO.N,/GA1*%
X87700000Y-75070000D03*
%TO.N,/DP0_C2M_N*%
X83890000Y-115710000D03*
%TO.N,/LA11_N*%
X92780000Y-97930000D03*
%TO.N,/VREF_A_M2C*%
X92780000Y-118250000D03*
%TO.N,/LA27_N*%
X83890000Y-85230000D03*
%TO.N,/LA26_N*%
X106369000Y-73642000D03*
X100781000Y-81897000D03*
X87700000Y-85230000D03*
%TO.N,/GA0*%
X83890000Y-76340000D03*
%TO.N,/DP0_C2M_P*%
X83890000Y-116980000D03*
%TO.N,/LA15_N*%
X92780000Y-94120000D03*
%TO.N,/LA15_P*%
X92780000Y-95390000D03*
%TO.N,/LA18_P_CC*%
X83890000Y-91580000D03*
%TO.N,/LA17_P_CC*%
X87700000Y-94120000D03*
%TO.N,/LA19_P*%
X92780000Y-91580000D03*
%TO.N,/LA12_N*%
X94685000Y-100470000D03*
X88970000Y-99200000D03*
%TO.N,/LA07_N*%
X92780000Y-101740000D03*
%TO.N,/LA16_N*%
X94685000Y-95390000D03*
X88970000Y-95390000D03*
%TO.N,/LA23_P*%
X123260000Y-80150000D03*
X87700000Y-90310000D03*
X97225000Y-89717800D03*
%TO.N,/LA00_P_CC*%
X94685000Y-113805000D03*
X88970000Y-111900000D03*
X134055000Y-125870000D03*
%TO.N,/DP0_M2C_P*%
X83890000Y-111900000D03*
%TO.N,/SCL*%
X83890000Y-81420000D03*
%TO.N,/LA13_P*%
X87700000Y-97930000D03*
%TO.N,/LA10_N*%
X83890000Y-100470000D03*
%TO.N,/LA29_N*%
X88970000Y-80150000D03*
%TO.N,/LA05_N*%
X87700000Y-104280000D03*
%TO.N,/LA00_N_CC*%
X88970000Y-110630000D03*
%TO.N,/LA14_N*%
X83890000Y-95390000D03*
%TO.N,/LA26_P*%
X106369000Y-72688000D03*
X87700000Y-86500000D03*
X100781000Y-80943000D03*
%TO.N,/LA09_P*%
X87700000Y-101740000D03*
%TO.N,/LA10_P*%
X83890000Y-101740000D03*
%TO.N,/LA03_N*%
X88970000Y-106820000D03*
X94685000Y-108090000D03*
%TO.N,/GBTCLK0_M2C_N*%
X87700000Y-113170000D03*
%TO.N,/LA13_N*%
X87700000Y-96660000D03*
%TO.N,/LA17_N_CC*%
X87700000Y-92850000D03*
%TO.N,/LA12_P*%
X88970000Y-100470000D03*
%TO.N,/LA11_P*%
X92780000Y-99200000D03*
%TO.N,/LA02_N*%
X92780000Y-109360000D03*
%TO.N,/LA04_P*%
X92780000Y-106820000D03*
%TO.N,/LA08_P*%
X88970000Y-104280000D03*
%TO.N,/LA02_P*%
X92780000Y-110630000D03*
%TO.N,/LA08_N*%
X94685000Y-104280000D03*
X88970000Y-103010000D03*
%TO.N,/LA03_P*%
X88970000Y-108090000D03*
%TO.N,/GBTCLK0_M2C_P*%
X87700000Y-114440000D03*
%TO.N,/LA06_P*%
X83890000Y-106820000D03*
%TO.N,/LA06_N*%
X83890000Y-105550000D03*
%TO.N,/LA05_P*%
X87700000Y-105550000D03*
%TO.N,/CLK0_M2C_N*%
X92780000Y-113170000D03*
X98015723Y-116189277D03*
X138500000Y-128410000D03*
%TO.N,/CLK0_M2C_P*%
X134690000Y-128410000D03*
X92780000Y-114440000D03*
X97411853Y-116793147D03*
%TO.N,/TMS*%
X87700000Y-77610000D03*
%TO.N,/LA04_N*%
X92780000Y-105550000D03*
%TO.N,/LA16_P*%
X88970000Y-96660000D03*
%TO.N,/LA09_N*%
X87700000Y-100470000D03*
%TO.N,/LA23_N*%
X87700000Y-89040000D03*
%TO.N,/LA18_N_CC*%
X83890000Y-90310000D03*
%TO.N,/LA01_N*%
X87700000Y-108090000D03*
%TO.N,/LA01_P*%
X87700000Y-109360000D03*
%TD*%
D39*
%TO.N,/Identification_EEPROM/SCL*%
X79445000Y-68974000D02*
X79445000Y-69900000D01*
X79064000Y-68593000D02*
X79445000Y-68974000D01*
X78680000Y-68209000D02*
X79064000Y-68593000D01*
X78680000Y-67385000D02*
X78680000Y-68209000D01*
%TO.N,/Identification_EEPROM/SDA*%
X76905000Y-68720000D02*
X76905000Y-69900000D01*
X77410000Y-68215000D02*
X76905000Y-68720000D01*
X77410000Y-67385000D02*
X77410000Y-68215000D01*
D40*
%TO.N,/GA1*%
X81220000Y-63510000D02*
X81220000Y-62435000D01*
X81985000Y-64275000D02*
X81220000Y-63510000D01*
X82620000Y-64275000D02*
X81985000Y-64275000D01*
X83255000Y-64910000D02*
X82620000Y-64275000D01*
X83255000Y-71895000D02*
X83255000Y-64910000D01*
X86430000Y-75070000D02*
X83255000Y-71895000D01*
X87700000Y-75070000D02*
X86430000Y-75070000D01*
%TO.N,/GA0*%
X79950000Y-64145000D02*
X79950000Y-62435000D01*
X81985000Y-64910000D02*
X80715000Y-64910000D01*
X82620000Y-65545000D02*
X81985000Y-64910000D01*
X80715000Y-64910000D02*
X79950000Y-64145000D01*
X82620000Y-73800000D02*
X82620000Y-65545000D01*
X83890000Y-75070000D02*
X82620000Y-73800000D01*
X83890000Y-76340000D02*
X83890000Y-75070000D01*
%TO.N,/SCL*%
X79445000Y-72530000D02*
X79445000Y-71350000D01*
X80080000Y-73165000D02*
X79445000Y-72530000D01*
X80715000Y-73165000D02*
X80080000Y-73165000D01*
X82620000Y-75070000D02*
X80715000Y-73165000D01*
X83255000Y-79515000D02*
X82620000Y-78880000D01*
X82620000Y-78880000D02*
X82620000Y-75070000D01*
X84525000Y-79515000D02*
X83255000Y-79515000D01*
X85160000Y-80150000D02*
X84525000Y-79515000D01*
X85160000Y-80785000D02*
X85160000Y-80150000D01*
X84525000Y-81420000D02*
X85160000Y-80785000D01*
X83890000Y-81420000D02*
X84525000Y-81420000D01*
%TO.N,/SDA*%
X76905000Y-72530000D02*
X76905000Y-71350000D01*
X78175000Y-73800000D02*
X76905000Y-72530000D01*
X81350000Y-79515000D02*
X81350000Y-75070000D01*
X81985000Y-80150000D02*
X81350000Y-79515000D01*
X81350000Y-75070000D02*
X80080000Y-73800000D01*
X80080000Y-73800000D02*
X78175000Y-73800000D01*
D39*
%TO.N,3V3*%
X81220000Y-65675000D02*
X81350000Y-65545000D01*
X81220000Y-67385000D02*
X81220000Y-65675000D01*
%TO.N,GNDA*%
X78048000Y-64783000D02*
X78048000Y-64021000D01*
X78810000Y-65545000D02*
X78048000Y-64783000D01*
X79950000Y-66050000D02*
X79445000Y-65545000D01*
X79445000Y-65545000D02*
X78810000Y-65545000D01*
X79950000Y-67385000D02*
X79950000Y-66050000D01*
X78680000Y-63389000D02*
X78048000Y-64021000D01*
X78680000Y-62435000D02*
X78680000Y-63389000D01*
X77410000Y-63383000D02*
X78048000Y-64021000D01*
X77410000Y-62435000D02*
X77410000Y-63383000D01*
X94050000Y-116980000D02*
X92780000Y-115710000D01*
X95955000Y-117615000D02*
X95320000Y-116980000D01*
X95320000Y-116980000D02*
X94050000Y-116980000D01*
X95955000Y-118520000D02*
X95955000Y-117615000D01*
%TO.N,/PRSNT_M2C_L*%
X95050000Y-120520000D02*
X95955000Y-120520000D01*
X94050000Y-118250000D02*
X94050000Y-119520000D01*
X92780000Y-116980000D02*
X94050000Y-118250000D01*
X94050000Y-119520000D02*
X95050000Y-120520000D01*
%TO.N,GNDA*%
X142077500Y-120790000D02*
X147136000Y-120790000D01*
X153105000Y-133490000D02*
X154375000Y-132220000D01*
X143645000Y-59830000D02*
X144850000Y-59830000D01*
D40*
X135042500Y-119770000D02*
X133678000Y-119770000D01*
X123887500Y-75062500D02*
X123260000Y-74435000D01*
D39*
X142077500Y-115710000D02*
X147136000Y-115710000D01*
X135557500Y-131585000D02*
X135557500Y-133257500D01*
X130245000Y-141495000D02*
X130245000Y-136030000D01*
D40*
X119012500Y-71062500D02*
X119450000Y-70625000D01*
D39*
X144850000Y-59830000D02*
X146120000Y-61100000D01*
D41*
X171520000Y-115710000D02*
X171520000Y-113170000D01*
D40*
X111195000Y-72929780D02*
X111195000Y-72215000D01*
D41*
X171520000Y-129680000D02*
X171520000Y-132220000D01*
D39*
X153105000Y-134695000D02*
X153105000Y-133490000D01*
X146120000Y-89675000D02*
X146120000Y-93485000D01*
X134325000Y-54385000D02*
X131515000Y-54385000D01*
X139770000Y-63735000D02*
X146025000Y-63735000D01*
D40*
X119822500Y-74062500D02*
X116942500Y-74062500D01*
D39*
X162360000Y-114710000D02*
X162360000Y-113170000D01*
X166440000Y-145305000D02*
X166440000Y-137300000D01*
D40*
X135645000Y-127775000D02*
X136722000Y-127775000D01*
D39*
X142077500Y-123330000D02*
X142077500Y-120790000D01*
X153105000Y-116980000D02*
X152470000Y-116345000D01*
D40*
X132630000Y-114549408D02*
X134225000Y-112954408D01*
X135042500Y-121270000D02*
X133646000Y-121270000D01*
D39*
X153105000Y-118185000D02*
X153105000Y-116980000D01*
D40*
X120720000Y-73165000D02*
X119822500Y-74062500D01*
D39*
X134055000Y-134760000D02*
X132785000Y-134760000D01*
D41*
X170980000Y-116250000D02*
X171520000Y-115710000D01*
D40*
X125267500Y-75062500D02*
X123887500Y-75062500D01*
D39*
X154375000Y-115710000D02*
X161360000Y-115710000D01*
D40*
X130630000Y-115357500D02*
X130630000Y-116599000D01*
X130630000Y-116599000D02*
X130503000Y-116726000D01*
D39*
X143645000Y-89040000D02*
X145485000Y-89040000D01*
D42*
X117815000Y-99565000D02*
X118815000Y-98565000D01*
D39*
X134225000Y-107625000D02*
X134055000Y-107455000D01*
D42*
X127705000Y-97062500D02*
X127705000Y-98565000D01*
D39*
X145755000Y-93850000D02*
X146120000Y-93485000D01*
D40*
X131630000Y-116206000D02*
X132150000Y-116726000D01*
D39*
X131515000Y-72530000D02*
X133420000Y-70625000D01*
X133420000Y-70625000D02*
X133420000Y-69355000D01*
D40*
X133678000Y-119770000D02*
X132912000Y-120536000D01*
D39*
X152470000Y-116345000D02*
X151835000Y-116345000D01*
X130245000Y-136030000D02*
X131515000Y-134760000D01*
X109522500Y-77610000D02*
X108020000Y-77610000D01*
D42*
X146025000Y-63735000D02*
X146120000Y-63640000D01*
D40*
X135557500Y-131585000D02*
X135557500Y-130209500D01*
X130130000Y-122834000D02*
X129102000Y-121806000D01*
X134225000Y-112954408D02*
X134225000Y-111900000D01*
D42*
X119155000Y-98225000D02*
X121990000Y-98225000D01*
D40*
X133646000Y-121270000D02*
X132912000Y-120536000D01*
D39*
X135557500Y-133257500D02*
X134055000Y-134760000D01*
X153105000Y-133490000D02*
X152470000Y-132855000D01*
D40*
X133900000Y-117770000D02*
X132912000Y-118758000D01*
D39*
X166440000Y-108090000D02*
X166440000Y-103395000D01*
X154375000Y-132220000D02*
X161360000Y-132220000D01*
D40*
X136722000Y-129045000D02*
X136722000Y-127775000D01*
D39*
X161360000Y-132220000D02*
X162360000Y-131220000D01*
X161360000Y-115710000D02*
X162360000Y-114710000D01*
D40*
X132630000Y-116246000D02*
X132150000Y-116726000D01*
D39*
X153105000Y-116980000D02*
X154375000Y-115710000D01*
D40*
X130130000Y-123682500D02*
X130130000Y-122834000D01*
D39*
X139770000Y-93850000D02*
X145755000Y-93850000D01*
D40*
X116942500Y-71062500D02*
X119012500Y-71062500D01*
D42*
X128340000Y-99200000D02*
X129610000Y-99200000D01*
D39*
X162360000Y-131220000D02*
X162360000Y-129680000D01*
D42*
X115005000Y-99565000D02*
X117815000Y-99565000D01*
D40*
X135557500Y-130209500D02*
X136722000Y-129045000D01*
X132630000Y-115357500D02*
X132630000Y-116246000D01*
D42*
X131515000Y-97062500D02*
X131515000Y-98565000D01*
D39*
X145485000Y-89040000D02*
X146120000Y-89675000D01*
X142077500Y-115710000D02*
X142077500Y-118250000D01*
D41*
X170980000Y-127140000D02*
X170980000Y-129140000D01*
D39*
X131515000Y-79265000D02*
X131515000Y-82055000D01*
D42*
X118815000Y-98565000D02*
X119155000Y-98225000D01*
D40*
X111430220Y-73165000D02*
X111195000Y-72929780D01*
X131630000Y-115357500D02*
X131630000Y-116206000D01*
D41*
X170980000Y-129140000D02*
X171520000Y-129680000D01*
D39*
X152470000Y-132855000D02*
X151835000Y-132855000D01*
X134690000Y-54750000D02*
X134325000Y-54385000D01*
X130012500Y-72530000D02*
X131515000Y-72530000D01*
D42*
X127705000Y-98565000D02*
X128340000Y-99200000D01*
D40*
X132630000Y-115357500D02*
X132630000Y-114549408D01*
D42*
X130880000Y-99200000D02*
X129610000Y-99200000D01*
D39*
X134225000Y-109360000D02*
X134225000Y-111900000D01*
X134225000Y-109360000D02*
X134225000Y-107625000D01*
X131515000Y-83595000D02*
X131515000Y-82055000D01*
X146120000Y-61100000D02*
X146120000Y-63640000D01*
D42*
X131515000Y-98565000D02*
X130880000Y-99200000D01*
D39*
X131515000Y-134760000D02*
X132785000Y-134760000D01*
D41*
X170980000Y-118250000D02*
X170980000Y-116250000D01*
D40*
X135042500Y-117770000D02*
X133900000Y-117770000D01*
D39*
%TO.N,1V5*%
X130880000Y-62370000D02*
X130245000Y-63005000D01*
D40*
X135042500Y-115357500D02*
X135960000Y-114440000D01*
X133630000Y-115357500D02*
X135042500Y-115357500D01*
D39*
X131515000Y-60830000D02*
X131515000Y-61735000D01*
X130245000Y-63005000D02*
X130245000Y-63640000D01*
D40*
X135960000Y-114440000D02*
X135960000Y-113170000D01*
D39*
X131515000Y-61735000D02*
X130880000Y-62370000D01*
D40*
%TO.N,Net-(IC1-VD)*%
X132130000Y-111920000D02*
X132150000Y-111900000D01*
X132130000Y-115357500D02*
X132130000Y-111920000D01*
D39*
X132150000Y-106700000D02*
X132150000Y-109360000D01*
X132150000Y-109360000D02*
X132150000Y-111900000D01*
D40*
%TO.N,Net-(IC1-VRN)*%
X135042500Y-118770000D02*
X138004000Y-118770000D01*
X138004000Y-118770000D02*
X138246000Y-119012000D01*
%TO.N,Net-(IC1-VRP)*%
X136857000Y-119270000D02*
X137230000Y-119643000D01*
X135042500Y-119270000D02*
X136857000Y-119270000D01*
%TO.N,3V3*%
X123260000Y-71260000D02*
X122957500Y-71562500D01*
D43*
X101670000Y-95390000D02*
X101910000Y-95150000D01*
X101910000Y-95150000D02*
X104235000Y-95150000D01*
D39*
X145485000Y-119520000D02*
X146755000Y-118250000D01*
D42*
X129095000Y-104400000D02*
X128975000Y-104280000D01*
D40*
X135042500Y-120770000D02*
X135940000Y-120770000D01*
D39*
X148595000Y-57290000D02*
X147390000Y-57290000D01*
X147390000Y-57290000D02*
X146120000Y-56020000D01*
D40*
X87700000Y-78880000D02*
X88327000Y-78253000D01*
D42*
X132150000Y-104400000D02*
X129095000Y-104400000D01*
D39*
X140002500Y-120790000D02*
X140002500Y-119922500D01*
X140405000Y-119520000D02*
X145485000Y-119520000D01*
X147390000Y-86500000D02*
X146120000Y-85230000D01*
D40*
X137980000Y-120270000D02*
X138500000Y-120790000D01*
X88327000Y-78253000D02*
X88327000Y-74427000D01*
D39*
X152470000Y-115075000D02*
X151835000Y-115075000D01*
X153105000Y-129745000D02*
X153105000Y-130950000D01*
D40*
X123260000Y-71260000D02*
X123957500Y-70562500D01*
D39*
X153105000Y-113235000D02*
X153105000Y-114440000D01*
D40*
X122957500Y-71562500D02*
X116942500Y-71562500D01*
X121482500Y-74562500D02*
X116942500Y-74562500D01*
D39*
X140002500Y-119922500D02*
X140405000Y-119520000D01*
D40*
X135042500Y-120270000D02*
X137980000Y-120270000D01*
X123957500Y-70562500D02*
X125267500Y-70562500D01*
X121990000Y-75070000D02*
X121482500Y-74562500D01*
X135940000Y-120770000D02*
X138500000Y-123330000D01*
D39*
X153105000Y-130950000D02*
X152470000Y-131585000D01*
D40*
X138500000Y-120790000D02*
X140002500Y-120790000D01*
D39*
X153105000Y-114440000D02*
X152470000Y-115075000D01*
X140002500Y-120790000D02*
X140002500Y-123330000D01*
X152470000Y-131585000D02*
X151835000Y-131585000D01*
D40*
X138500000Y-123330000D02*
X140002500Y-123330000D01*
X88327000Y-74427000D02*
X87700000Y-73800000D01*
D39*
X148595000Y-86500000D02*
X147390000Y-86500000D01*
D40*
%TO.N,/ADC_Circuit/VCM_ADC*%
X135042500Y-118270000D02*
X139982500Y-118270000D01*
D39*
X154375000Y-129745000D02*
X154375000Y-127854160D01*
X154375000Y-111344160D02*
X154335420Y-111304580D01*
X140002500Y-115710000D02*
X140002500Y-114207500D01*
D40*
X139982500Y-118270000D02*
X140002500Y-118250000D01*
D39*
X154375000Y-127854160D02*
X154335420Y-127814580D01*
X154335420Y-113195420D02*
X154375000Y-113235000D01*
X140002500Y-115710000D02*
X140002500Y-118250000D01*
X154375000Y-113235000D02*
X154375000Y-111344160D01*
X140002500Y-114207500D02*
X141675000Y-112535000D01*
D40*
%TO.N,Net-(IC4-EXTIO)*%
X125267500Y-72562500D02*
X127905000Y-72562500D01*
X127905000Y-72562500D02*
X127937500Y-72530000D01*
D39*
%TO.N,Net-(J6-Pin_2)*%
X168980000Y-69650000D02*
X167030000Y-67700000D01*
X158525000Y-63005000D02*
X153105000Y-63005000D01*
X153105000Y-63005000D02*
X151835000Y-64275000D01*
X151835000Y-64275000D02*
X151835000Y-67700000D01*
X167030000Y-67700000D02*
X151835000Y-67700000D01*
D41*
%TO.N,Net-(J8-In)*%
X168980000Y-58560000D02*
X162397500Y-58560000D01*
D39*
X162925000Y-64570000D02*
X162925000Y-63005000D01*
D41*
X162397500Y-58560000D02*
X162397500Y-56020000D01*
X162397500Y-58560000D02*
X162397500Y-60867500D01*
X162925000Y-61395000D02*
X162925000Y-63005000D01*
X162397500Y-60867500D02*
X162925000Y-61395000D01*
D39*
X163605000Y-65250000D02*
X162925000Y-64570000D01*
X168980000Y-65250000D02*
X163605000Y-65250000D01*
D41*
%TO.N,Net-(J9-In)*%
X162925000Y-86205000D02*
X162925000Y-83960000D01*
X162397500Y-90945000D02*
X162397500Y-88405000D01*
D39*
X163605000Y-81080000D02*
X168980000Y-81080000D01*
X162925000Y-83960000D02*
X162925000Y-81760000D01*
D41*
X168980000Y-88405000D02*
X162397500Y-88405000D01*
D39*
X162925000Y-81760000D02*
X163605000Y-81080000D01*
D41*
X162397500Y-86732500D02*
X162925000Y-86205000D01*
X162397500Y-88405000D02*
X162397500Y-86732500D01*
D39*
%TO.N,Net-(J7-Pin_2)*%
X157165000Y-75320000D02*
X151835000Y-75320000D01*
X158525000Y-76680000D02*
X168980000Y-76680000D01*
X158525000Y-83960000D02*
X158525000Y-76680000D01*
X158525000Y-76680000D02*
X157165000Y-75320000D01*
D40*
%TO.N,Net-(IC1-I2)*%
X126717500Y-117770000D02*
X124050000Y-117770000D01*
X124050000Y-117770000D02*
X122625000Y-116345000D01*
X122625000Y-116345000D02*
X117910000Y-116345000D01*
%TO.N,Net-(IC1-Q3)*%
X126717500Y-122666500D02*
X125292000Y-124092000D01*
X126717500Y-122270000D02*
X126717500Y-122666500D01*
%TO.N,Net-(IC1-Q2)*%
X127705000Y-127410000D02*
X127705000Y-125489000D01*
X128130000Y-125064000D02*
X128130000Y-123682500D01*
X127705000Y-125489000D02*
X128130000Y-125064000D01*
%TO.N,VADJ*%
X130630000Y-125485000D02*
X130630000Y-123682500D01*
X137545000Y-127125000D02*
X139374000Y-127125000D01*
X133130000Y-117270000D02*
X133130000Y-116345000D01*
X133130000Y-116345000D02*
X133130000Y-115357500D01*
D39*
X137632500Y-133722500D02*
X135325000Y-136030000D01*
X135325000Y-139205000D02*
X135325000Y-141495000D01*
D40*
X135858500Y-115811500D02*
X134588500Y-115811500D01*
X135960000Y-115710000D02*
X135858500Y-115811500D01*
X138500000Y-79515000D02*
X136845000Y-79515000D01*
X125267500Y-70062500D02*
X120714144Y-70062500D01*
X120786644Y-69990000D02*
X120693616Y-70083028D01*
D39*
X111597500Y-75937500D02*
X111845000Y-75690000D01*
D40*
X131130000Y-115357500D02*
X131130000Y-117230000D01*
X133207000Y-116422000D02*
X133130000Y-116345000D01*
X125267500Y-70062500D02*
X125267500Y-69457500D01*
X125165000Y-69355000D02*
X125165000Y-67450000D01*
X139516000Y-131585000D02*
X137632500Y-131585000D01*
D39*
X92780000Y-68720000D02*
X90240000Y-68720000D01*
D40*
X136845000Y-79515000D02*
X136595000Y-79265000D01*
X132912000Y-117488000D02*
X133130000Y-117270000D01*
D39*
X90240000Y-68720000D02*
X88970000Y-69990000D01*
X137632500Y-131585000D02*
X137632500Y-133722500D01*
X109522500Y-75937500D02*
X111597500Y-75937500D01*
D40*
X137484000Y-125997000D02*
X137545000Y-126058000D01*
X131896000Y-117488000D02*
X132912000Y-117488000D01*
X140024000Y-127775000D02*
X140024000Y-131077000D01*
X131896000Y-118504000D02*
X131896000Y-117488000D01*
D39*
X108655000Y-75070000D02*
X109522500Y-75937500D01*
X111597500Y-77610000D02*
X111597500Y-75937500D01*
D40*
X139374000Y-127125000D02*
X140024000Y-127775000D01*
X130630000Y-123682500D02*
X130630000Y-119770000D01*
X130245000Y-125870000D02*
X130630000Y-125485000D01*
X137545000Y-126058000D02*
X137545000Y-127125000D01*
X140024000Y-131077000D02*
X139516000Y-131585000D01*
X131388000Y-117488000D02*
X131896000Y-117488000D01*
X120714144Y-70062500D02*
X120693616Y-70083028D01*
X125267500Y-69457500D02*
X125165000Y-69355000D01*
X131130000Y-117230000D02*
X131388000Y-117488000D01*
D39*
X111845000Y-75690000D02*
X111845000Y-74115000D01*
D40*
X134588500Y-115811500D02*
X133978000Y-116422000D01*
X133978000Y-116422000D02*
X133207000Y-116422000D01*
X130630000Y-119770000D02*
X131896000Y-118504000D01*
%TO.N,Net-(IC1-Q4)*%
X125323426Y-121770000D02*
X123128426Y-123965000D01*
X126717500Y-121770000D02*
X125323426Y-121770000D01*
X123128426Y-123965000D02*
X117910000Y-123965000D01*
%TO.N,Net-(IC1-I0)*%
X123626712Y-118770000D02*
X123519712Y-118877000D01*
X121488856Y-118877000D02*
X120861856Y-118250000D01*
X120861856Y-118250000D02*
X117910000Y-118250000D01*
X123519712Y-118877000D02*
X121488856Y-118877000D01*
X126717500Y-118770000D02*
X123626712Y-118770000D01*
%TO.N,Net-(IC1-I7)*%
X127705000Y-111265000D02*
X126165000Y-111265000D01*
X129130000Y-112690000D02*
X127705000Y-111265000D01*
X129130000Y-115357500D02*
X129130000Y-112690000D01*
%TO.N,/ADC_Circuit/I-*%
X150692000Y-116187717D02*
X150692000Y-117742000D01*
X136173751Y-117245000D02*
X136648200Y-117245000D01*
X138090000Y-112628200D02*
X139228200Y-111490000D01*
X136148751Y-117270000D02*
X136173751Y-117245000D01*
D39*
X151835000Y-120155000D02*
X151835000Y-118185000D01*
D40*
X135042500Y-117270000D02*
X136148751Y-117270000D01*
X142345841Y-111490000D02*
X145391800Y-111490000D01*
X142203438Y-111490000D02*
X142345841Y-111490000D01*
D39*
X152740000Y-122060000D02*
X152740000Y-121060000D01*
D40*
X150441539Y-115937256D02*
X150692000Y-116187717D01*
X151135000Y-118185000D02*
X151835000Y-118185000D01*
X149839056Y-115937256D02*
X150441539Y-115937256D01*
D39*
X152740000Y-121060000D02*
X151835000Y-120155000D01*
D40*
X138090000Y-115803200D02*
X138090000Y-112628200D01*
X136648200Y-117245000D02*
X138090000Y-115803200D01*
X139228200Y-111490000D02*
X142203438Y-111490000D01*
X145391800Y-111490000D02*
X149839056Y-115937256D01*
X150692000Y-117742000D02*
X151135000Y-118185000D01*
%TO.N,Net-(IC1-I1)*%
X123280000Y-118270000D02*
X123260000Y-118250000D01*
X126717500Y-118270000D02*
X123280000Y-118270000D01*
%TO.N,Net-(IC1-Q6)*%
X124076000Y-121244000D02*
X123260000Y-122060000D01*
X124083052Y-121244000D02*
X124076000Y-121244000D01*
X126717500Y-120770000D02*
X124557052Y-120770000D01*
X123260000Y-122060000D02*
X117910000Y-122060000D01*
X124557052Y-120770000D02*
X124083052Y-121244000D01*
%TO.N,/ADC_Circuit/PD*%
X133130000Y-123682500D02*
X132630000Y-123682500D01*
X140449000Y-126549000D02*
X141675000Y-127775000D01*
X132785000Y-122060000D02*
X133524408Y-122060000D01*
X132630000Y-122215000D02*
X132785000Y-122060000D01*
X132630000Y-123682500D02*
X132630000Y-122215000D01*
X133524408Y-122060000D02*
X135429408Y-123965000D01*
X136595000Y-123965000D02*
X139179000Y-126549000D01*
X141675000Y-127775000D02*
X141675000Y-136030000D01*
X139179000Y-126549000D02*
X140449000Y-126549000D01*
X141675000Y-136030000D02*
X139520000Y-138185000D01*
X139520000Y-138185000D02*
X132785000Y-138185000D01*
X135429408Y-123965000D02*
X136595000Y-123965000D01*
%TO.N,Net-(IC1-Q7)*%
X124415000Y-120270000D02*
X123895000Y-120790000D01*
X123895000Y-120790000D02*
X123260000Y-120790000D01*
X126717500Y-120270000D02*
X124415000Y-120270000D01*
%TO.N,/ADC_Circuit/Q+*%
X148025000Y-131903200D02*
X148025000Y-132220000D01*
X135042500Y-122270000D02*
X135630000Y-122270000D01*
D39*
X152740000Y-126870000D02*
X151835000Y-127775000D01*
D40*
X142216800Y-126095000D02*
X148025000Y-131903200D01*
D44*
X151770000Y-129680000D02*
X151835000Y-129745000D01*
D40*
X135826800Y-122245000D02*
X139676800Y-126095000D01*
X139676800Y-126095000D02*
X142216800Y-126095000D01*
X135630000Y-122270000D02*
X135655000Y-122245000D01*
D39*
X152740000Y-125870000D02*
X152740000Y-126870000D01*
D40*
X135655000Y-122245000D02*
X135826800Y-122245000D01*
D39*
X151835000Y-127775000D02*
X151835000Y-129745000D01*
D40*
X150565000Y-129680000D02*
X151770000Y-129680000D01*
%TO.N,Net-(IC1-I6)*%
X128630000Y-115357500D02*
X128630000Y-113206000D01*
X128630000Y-113206000D02*
X128340000Y-112916000D01*
%TO.N,Net-(IC1-I3)*%
X124820000Y-117270000D02*
X123895000Y-116345000D01*
X126717500Y-117270000D02*
X124820000Y-117270000D01*
%TO.N,Net-(IC1-Q0)*%
X129130000Y-125390000D02*
X129610000Y-125870000D01*
X129610000Y-125870000D02*
X129610000Y-127410000D01*
X129130000Y-123682500D02*
X129130000Y-125390000D01*
%TO.N,Net-(IC1-I4)*%
X126717500Y-116770000D02*
X125590000Y-116770000D01*
X123260000Y-114440000D02*
X117910000Y-114440000D01*
X125590000Y-116770000D02*
X123260000Y-114440000D01*
D39*
%TO.N,/ADC_Circuit/Q-*%
X152740000Y-137570000D02*
X152740000Y-138570000D01*
X151835000Y-136665000D02*
X152740000Y-137570000D01*
D40*
X147914858Y-130568344D02*
X147793235Y-130689966D01*
X148224572Y-131121303D02*
X148346194Y-130999680D01*
X142403200Y-125645000D02*
X147295100Y-130536900D01*
X148310838Y-131552637D02*
X148224572Y-131466372D01*
X150500000Y-134695000D02*
X149930000Y-134125000D01*
X135042500Y-121770000D02*
X135630000Y-121770000D01*
X147361901Y-130603701D02*
X147295100Y-130536900D01*
X136013200Y-121795000D02*
X139863200Y-125645000D01*
X147448167Y-130689966D02*
X147361901Y-130603701D01*
D39*
X151835000Y-134695000D02*
X151835000Y-136665000D01*
D40*
X149208865Y-131517283D02*
X149122597Y-131431015D01*
X135630000Y-121770000D02*
X135655000Y-121795000D01*
X139863200Y-125645000D02*
X142403200Y-125645000D01*
X149087243Y-131983974D02*
X149208865Y-131862351D01*
X135655000Y-121795000D02*
X136013200Y-121795000D01*
X149930000Y-134125000D02*
X149930000Y-133171800D01*
X151835000Y-134695000D02*
X150500000Y-134695000D01*
X149930000Y-133171800D02*
X149087243Y-132329043D01*
X148777529Y-131431015D02*
X148655906Y-131552637D01*
X148346194Y-130654612D02*
X148259926Y-130568344D01*
X149087243Y-132329043D02*
G75*
G02*
X149087235Y-131983966I172557J172543D01*
G01*
X148655905Y-131552636D02*
G75*
G02*
X148310839Y-131552636I-172533J172533D01*
G01*
X149122596Y-131431016D02*
G75*
G03*
X148777530Y-131431016I-172533J-172533D01*
G01*
X148346194Y-130999680D02*
G75*
G03*
X148346240Y-130654566I-172494J172580D01*
G01*
X149208864Y-131862350D02*
G75*
G03*
X149208881Y-131517267I-172564J172550D01*
G01*
X148259925Y-130568345D02*
G75*
G03*
X147914859Y-130568345I-172533J-172533D01*
G01*
X147793234Y-130689965D02*
G75*
G02*
X147448168Y-130689965I-172533J172533D01*
G01*
X148224572Y-131466372D02*
G75*
G02*
X148224535Y-131121266I172528J172572D01*
G01*
D39*
%TO.N,/ADC_Circuit/I+*%
X152740000Y-109360000D02*
X152740000Y-110360000D01*
D40*
X136148751Y-116770000D02*
X136173751Y-116795000D01*
X145578200Y-111040000D02*
X150025456Y-115487256D01*
X137209915Y-116046885D02*
X137292983Y-115963817D01*
X137640000Y-115616800D02*
X137640000Y-112441800D01*
X136173751Y-116795000D02*
X136461800Y-116795000D01*
X150692000Y-115236795D02*
X150692000Y-113678000D01*
X151135000Y-113235000D02*
X151835000Y-113235000D01*
X137292983Y-115963817D02*
X137640000Y-115616800D01*
X139041800Y-111040000D02*
X145578200Y-111040000D01*
D39*
X152740000Y-110360000D02*
X151835000Y-111265000D01*
D40*
X150441539Y-115487256D02*
X150692000Y-115236795D01*
X150025456Y-115487256D02*
X150441539Y-115487256D01*
X137640000Y-112441800D02*
X139041800Y-111040000D01*
X136461800Y-116795000D02*
X137209915Y-116046885D01*
X150692000Y-113678000D02*
X151135000Y-113235000D01*
X135042500Y-116770000D02*
X136148751Y-116770000D01*
D39*
X151835000Y-111265000D02*
X151835000Y-113235000D01*
D40*
%TO.N,/ADC_Circuit/CLK*%
X135645000Y-127125000D02*
X135630000Y-127140000D01*
X135630000Y-127140000D02*
X133928000Y-127140000D01*
X132130000Y-125342000D02*
X132130000Y-123682500D01*
X133928000Y-127140000D02*
X132130000Y-125342000D01*
%TO.N,Net-(IC1-I{slash}~{Q})*%
X129630000Y-123682500D02*
X129630000Y-124981000D01*
X129630000Y-124981000D02*
X129757000Y-125108000D01*
%TO.N,Net-(IC1-I8)*%
X129630000Y-115357500D02*
X129630000Y-112174000D01*
X129630000Y-112174000D02*
X128340000Y-110884000D01*
%TO.N,Net-(IC1-Q5)*%
X124699104Y-121270000D02*
X123905578Y-122063526D01*
X126717500Y-121270000D02*
X124699104Y-121270000D01*
X123905578Y-122070578D02*
X124020857Y-122185857D01*
X123905578Y-122063526D02*
X123905578Y-122070578D01*
%TO.N,Net-(IC1-Q8)*%
X117918000Y-120147000D02*
X117910000Y-120155000D01*
X126717500Y-119770000D02*
X123910817Y-119770000D01*
X123533817Y-120147000D02*
X117918000Y-120147000D01*
X123910817Y-119770000D02*
X123533817Y-120147000D01*
%TO.N,Net-(IC1-I9)*%
X130130000Y-111150000D02*
X128340000Y-109360000D01*
X130130000Y-115357500D02*
X130130000Y-111150000D01*
%TO.N,Net-(IC1-Q1)*%
X128630000Y-125450712D02*
X128361847Y-125718865D01*
X128630000Y-123682500D02*
X128630000Y-125450712D01*
%TO.N,Net-(IC1-Q9)*%
X123260000Y-119520000D02*
X123518764Y-119520000D01*
X123518764Y-119520000D02*
X123768764Y-119270000D01*
X123768764Y-119270000D02*
X126717500Y-119270000D01*
%TO.N,/LA20_N*%
X95320000Y-92215000D02*
X94685000Y-91580000D01*
X90875000Y-90945000D02*
X90240000Y-91580000D01*
D41*
X101670000Y-99835000D02*
X101035000Y-99200000D01*
X97225000Y-94120000D02*
X96590000Y-93485000D01*
D40*
X94050000Y-91580000D02*
X93415000Y-90945000D01*
X93415000Y-90945000D02*
X90875000Y-90945000D01*
X90240000Y-91580000D02*
X88970000Y-91580000D01*
D41*
X97225000Y-95390000D02*
X97225000Y-94120000D01*
X108655000Y-99835000D02*
X101670000Y-99835000D01*
X120085000Y-111265000D02*
X108655000Y-99835000D01*
X124165000Y-111265000D02*
X120085000Y-111265000D01*
X96590000Y-93485000D02*
X95320000Y-92215000D01*
D40*
X94685000Y-91580000D02*
X94050000Y-91580000D01*
D41*
X101035000Y-99200000D02*
X97225000Y-95390000D01*
D40*
%TO.N,Net-(IC1-I5)*%
X128130000Y-115357500D02*
X128130000Y-113722000D01*
X127578000Y-113170000D02*
X126165000Y-113170000D01*
X128130000Y-113722000D02*
X127578000Y-113170000D01*
%TO.N,/LA20_P*%
X90240000Y-92850000D02*
X88970000Y-92850000D01*
X94685000Y-93442200D02*
X93457800Y-92215000D01*
X93457800Y-92215000D02*
X90875000Y-92215000D01*
X90875000Y-92215000D02*
X90240000Y-92850000D01*
D39*
%TO.N,Net-(IC2--IN)*%
X154740000Y-125870000D02*
X154740000Y-126870000D01*
X155645000Y-127775000D02*
X155645000Y-129745000D01*
X155645000Y-129745000D02*
X160295000Y-129745000D01*
X154740000Y-126870000D02*
X155645000Y-127775000D01*
X160295000Y-129745000D02*
X160360000Y-129680000D01*
%TO.N,Net-(IC2-+IN)*%
X160295000Y-134695000D02*
X160360000Y-134760000D01*
X155645000Y-136665000D02*
X154740000Y-137570000D01*
X154740000Y-137570000D02*
X154740000Y-138570000D01*
X155645000Y-134695000D02*
X155645000Y-136665000D01*
X155645000Y-134695000D02*
X160295000Y-134695000D01*
%TO.N,Net-(IC3-+IN)*%
X154740000Y-122060000D02*
X154740000Y-121060000D01*
X155645000Y-118185000D02*
X160295000Y-118185000D01*
X154740000Y-121060000D02*
X155645000Y-120155000D01*
X155645000Y-120155000D02*
X155645000Y-118185000D01*
X160295000Y-118185000D02*
X160360000Y-118250000D01*
%TO.N,Net-(IC3--IN)*%
X155645000Y-111265000D02*
X155645000Y-113235000D01*
X154740000Y-109360000D02*
X154740000Y-110360000D01*
X154740000Y-110360000D02*
X155645000Y-111265000D01*
X155645000Y-113235000D02*
X160295000Y-113235000D01*
X160295000Y-113235000D02*
X160360000Y-113170000D01*
D40*
%TO.N,/DAC Circuit/CLKA{slash}CLKIQ*%
X115132000Y-72784000D02*
X115410500Y-73062500D01*
X115353500Y-72562500D02*
X116942500Y-72562500D01*
X115410500Y-73062500D02*
X116942500Y-73062500D01*
X113547000Y-72215000D02*
X114116000Y-72784000D01*
X114116000Y-72784000D02*
X115132000Y-72784000D01*
X115132000Y-72784000D02*
X115353500Y-72562500D01*
X111845000Y-72215000D02*
X113547000Y-72215000D01*
%TO.N,/LA29_P*%
X90875000Y-79515000D02*
X88970000Y-81420000D01*
D41*
X106877000Y-80150000D02*
X108147000Y-81420000D01*
D40*
X94050000Y-80150000D02*
X93415000Y-79515000D01*
X113972500Y-73562500D02*
X116942500Y-73562500D01*
D41*
X111830000Y-81420000D02*
X113100000Y-80150000D01*
X113100000Y-80150000D02*
X113100000Y-75070000D01*
D40*
X113100000Y-74435000D02*
X113972500Y-73562500D01*
X93415000Y-79515000D02*
X90875000Y-79515000D01*
D41*
X108147000Y-81420000D02*
X111830000Y-81420000D01*
D40*
X113100000Y-75070000D02*
X113100000Y-74435000D01*
X94685000Y-80150000D02*
X94050000Y-80150000D01*
D41*
X94685000Y-80150000D02*
X106877000Y-80150000D01*
D39*
%TO.N,/DAC Circuit/IOUTA_N*%
X131515000Y-58830000D02*
X134420000Y-58830000D01*
X134690000Y-58560000D02*
X137770000Y-58560000D01*
D40*
X129200000Y-68813200D02*
X129200000Y-58653200D01*
X130020700Y-57832500D02*
X130417500Y-57832500D01*
X129200000Y-58653200D02*
X130020700Y-57832500D01*
X125267500Y-71562500D02*
X125855000Y-71562500D01*
X131415000Y-58830000D02*
X131515000Y-58830000D01*
X126475700Y-71537500D02*
X129200000Y-68813200D01*
D39*
X134420000Y-58830000D02*
X134690000Y-58560000D01*
D40*
X125855000Y-71562500D02*
X125880000Y-71537500D01*
X125880000Y-71537500D02*
X126475700Y-71537500D01*
X130417500Y-57832500D02*
X131415000Y-58830000D01*
%TO.N,/DAC Circuit/IOUTB_N*%
X127480000Y-85958200D02*
X128564300Y-87042500D01*
X130464999Y-88040000D02*
X131515000Y-88040000D01*
D39*
X134420000Y-88040000D02*
X134690000Y-87770000D01*
X134690000Y-87770000D02*
X137770000Y-87770000D01*
D40*
X125267500Y-74562500D02*
X125855000Y-74562500D01*
X125880000Y-74537500D02*
X126219300Y-74537500D01*
D39*
X131515000Y-88040000D02*
X134420000Y-88040000D01*
D40*
X128564300Y-87042500D02*
X129467499Y-87042500D01*
X129467499Y-87042500D02*
X130464999Y-88040000D01*
X127480000Y-75798200D02*
X127480000Y-85958200D01*
X126219300Y-74537500D02*
X127480000Y-75798200D01*
X125855000Y-74562500D02*
X125880000Y-74537500D01*
%TO.N,/LA33_P*%
X121990000Y-62370000D02*
X120720000Y-62370000D01*
D41*
X95955000Y-73800000D02*
X94685000Y-73800000D01*
X120720000Y-62370000D02*
X113735000Y-62370000D01*
D40*
X90240000Y-73800000D02*
X88970000Y-73800000D01*
X93415000Y-73165000D02*
X90875000Y-73165000D01*
X90875000Y-73165000D02*
X90240000Y-73800000D01*
X122355000Y-65807000D02*
X122617000Y-65545000D01*
D41*
X111830000Y-63640000D02*
X106750000Y-63640000D01*
D40*
X122355000Y-68650000D02*
X122355000Y-65807000D01*
X122617000Y-65545000D02*
X122617000Y-62997000D01*
X94685000Y-73800000D02*
X94050000Y-73800000D01*
D41*
X112465000Y-63640000D02*
X111830000Y-63640000D01*
X113735000Y-62370000D02*
X112465000Y-63640000D01*
D40*
X94050000Y-73800000D02*
X93415000Y-73165000D01*
X122617000Y-62997000D02*
X121990000Y-62370000D01*
D41*
X96590000Y-73800000D02*
X95955000Y-73800000D01*
X106750000Y-63640000D02*
X96590000Y-73800000D01*
D40*
%TO.N,/DAC Circuit/SLEEP*%
X125267500Y-76872500D02*
X125165000Y-76975000D01*
X133805000Y-75705000D02*
X134055000Y-75955000D01*
X125267500Y-75562500D02*
X125267500Y-76872500D01*
X132150000Y-75705000D02*
X133805000Y-75705000D01*
%TO.N,/LA21_P*%
X119855000Y-81825000D02*
X119855000Y-76975000D01*
X120085000Y-82055000D02*
X119855000Y-81825000D01*
%TO.N,/LA22_N*%
X120355000Y-76975000D02*
X120355000Y-78515000D01*
X120720000Y-78880000D02*
X120720000Y-82690000D01*
X120355000Y-78515000D02*
X120720000Y-78880000D01*
D41*
X116275000Y-83960000D02*
X115640000Y-84595000D01*
D40*
X93415000Y-85865000D02*
X90875000Y-85865000D01*
X94685000Y-86500000D02*
X94050000Y-86500000D01*
X90875000Y-85865000D02*
X88970000Y-87770000D01*
D41*
X119450000Y-83960000D02*
X116275000Y-83960000D01*
X120085000Y-83325000D02*
X119450000Y-83960000D01*
D40*
X94050000Y-86500000D02*
X93415000Y-85865000D01*
X120720000Y-82690000D02*
X120085000Y-83325000D01*
D41*
X113735000Y-86500000D02*
X94685000Y-86500000D01*
X115640000Y-84595000D02*
X113735000Y-86500000D01*
D39*
%TO.N,/DAC Circuit/IOUTA_P*%
X134420000Y-56385000D02*
X134690000Y-56655000D01*
D40*
X126289300Y-71087500D02*
X128750000Y-68626800D01*
X131415000Y-56385000D02*
X131515000Y-56385000D01*
X128750000Y-68626800D02*
X128750000Y-58466800D01*
X125880000Y-71087500D02*
X126289300Y-71087500D01*
D39*
X131515000Y-56385000D02*
X134420000Y-56385000D01*
D40*
X130417500Y-57382500D02*
X131415000Y-56385000D01*
X128750000Y-58466800D02*
X129834300Y-57382500D01*
D39*
X134690000Y-56655000D02*
X137770000Y-56655000D01*
D40*
X125855000Y-71062500D02*
X125880000Y-71087500D01*
X125267500Y-71062500D02*
X125855000Y-71062500D01*
X129834300Y-57382500D02*
X130417500Y-57382500D01*
%TO.N,/LA30_P*%
X121355000Y-68650000D02*
X121355000Y-64910000D01*
%TO.N,/LA30_N*%
X121855000Y-65545000D02*
X121990000Y-65410000D01*
X121990000Y-65410000D02*
X121990000Y-63640000D01*
X121855000Y-68650000D02*
X121855000Y-65545000D01*
%TO.N,/LA24_N*%
X116942500Y-75062500D02*
X115012500Y-75062500D01*
X115012500Y-75062500D02*
X115005000Y-75070000D01*
%TO.N,/LA24_P*%
X115640000Y-75705000D02*
X115005000Y-76340000D01*
X116942500Y-75562500D02*
X115782500Y-75562500D01*
X115005000Y-76340000D02*
X115005000Y-76975000D01*
X115782500Y-75562500D02*
X115640000Y-75705000D01*
%TO.N,/LA22_P*%
X120855000Y-76975000D02*
X120855000Y-78372948D01*
X121990000Y-83325000D02*
X121355000Y-83960000D01*
X121990000Y-82055000D02*
X121990000Y-83325000D01*
X90875000Y-87135000D02*
X88970000Y-89040000D01*
D41*
X116910000Y-85230000D02*
X114370000Y-87770000D01*
D40*
X93415000Y-87135000D02*
X90875000Y-87135000D01*
D41*
X121355000Y-83960000D02*
X120085000Y-85230000D01*
D40*
X121355000Y-78872948D02*
X121355000Y-81420000D01*
X94050000Y-87770000D02*
X93415000Y-87135000D01*
D41*
X120085000Y-85230000D02*
X116910000Y-85230000D01*
X114370000Y-87770000D02*
X94685000Y-87770000D01*
D40*
X121355000Y-81420000D02*
X121990000Y-82055000D01*
X94685000Y-87770000D02*
X94050000Y-87770000D01*
X120855000Y-78372948D02*
X121355000Y-78872948D01*
D41*
%TO.N,/LA33_N*%
X111830000Y-62370000D02*
X106115000Y-62370000D01*
D40*
X122855000Y-68650000D02*
X122855000Y-65949053D01*
X93415000Y-71895000D02*
X90875000Y-71895000D01*
D41*
X95955000Y-72530000D02*
X95320000Y-72530000D01*
D40*
X123071000Y-62181000D02*
X121990000Y-61100000D01*
X94685000Y-72530000D02*
X94050000Y-72530000D01*
X94050000Y-72530000D02*
X93415000Y-71895000D01*
D41*
X95320000Y-72530000D02*
X94685000Y-72530000D01*
X106115000Y-62370000D02*
X95955000Y-72530000D01*
X120720000Y-61100000D02*
X113100000Y-61100000D01*
D40*
X121990000Y-61100000D02*
X120720000Y-61100000D01*
X122855000Y-65949053D02*
X123071000Y-65733053D01*
X123071000Y-65733053D02*
X123071000Y-62181000D01*
X90240000Y-72530000D02*
X88970000Y-72530000D01*
D41*
X113100000Y-61100000D02*
X111830000Y-62370000D01*
D40*
X90875000Y-71895000D02*
X90240000Y-72530000D01*
%TO.N,/LA25_P*%
X93415000Y-84595000D02*
X90875000Y-84595000D01*
X118855000Y-79475000D02*
X118855000Y-76975000D01*
X90875000Y-84595000D02*
X90240000Y-85230000D01*
X94050000Y-85230000D02*
X93415000Y-84595000D01*
X94685000Y-85230000D02*
X94050000Y-85230000D01*
X90240000Y-85230000D02*
X88970000Y-85230000D01*
X117545000Y-80785000D02*
X118855000Y-79475000D01*
D41*
X94685000Y-85230000D02*
X113100000Y-85230000D01*
X113100000Y-85230000D02*
X117545000Y-80785000D01*
D40*
%TO.N,/LA21_N*%
X119355000Y-76975000D02*
X119355000Y-80880000D01*
X119355000Y-80880000D02*
X118815000Y-81420000D01*
%TO.N,/LA32_P*%
X123355000Y-68650000D02*
X123355000Y-66091106D01*
X123895000Y-65551106D02*
X123895000Y-62370000D01*
X123355000Y-66091106D02*
X123895000Y-65551106D01*
D41*
%TO.N,/LA25_N*%
X112465000Y-83960000D02*
X116275000Y-80150000D01*
D40*
X93423000Y-83333000D02*
X90867000Y-83333000D01*
X94050000Y-83960000D02*
X93423000Y-83333000D01*
X118355000Y-76975000D02*
X118355000Y-78070000D01*
X118355000Y-78070000D02*
X116275000Y-80150000D01*
X94685000Y-83960000D02*
X94050000Y-83960000D01*
X90240000Y-83960000D02*
X88970000Y-83960000D01*
X90867000Y-83333000D02*
X90240000Y-83960000D01*
D41*
X94685000Y-83960000D02*
X112465000Y-83960000D01*
D40*
%TO.N,/LA32_N*%
X124530000Y-66180000D02*
X124530000Y-61100000D01*
X123855000Y-68650000D02*
X123855000Y-66855000D01*
X123855000Y-66855000D02*
X124530000Y-66180000D01*
%TO.N,/LA28_N*%
X118815000Y-66180000D02*
X116910000Y-66180000D01*
X119855000Y-67220000D02*
X119450000Y-66815000D01*
X119855000Y-68650000D02*
X119855000Y-67220000D01*
X119450000Y-66815000D02*
X118815000Y-66180000D01*
%TO.N,Net-(IC4-BIASJ_A)*%
X125267500Y-72062500D02*
X124362500Y-72062500D01*
X124362500Y-72062500D02*
X123895000Y-72530000D01*
D41*
%TO.N,/LA31_P*%
X96590000Y-77610000D02*
X95955000Y-77610000D01*
D40*
X118815000Y-64910000D02*
X116910000Y-64910000D01*
X120355000Y-68650000D02*
X120355000Y-66450000D01*
X90240000Y-77610000D02*
X88970000Y-77610000D01*
D41*
X113735000Y-66180000D02*
X112465000Y-66180000D01*
X112465000Y-66180000D02*
X108020000Y-66180000D01*
X108020000Y-66180000D02*
X107385000Y-66815000D01*
D40*
X90875000Y-76975000D02*
X90240000Y-77610000D01*
D41*
X115005000Y-64910000D02*
X113735000Y-66180000D01*
D40*
X120355000Y-66450000D02*
X118815000Y-64910000D01*
X94050000Y-77610000D02*
X93415000Y-76975000D01*
D41*
X107385000Y-66815000D02*
X96590000Y-77610000D01*
X95955000Y-77610000D02*
X94685000Y-77610000D01*
D40*
X93415000Y-76975000D02*
X90875000Y-76975000D01*
D41*
X116910000Y-64910000D02*
X115005000Y-64910000D01*
D40*
X94685000Y-77610000D02*
X94050000Y-77610000D01*
%TO.N,/LA28_P*%
X118963092Y-67450000D02*
X118180000Y-67450000D01*
X119355000Y-67841908D02*
X118963092Y-67450000D01*
X118180000Y-67450000D02*
X116910000Y-67450000D01*
X119355000Y-68650000D02*
X119355000Y-67841908D01*
D41*
%TO.N,/LA31_N*%
X113100000Y-64910000D02*
X107385000Y-64910000D01*
D40*
X94050000Y-76340000D02*
X93415000Y-75705000D01*
D41*
X116910000Y-63640000D02*
X114370000Y-63640000D01*
X107385000Y-64910000D02*
X104845000Y-67450000D01*
X104845000Y-67450000D02*
X95955000Y-76340000D01*
D40*
X90240000Y-76340000D02*
X88970000Y-76340000D01*
X118180000Y-63640000D02*
X116910000Y-63640000D01*
X90875000Y-75705000D02*
X90240000Y-76340000D01*
X94685000Y-76340000D02*
X94050000Y-76340000D01*
X120855000Y-68650000D02*
X120855000Y-65680000D01*
X120855000Y-65680000D02*
X118815000Y-63640000D01*
X93415000Y-75705000D02*
X90875000Y-75705000D01*
X118815000Y-63640000D02*
X118180000Y-63640000D01*
D41*
X114370000Y-63640000D02*
X113100000Y-64910000D01*
X95955000Y-76340000D02*
X94685000Y-76340000D01*
D40*
%TO.N,/DAC Circuit/IOUTB_P*%
X126405700Y-74087500D02*
X127930000Y-75611800D01*
D39*
X134420000Y-85595000D02*
X134690000Y-85865000D01*
D40*
X125267500Y-74062500D02*
X125855000Y-74062500D01*
X130464999Y-85595000D02*
X131515000Y-85595000D01*
X125855000Y-74062500D02*
X125880000Y-74087500D01*
X125880000Y-74087500D02*
X126405700Y-74087500D01*
X127930000Y-85771800D02*
X128750700Y-86592500D01*
D39*
X131515000Y-85595000D02*
X134420000Y-85595000D01*
X134690000Y-85865000D02*
X137770000Y-85865000D01*
D40*
X127930000Y-75611800D02*
X127930000Y-85771800D01*
X128750700Y-86592500D02*
X129467499Y-86592500D01*
X129467499Y-86592500D02*
X130464999Y-85595000D01*
%TO.N,/LA14_P*%
X80035000Y-96660000D02*
X79425000Y-97270000D01*
X83890000Y-96660000D02*
X80035000Y-96660000D01*
%TO.N,/LA27_P*%
X80715000Y-84595000D02*
X82620000Y-86500000D01*
X78175000Y-84595000D02*
X80715000Y-84595000D01*
X76905000Y-83325000D02*
X78175000Y-84595000D01*
X82620000Y-86500000D02*
X83890000Y-86500000D01*
%TO.N,/CLK1_M2C_N*%
X90345211Y-116090999D02*
X91764000Y-117509788D01*
X80609788Y-126759000D02*
X77920999Y-124070211D01*
X86535212Y-126759000D02*
X80609788Y-126759000D01*
X88970000Y-115710000D02*
X89350999Y-116090999D01*
X91764000Y-121530212D02*
X86535212Y-126759000D01*
X77920999Y-122440999D02*
X76905000Y-121425000D01*
X89350999Y-116090999D02*
X90345211Y-116090999D01*
X91764000Y-117509788D02*
X91764000Y-121530212D01*
X77920999Y-124070211D02*
X77920999Y-122440999D01*
D41*
%TO.N,/LA07_P*%
X93457800Y-103999246D02*
X92780000Y-103321446D01*
X93457800Y-104322800D02*
X93457800Y-103999246D01*
X96590000Y-107455000D02*
X93457800Y-104322800D01*
X115910000Y-122060000D02*
X114370000Y-122060000D01*
X114370000Y-122060000D02*
X99765000Y-107455000D01*
X92780000Y-103321446D02*
X92780000Y-103010000D01*
X99765000Y-107455000D02*
X96590000Y-107455000D01*
D40*
%TO.N,/SDA*%
X79445000Y-80785000D02*
X81350000Y-80785000D01*
X81350000Y-80785000D02*
X81985000Y-80150000D01*
X81985000Y-80150000D02*
X83890000Y-80150000D01*
%TO.N,/CLK1_M2C_P*%
X91256000Y-117720212D02*
X91256000Y-121319788D01*
X80820212Y-126251000D02*
X78429001Y-123859789D01*
X78429001Y-122440999D02*
X79445000Y-121425000D01*
X78429001Y-123859789D02*
X78429001Y-122440999D01*
X91256000Y-121319788D02*
X86324788Y-126251000D01*
X90134789Y-116599001D02*
X91256000Y-117720212D01*
X86324788Y-126251000D02*
X80820212Y-126251000D01*
X88970000Y-116980000D02*
X89350999Y-116599001D01*
X89350999Y-116599001D02*
X90134789Y-116599001D01*
%TO.N,/LA27_N*%
X80715000Y-83325000D02*
X82620000Y-85230000D01*
X79445000Y-83325000D02*
X80715000Y-83325000D01*
X82620000Y-85230000D02*
X83890000Y-85230000D01*
%TO.N,/LA26_N*%
X89597000Y-82949712D02*
X89597000Y-82944000D01*
X100558001Y-81674001D02*
X100781000Y-81897000D01*
X92153000Y-81679712D02*
X92520288Y-82047000D01*
X87700000Y-85230000D02*
X87319001Y-85610999D01*
X91615212Y-81674000D02*
X92153000Y-81674000D01*
X87319001Y-85610999D02*
X86916211Y-85610999D01*
X106369000Y-73642000D02*
X106592000Y-73419000D01*
X86557000Y-85251788D02*
X86557000Y-83684212D01*
X88343000Y-82949712D02*
X88710288Y-83317000D01*
X86916211Y-85610999D02*
X86557000Y-85251788D01*
X110057499Y-74115000D02*
X110545000Y-74115000D01*
X92153000Y-81674000D02*
X92153000Y-81679712D01*
X90345212Y-82944000D02*
X91615212Y-81674000D01*
X88343000Y-82944000D02*
X88343000Y-82949712D01*
X106592000Y-73419000D02*
X109361499Y-73419000D01*
X93407001Y-81674001D02*
X100558001Y-81674001D01*
X93039712Y-82047000D02*
X93407000Y-81679712D01*
X92520288Y-82047000D02*
X93039712Y-82047000D01*
X87297212Y-82944000D02*
X88343000Y-82944000D01*
X89229712Y-83317000D02*
X89597000Y-82949712D01*
X93407000Y-81679712D02*
X93407001Y-81674001D01*
X89597000Y-82944000D02*
X90345212Y-82944000D01*
X86557000Y-83684212D02*
X87297212Y-82944000D01*
X88710288Y-83317000D02*
X89229712Y-83317000D01*
X109361499Y-73419000D02*
X110057499Y-74115000D01*
D41*
%TO.N,/LA15_N*%
X95955000Y-96025000D02*
X95955000Y-94755000D01*
X108020000Y-101105000D02*
X101035000Y-101105000D01*
X95320000Y-94120000D02*
X92780000Y-94120000D01*
X101035000Y-101105000D02*
X95955000Y-96025000D01*
X120085000Y-113170000D02*
X108020000Y-101105000D01*
X124165000Y-113170000D02*
X120085000Y-113170000D01*
X95955000Y-94755000D02*
X95320000Y-94120000D01*
%TO.N,/LA15_P*%
X102305000Y-102375000D02*
X99765000Y-102375000D01*
X115910000Y-114440000D02*
X114370000Y-114440000D01*
X99765000Y-102375000D02*
X92780000Y-95390000D01*
X114370000Y-114440000D02*
X102305000Y-102375000D01*
D40*
%TO.N,/LA18_P_CC*%
X76905000Y-85865000D02*
X78175000Y-87135000D01*
X81985000Y-89675000D02*
X83890000Y-91580000D01*
X80080000Y-87135000D02*
X81985000Y-89040000D01*
X81985000Y-89040000D02*
X81985000Y-89675000D01*
X78175000Y-87135000D02*
X80080000Y-87135000D01*
%TO.N,/LA17_P_CC*%
X87065000Y-93485000D02*
X87700000Y-94120000D01*
X76905000Y-88405000D02*
X79445000Y-90945000D01*
X83638288Y-93485000D02*
X87065000Y-93485000D01*
X79445000Y-90945000D02*
X81098288Y-90945000D01*
X81098288Y-90945000D02*
X83638288Y-93485000D01*
%TO.N,/LA12_N*%
X94685000Y-100470000D02*
X94685000Y-100218288D01*
X93031712Y-98565000D02*
X90875000Y-98565000D01*
X90875000Y-98565000D02*
X90240000Y-99200000D01*
X90240000Y-99200000D02*
X88970000Y-99200000D01*
X94685000Y-100218288D02*
X93031712Y-98565000D01*
%TO.N,/LA16_N*%
X88970000Y-95390000D02*
X90240000Y-95390000D01*
X93415000Y-94755000D02*
X94050000Y-95390000D01*
X90240000Y-95390000D02*
X90875000Y-94755000D01*
X94050000Y-95390000D02*
X94685000Y-95390000D01*
X90875000Y-94755000D02*
X93415000Y-94755000D01*
%TO.N,/LA23_P*%
X89605000Y-90945000D02*
X88335000Y-90945000D01*
X123260000Y-79493844D02*
X123260000Y-80150000D01*
X121855000Y-76975000D02*
X121855000Y-78088844D01*
D41*
X96590000Y-90310000D02*
X94685000Y-90310000D01*
D40*
X93423000Y-89683000D02*
X90867000Y-89683000D01*
D41*
X97225000Y-89717800D02*
X97182200Y-89717800D01*
D40*
X94050000Y-90310000D02*
X93423000Y-89683000D01*
X88335000Y-90945000D02*
X87700000Y-90310000D01*
X94685000Y-90310000D02*
X94050000Y-90310000D01*
D41*
X97182200Y-89717800D02*
X96590000Y-90310000D01*
D40*
X121855000Y-78088844D02*
X123260000Y-79493844D01*
X90867000Y-89683000D02*
X89605000Y-90945000D01*
%TO.N,/LA00_P_CC*%
X94685000Y-113327790D02*
X93900210Y-112543000D01*
X133630000Y-125445000D02*
X134055000Y-125870000D01*
X133630000Y-123682500D02*
X133630000Y-125445000D01*
X93900210Y-112543000D02*
X89613000Y-112543000D01*
X89613000Y-112543000D02*
X88970000Y-111900000D01*
X94685000Y-113805000D02*
X94685000Y-113327790D01*
%TO.N,/SCL*%
X82078000Y-81962000D02*
X82620000Y-81420000D01*
X78082000Y-81962000D02*
X82078000Y-81962000D01*
X82620000Y-81420000D02*
X83890000Y-81420000D01*
X76905000Y-80785000D02*
X78082000Y-81962000D01*
%TO.N,/LA13_P*%
X80740000Y-99810000D02*
X79425000Y-99810000D01*
X87700000Y-97930000D02*
X87065000Y-98565000D01*
X81985000Y-98565000D02*
X80740000Y-99810000D01*
X87065000Y-98565000D02*
X81985000Y-98565000D01*
%TO.N,/LA10_N*%
X83227000Y-101133000D02*
X78102000Y-101133000D01*
X78102000Y-101133000D02*
X76885000Y-102350000D01*
X83890000Y-100470000D02*
X83227000Y-101133000D01*
%TO.N,/LA29_N*%
X115172500Y-72062500D02*
X114370000Y-71260000D01*
D41*
X110560000Y-67450000D02*
X114370000Y-71260000D01*
D40*
X90875000Y-78245000D02*
X88970000Y-80150000D01*
X116942500Y-72062500D02*
X115172500Y-72062500D01*
X94685000Y-78880000D02*
X94050000Y-78880000D01*
D41*
X97225000Y-78880000D02*
X108655000Y-67450000D01*
X108655000Y-67450000D02*
X110560000Y-67450000D01*
D40*
X94050000Y-78880000D02*
X93415000Y-78245000D01*
X93415000Y-78245000D02*
X90875000Y-78245000D01*
D41*
X94685000Y-78880000D02*
X97225000Y-78880000D01*
D40*
%TO.N,/LA05_N*%
X78268000Y-112442000D02*
X76905000Y-113805000D01*
X83260600Y-107080707D02*
X83265340Y-107085448D01*
X84150707Y-106190600D02*
X83629293Y-106190600D01*
X83260600Y-106559293D02*
X83260600Y-107080707D01*
X83629293Y-106190600D02*
X83260600Y-106559293D01*
X81083788Y-112442000D02*
X78268000Y-112442000D01*
X81731000Y-108619788D02*
X81731000Y-111794788D01*
X85689788Y-104661000D02*
X84155447Y-106195341D01*
X87319000Y-104661000D02*
X85689788Y-104661000D01*
X83265340Y-107085448D02*
X81731000Y-108619788D01*
X81731000Y-111794788D02*
X81083788Y-112442000D01*
X87700000Y-104280000D02*
X87319000Y-104661000D01*
X84155447Y-106195341D02*
X84150707Y-106190600D01*
%TO.N,/LA00_N_CC*%
X132150000Y-126505000D02*
X132150000Y-127140000D01*
X95169262Y-113170000D02*
X93264262Y-111265000D01*
D41*
X116275000Y-133490000D02*
X130245000Y-133490000D01*
X130245000Y-133490000D02*
X132150000Y-131585000D01*
D40*
X93264262Y-111265000D02*
X90875000Y-111265000D01*
D41*
X95724862Y-113725600D02*
X96510600Y-113725600D01*
X95169262Y-113170000D02*
X95724862Y-113725600D01*
D40*
X90240000Y-110630000D02*
X88970000Y-110630000D01*
X90875000Y-111265000D02*
X90240000Y-110630000D01*
D41*
X96510600Y-113725600D02*
X116275000Y-133490000D01*
D40*
X131630000Y-125985000D02*
X132150000Y-126505000D01*
D41*
X132150000Y-131585000D02*
X132150000Y-127140000D01*
D40*
X131630000Y-123682500D02*
X131630000Y-125985000D01*
%TO.N,/LA14_N*%
X83890000Y-95390000D02*
X83373000Y-95907000D01*
X83373000Y-95907000D02*
X78248000Y-95907000D01*
X78248000Y-95907000D02*
X76885000Y-97270000D01*
%TO.N,/LA26_P*%
X87086788Y-82436000D02*
X88343000Y-82436000D01*
X110057499Y-72215000D02*
X110545000Y-72215000D01*
X100558001Y-81165999D02*
X100781000Y-80943000D01*
X87319001Y-86119001D02*
X86705789Y-86119001D01*
X91404788Y-81166000D02*
X92153000Y-81166000D01*
X88710288Y-82063000D02*
X89229712Y-82063000D01*
X87700000Y-86500000D02*
X87319001Y-86119001D01*
X109361499Y-72911000D02*
X110057499Y-72215000D01*
X90134788Y-82436000D02*
X91404788Y-81166000D01*
X93407000Y-81160288D02*
X93407001Y-81165999D01*
X106592000Y-72911000D02*
X109361499Y-72911000D01*
X92153000Y-81166000D02*
X92153000Y-81160288D01*
X88343000Y-82436000D02*
X88343000Y-82430288D01*
X89597000Y-82430288D02*
X89597000Y-82436000D01*
X93407001Y-81165999D02*
X100558001Y-81165999D01*
X86049000Y-83473788D02*
X87086788Y-82436000D01*
X89229712Y-82063000D02*
X89597000Y-82430288D01*
X89597000Y-82436000D02*
X90134788Y-82436000D01*
X86705789Y-86119001D02*
X86049000Y-85462212D01*
X86049000Y-85462212D02*
X86049000Y-83473788D01*
X92520288Y-80793000D02*
X93039712Y-80793000D01*
X92153000Y-81160288D02*
X92520288Y-80793000D01*
X93039712Y-80793000D02*
X93407000Y-81160288D01*
X88343000Y-82430288D02*
X88710288Y-82063000D01*
X106369000Y-72688000D02*
X106592000Y-72911000D01*
%TO.N,/LA09_P*%
X87700000Y-101740000D02*
X84533000Y-104907000D01*
X84533000Y-104907000D02*
X79442000Y-104907000D01*
X79442000Y-104907000D02*
X79425000Y-104890000D01*
%TO.N,/LA10_P*%
X80035000Y-101740000D02*
X79425000Y-102350000D01*
X83890000Y-101740000D02*
X80035000Y-101740000D01*
%TO.N,/LA03_N*%
X94685000Y-108090000D02*
X94685000Y-107838288D01*
X90240000Y-106820000D02*
X88970000Y-106820000D01*
X93031712Y-106185000D02*
X90875000Y-106185000D01*
X94685000Y-107838288D02*
X93031712Y-106185000D01*
X90875000Y-106185000D02*
X90240000Y-106820000D01*
%TO.N,/LA13_N*%
X76885000Y-99810000D02*
X77542500Y-99810000D01*
X78787500Y-98565000D02*
X80538606Y-98565000D01*
X85795000Y-97295000D02*
X86430000Y-96660000D01*
X77542500Y-99810000D02*
X78787500Y-98565000D01*
X80538606Y-98565000D02*
X81808606Y-97295000D01*
X81808606Y-97295000D02*
X85795000Y-97295000D01*
X86430000Y-96660000D02*
X87700000Y-96660000D01*
%TO.N,/LA17_N_CC*%
X79445000Y-88405000D02*
X83263000Y-92223000D01*
X83263000Y-92223000D02*
X87073000Y-92223000D01*
X87073000Y-92223000D02*
X87700000Y-92850000D01*
%TO.N,/LA12_P*%
X93415000Y-101740000D02*
X93415000Y-101488288D01*
X90875000Y-101105000D02*
X90240000Y-100470000D01*
X93415000Y-101488288D02*
X93031712Y-101105000D01*
D41*
X100400000Y-106185000D02*
X97860000Y-106185000D01*
X114370000Y-120155000D02*
X100400000Y-106185000D01*
X115910000Y-120155000D02*
X114370000Y-120155000D01*
D40*
X93031712Y-101105000D02*
X90875000Y-101105000D01*
D41*
X97860000Y-106185000D02*
X94050000Y-102375000D01*
D40*
X94050000Y-102375000D02*
X93415000Y-101740000D01*
X90240000Y-100470000D02*
X88970000Y-100470000D01*
D41*
%TO.N,/LA11_P*%
X93457800Y-100512800D02*
X93457800Y-99877800D01*
X115910000Y-118250000D02*
X114370000Y-118250000D01*
X114370000Y-118250000D02*
X101035000Y-104915000D01*
X97860000Y-104915000D02*
X93457800Y-100512800D01*
X101035000Y-104915000D02*
X97860000Y-104915000D01*
X93457800Y-99877800D02*
X92780000Y-99200000D01*
%TO.N,/LA04_P*%
X98495000Y-109995000D02*
X95320000Y-109995000D01*
X117910000Y-129410000D02*
X98495000Y-109995000D01*
X93457800Y-107809246D02*
X92780000Y-107131446D01*
X92780000Y-107131446D02*
X92780000Y-106820000D01*
X127705000Y-129410000D02*
X117910000Y-129410000D01*
X95320000Y-109995000D02*
X93457800Y-108132800D01*
X93457800Y-108132800D02*
X93457800Y-107809246D01*
D40*
%TO.N,/LA08_P*%
X94050000Y-105933288D02*
X93023712Y-104907000D01*
D41*
X114370000Y-123965000D02*
X99130000Y-108725000D01*
D40*
X94050000Y-106185000D02*
X94050000Y-105933288D01*
X93023712Y-104907000D02*
X90867000Y-104907000D01*
X90867000Y-104907000D02*
X90240000Y-104280000D01*
D41*
X96590000Y-108725000D02*
X94685000Y-106820000D01*
D40*
X90240000Y-104280000D02*
X88970000Y-104280000D01*
D41*
X115910000Y-123965000D02*
X114370000Y-123965000D01*
X99130000Y-108725000D02*
X96590000Y-108725000D01*
D40*
X94685000Y-106820000D02*
X94050000Y-106185000D01*
D41*
%TO.N,/LA02_P*%
X93415000Y-110630000D02*
X92780000Y-110630000D01*
X116910000Y-132220000D02*
X97225000Y-112535000D01*
X95320000Y-112535000D02*
X93415000Y-110630000D01*
X130880000Y-130950000D02*
X129610000Y-132220000D01*
D40*
X130880000Y-126074000D02*
X130880000Y-127140000D01*
X131130000Y-125824000D02*
X130880000Y-126074000D01*
X131130000Y-123682500D02*
X131130000Y-125824000D01*
D41*
X129610000Y-132220000D02*
X116910000Y-132220000D01*
X97225000Y-112535000D02*
X95320000Y-112535000D01*
X130880000Y-127140000D02*
X130880000Y-130950000D01*
D40*
%TO.N,/LA08_N*%
X90875000Y-102375000D02*
X90240000Y-103010000D01*
X90240000Y-103010000D02*
X88970000Y-103010000D01*
X94685000Y-104280000D02*
X94050000Y-103645000D01*
X94050000Y-103393288D02*
X93031712Y-102375000D01*
X94050000Y-103645000D02*
X94050000Y-103393288D01*
X93031712Y-102375000D02*
X90875000Y-102375000D01*
%TO.N,/LA03_P*%
X94685000Y-110630000D02*
X94050000Y-109995000D01*
D41*
X97860000Y-111265000D02*
X95320000Y-111265000D01*
X129610000Y-130315000D02*
X128975000Y-130950000D01*
X129610000Y-129410000D02*
X129610000Y-130315000D01*
D40*
X90875000Y-108725000D02*
X90240000Y-108090000D01*
D41*
X128975000Y-130950000D02*
X117545000Y-130950000D01*
X117545000Y-130950000D02*
X97860000Y-111265000D01*
D40*
X94050000Y-109995000D02*
X94050000Y-109743288D01*
X93031712Y-108725000D02*
X90875000Y-108725000D01*
X94050000Y-109743288D02*
X93031712Y-108725000D01*
D41*
X95320000Y-111265000D02*
X94685000Y-110630000D01*
D40*
X90240000Y-108090000D02*
X88970000Y-108090000D01*
%TO.N,/LA05_P*%
X84514659Y-106554553D02*
X84519400Y-106559293D01*
X83624552Y-107444660D02*
X82239000Y-108830212D01*
X84519400Y-107080707D02*
X84150707Y-107449400D01*
X87319000Y-105169000D02*
X85900212Y-105169000D01*
X82239000Y-112005212D02*
X80439212Y-113805000D01*
X84519400Y-106559293D02*
X84519400Y-107080707D01*
X80439212Y-113805000D02*
X79445000Y-113805000D01*
X85900212Y-105169000D02*
X84514659Y-106554553D01*
X84150707Y-107449400D02*
X83629293Y-107449400D01*
X82239000Y-108830212D02*
X82239000Y-112005212D01*
X87700000Y-105550000D02*
X87319000Y-105169000D01*
X83629293Y-107449400D02*
X83624552Y-107444660D01*
%TO.N,/CLK0_M2C_N*%
X94685000Y-115075000D02*
X96656787Y-115075000D01*
X96656787Y-115075000D02*
X97771064Y-116189277D01*
X92780000Y-113170000D02*
X94685000Y-115075000D01*
X138500000Y-128410000D02*
X137560000Y-128410000D01*
X97771064Y-116189277D02*
X98015723Y-116189277D01*
X137560000Y-128410000D02*
X137545000Y-128425000D01*
%TO.N,/CLK0_M2C_P*%
X92780000Y-114440000D02*
X94050000Y-115710000D01*
X97411853Y-116548488D02*
X97411853Y-116793147D01*
X135630000Y-128410000D02*
X135645000Y-128425000D01*
X94050000Y-115710000D02*
X96573365Y-115710000D01*
X134690000Y-128410000D02*
X135630000Y-128410000D01*
X96573365Y-115710000D02*
X97411853Y-116548488D01*
%TO.N,/LA16_P*%
X90875000Y-97295000D02*
X90240000Y-96660000D01*
D41*
X101670000Y-103645000D02*
X99130000Y-103645000D01*
X99130000Y-103645000D02*
X94685000Y-99200000D01*
D40*
X94050000Y-98565000D02*
X94050000Y-97930000D01*
X94685000Y-99200000D02*
X94050000Y-98565000D01*
X93415000Y-97295000D02*
X90875000Y-97295000D01*
X90240000Y-96660000D02*
X88970000Y-96660000D01*
X94050000Y-97930000D02*
X93415000Y-97295000D01*
D41*
X115910000Y-116345000D02*
X114370000Y-116345000D01*
X114370000Y-116345000D02*
X101670000Y-103645000D01*
D40*
%TO.N,/LA09_N*%
X84517000Y-103653000D02*
X78122000Y-103653000D01*
X87700000Y-100470000D02*
X84517000Y-103653000D01*
X78122000Y-103653000D02*
X76885000Y-104890000D01*
D41*
%TO.N,/LA23_N*%
X121990000Y-85865000D02*
X118815000Y-89040000D01*
D40*
X121355000Y-76975000D02*
X121355000Y-78230896D01*
X93415000Y-88405000D02*
X90875000Y-88405000D01*
X88327000Y-89667000D02*
X87700000Y-89040000D01*
D41*
X123260000Y-83325000D02*
X123260000Y-84595000D01*
X118815000Y-89040000D02*
X94685000Y-89040000D01*
D40*
X121355000Y-78230896D02*
X121990000Y-78865896D01*
D41*
X123260000Y-84595000D02*
X121990000Y-85865000D01*
D40*
X90875000Y-88405000D02*
X89613000Y-89667000D01*
X123260000Y-82055000D02*
X123260000Y-83325000D01*
X94685000Y-89040000D02*
X94050000Y-89040000D01*
X121990000Y-80785000D02*
X123260000Y-82055000D01*
X121990000Y-78865896D02*
X121990000Y-80785000D01*
X94050000Y-89040000D02*
X93415000Y-88405000D01*
X89613000Y-89667000D02*
X88327000Y-89667000D01*
D41*
%TO.N,/ADC_Circuit/Q_IN*%
X168980000Y-134760000D02*
X168980000Y-127140000D01*
X168980000Y-134760000D02*
X168980000Y-141995000D01*
X162360000Y-134760000D02*
X168980000Y-134760000D01*
%TO.N,/ADC_Circuit/I_IN*%
X168980000Y-110630000D02*
X168980000Y-118250000D01*
D39*
X168980000Y-100085000D02*
X168980000Y-110630000D01*
D41*
X162360000Y-118250000D02*
X168980000Y-118250000D01*
D39*
%TO.N,Net-(U3-ADJ)*%
X101670000Y-91580000D02*
X102700000Y-90550000D01*
X115005000Y-97565000D02*
X101259763Y-97565000D01*
X101670000Y-92850000D02*
X101670000Y-91580000D01*
X99765000Y-94755000D02*
X101670000Y-92850000D01*
X101259763Y-97565000D02*
X99765000Y-96070237D01*
X115005000Y-95120000D02*
X115005000Y-97565000D01*
X99765000Y-96070237D02*
X99765000Y-94755000D01*
X102700000Y-90550000D02*
X104235000Y-90550000D01*
%TO.N,Net-(U4--)*%
X143645000Y-57290000D02*
X142310000Y-57290000D01*
X142310000Y-57290000D02*
X141675000Y-56655000D01*
X147295000Y-52845000D02*
X141675000Y-52845000D01*
X141675000Y-52845000D02*
X139770000Y-54750000D01*
X139770000Y-54750000D02*
X139770000Y-56655000D01*
X141675000Y-56655000D02*
X139770000Y-56655000D01*
%TO.N,Net-(U4-+)*%
X143645000Y-58560000D02*
X139770000Y-58560000D01*
X139770000Y-61735000D02*
X139770000Y-58560000D01*
%TO.N,Net-(U5--)*%
X141040000Y-82055000D02*
X139770000Y-83325000D01*
X139770000Y-85865000D02*
X141040000Y-85865000D01*
X141040000Y-85865000D02*
X141675000Y-86500000D01*
X141675000Y-86500000D02*
X143645000Y-86500000D01*
X147295000Y-82055000D02*
X141040000Y-82055000D01*
X139770000Y-83325000D02*
X139770000Y-85865000D01*
%TO.N,Net-(U5-+)*%
X143645000Y-87770000D02*
X139770000Y-87770000D01*
X139770000Y-91850000D02*
X139770000Y-87770000D01*
D40*
%TO.N,/LA18_N_CC*%
X82620000Y-88405000D02*
X82620000Y-89040000D01*
X80080000Y-85865000D02*
X82620000Y-88405000D01*
X82620000Y-89040000D02*
X83890000Y-90310000D01*
X79445000Y-85865000D02*
X80080000Y-85865000D01*
D39*
%TO.N,Net-(J7-Pin_1)*%
X160322500Y-90945000D02*
X160322500Y-88405000D01*
X156915000Y-88405000D02*
X160322500Y-88405000D01*
X153835000Y-87770000D02*
X156280000Y-87770000D01*
X153835000Y-81515000D02*
X153835000Y-87770000D01*
X156280000Y-87770000D02*
X156915000Y-88405000D01*
X149295000Y-78630000D02*
X150950000Y-78630000D01*
X150950000Y-78630000D02*
X153835000Y-81515000D01*
%TO.N,Net-(J6-Pin_1)*%
X160322500Y-56020000D02*
X160322500Y-58560000D01*
X154105000Y-58560000D02*
X160322500Y-58560000D01*
X149295000Y-71010000D02*
X149295000Y-64910000D01*
X149295000Y-64910000D02*
X154105000Y-60100000D01*
X154105000Y-60100000D02*
X154105000Y-58560000D01*
D40*
%TO.N,/LA01_N*%
X78034400Y-117755600D02*
X76905000Y-118885000D01*
X84906000Y-109889788D02*
X84906000Y-114334788D01*
X86324789Y-108470999D02*
X84906000Y-109889788D01*
X87319001Y-108470999D02*
X86324789Y-108470999D01*
X81485188Y-117755600D02*
X78034400Y-117755600D01*
X84155447Y-115085341D02*
X84150707Y-115080600D01*
X83265340Y-115975448D02*
X81485188Y-117755600D01*
X83260600Y-115970707D02*
X83265340Y-115975448D01*
X84906000Y-114334788D02*
X84155447Y-115085341D01*
X87700000Y-108090000D02*
X87319001Y-108470999D01*
X84150707Y-115080600D02*
X83629293Y-115080600D01*
X83629293Y-115080600D02*
X83260600Y-115449293D01*
X83260600Y-115449293D02*
X83260600Y-115970707D01*
%TO.N,/LA01_P*%
X86535211Y-108979001D02*
X85414000Y-110100212D01*
X84519400Y-115449293D02*
X84519400Y-115970707D01*
X81074212Y-118885000D02*
X79445000Y-118885000D01*
X87319001Y-108979001D02*
X86535211Y-108979001D01*
X84519400Y-115970707D02*
X84150707Y-116339400D01*
X85414000Y-110100212D02*
X85414000Y-114545212D01*
X84514659Y-115444553D02*
X84519400Y-115449293D01*
X83629293Y-116339400D02*
X83624552Y-116334660D01*
X85414000Y-114545212D02*
X84514659Y-115444553D01*
X87700000Y-109360000D02*
X87319001Y-108979001D01*
X83624552Y-116334660D02*
X81074212Y-118885000D01*
X84150707Y-116339400D02*
X83629293Y-116339400D01*
D39*
%TO.N,Net-(R46-Pad2)*%
X150565000Y-52845000D02*
X152105000Y-54385000D01*
X149295000Y-52845000D02*
X150565000Y-52845000D01*
X148595000Y-58560000D02*
X152105000Y-58560000D01*
X152105000Y-54385000D02*
X152105000Y-58560000D01*
%TO.N,Net-(R47-Pad2)*%
X148595000Y-87770000D02*
X151835000Y-87770000D01*
X149295000Y-82055000D02*
X150565000Y-82055000D01*
X150565000Y-82055000D02*
X151835000Y-83325000D01*
X151835000Y-83325000D02*
X151835000Y-87770000D01*
%TD*%
%TA.AperFunction,Conductor*%
%TO.N,3V3*%
G36*
X128122500Y-68315519D02*
G01*
X128102815Y-68382558D01*
X128086181Y-68403200D01*
X126669192Y-69820188D01*
X126607869Y-69853673D01*
X126538177Y-69848689D01*
X126482244Y-69806817D01*
X126466950Y-69779959D01*
X126460864Y-69765267D01*
X126432700Y-69697271D01*
X126432700Y-69697270D01*
X126406014Y-69662492D01*
X126340451Y-69577049D01*
X126220233Y-69484802D01*
X126220229Y-69484800D01*
X126156801Y-69458527D01*
X126080236Y-69426813D01*
X126039451Y-69421443D01*
X125984470Y-69414205D01*
X125920574Y-69385938D01*
X125882103Y-69327614D01*
X125879042Y-69315473D01*
X125870886Y-69274465D01*
X125825915Y-69165897D01*
X125824266Y-69161290D01*
X125813397Y-69145022D01*
X125792520Y-69078344D01*
X125792500Y-69076132D01*
X125792500Y-68071741D01*
X125812185Y-68004702D01*
X125824351Y-67988768D01*
X125856859Y-67952665D01*
X125946250Y-67797835D01*
X126001497Y-67627803D01*
X126020185Y-67450000D01*
X126001497Y-67272197D01*
X125946250Y-67102165D01*
X125856859Y-66947335D01*
X125810003Y-66895296D01*
X125737235Y-66814478D01*
X125737232Y-66814476D01*
X125737231Y-66814475D01*
X125737230Y-66814474D01*
X125592593Y-66709388D01*
X125429267Y-66636671D01*
X125429265Y-66636670D01*
X125429264Y-66636670D01*
X125263219Y-66601376D01*
X125201737Y-66568184D01*
X125167961Y-66507020D01*
X125165000Y-66480086D01*
X125165000Y-61713412D01*
X125184685Y-61646373D01*
X125196843Y-61630446D01*
X125221859Y-61602665D01*
X125311250Y-61447835D01*
X125366497Y-61277803D01*
X125385185Y-61100000D01*
X125366497Y-60922197D01*
X125311250Y-60752165D01*
X125221859Y-60597335D01*
X125215705Y-60590500D01*
X125196849Y-60569558D01*
X125166620Y-60506566D01*
X125165000Y-60486587D01*
X125165000Y-60338000D01*
X125165000Y-58560000D01*
X128122500Y-58560000D01*
X128122500Y-68315519D01*
G37*
%TD.AperFunction*%
%TD*%
%TA.AperFunction,Conductor*%
%TO.N,1V5*%
G36*
X130429594Y-89059685D02*
G01*
X130475349Y-89112489D01*
X130485293Y-89181647D01*
X130468094Y-89229097D01*
X130380643Y-89370875D01*
X130380641Y-89370880D01*
X130325494Y-89537302D01*
X130325493Y-89537309D01*
X130315000Y-89640013D01*
X130315000Y-89790000D01*
X132714999Y-89790000D01*
X132714999Y-89640028D01*
X132714998Y-89640013D01*
X132704505Y-89537302D01*
X132649358Y-89370880D01*
X132649356Y-89370875D01*
X132561906Y-89229097D01*
X132543466Y-89161705D01*
X132564388Y-89095041D01*
X132618030Y-89050271D01*
X132667445Y-89040000D01*
X134384638Y-89040000D01*
X134451677Y-89059685D01*
X134472319Y-89076319D01*
X134653681Y-89257681D01*
X134687166Y-89319004D01*
X134690000Y-89345362D01*
X134690000Y-96354638D01*
X134670315Y-96421677D01*
X134653681Y-96442319D01*
X134472319Y-96623681D01*
X134410996Y-96657166D01*
X134384638Y-96660000D01*
X132848633Y-96660000D01*
X132781594Y-96640315D01*
X132735839Y-96587511D01*
X132730927Y-96575004D01*
X132708175Y-96506343D01*
X132674814Y-96405666D01*
X132582712Y-96256344D01*
X132458656Y-96132288D01*
X132455342Y-96130243D01*
X132453546Y-96128248D01*
X132452989Y-96127807D01*
X132453064Y-96127711D01*
X132408618Y-96078297D01*
X132397397Y-96009334D01*
X132425240Y-95945252D01*
X132455348Y-95919165D01*
X132458342Y-95917318D01*
X132582315Y-95793345D01*
X132674356Y-95644124D01*
X132674358Y-95644119D01*
X132729505Y-95477697D01*
X132729506Y-95477690D01*
X132739999Y-95374986D01*
X132740000Y-95374973D01*
X132740000Y-95237500D01*
X130290001Y-95237500D01*
X130290001Y-95374986D01*
X130300494Y-95477697D01*
X130355641Y-95644119D01*
X130355643Y-95644124D01*
X130447684Y-95793345D01*
X130571655Y-95917316D01*
X130571659Y-95917319D01*
X130574656Y-95919168D01*
X130576279Y-95920972D01*
X130577323Y-95921798D01*
X130577181Y-95921976D01*
X130621381Y-95971116D01*
X130632602Y-96040079D01*
X130604759Y-96104161D01*
X130574661Y-96130241D01*
X130571349Y-96132283D01*
X130571343Y-96132288D01*
X130447289Y-96256342D01*
X130355187Y-96405663D01*
X130355185Y-96405668D01*
X130299073Y-96575004D01*
X130259300Y-96632449D01*
X130194784Y-96659272D01*
X130181367Y-96660000D01*
X129038633Y-96660000D01*
X128971594Y-96640315D01*
X128925839Y-96587511D01*
X128920927Y-96575004D01*
X128898175Y-96506343D01*
X128864814Y-96405666D01*
X128772712Y-96256344D01*
X128648656Y-96132288D01*
X128645342Y-96130243D01*
X128643546Y-96128248D01*
X128642989Y-96127807D01*
X128643064Y-96127711D01*
X128598618Y-96078297D01*
X128587397Y-96009334D01*
X128615240Y-95945252D01*
X128645348Y-95919165D01*
X128648342Y-95917318D01*
X128772315Y-95793345D01*
X128864356Y-95644124D01*
X128864358Y-95644119D01*
X128919505Y-95477697D01*
X128919506Y-95477690D01*
X128929999Y-95374986D01*
X128930000Y-95374973D01*
X128930000Y-95237500D01*
X126480001Y-95237500D01*
X126480001Y-95374986D01*
X126490494Y-95477697D01*
X126545641Y-95644119D01*
X126545643Y-95644124D01*
X126637684Y-95793345D01*
X126761655Y-95917316D01*
X126761659Y-95917319D01*
X126764656Y-95919168D01*
X126766279Y-95920972D01*
X126767323Y-95921798D01*
X126767181Y-95921976D01*
X126811381Y-95971116D01*
X126822602Y-96040079D01*
X126794759Y-96104161D01*
X126764661Y-96130241D01*
X126761349Y-96132283D01*
X126761343Y-96132288D01*
X126637289Y-96256342D01*
X126545187Y-96405663D01*
X126545185Y-96405668D01*
X126489073Y-96575004D01*
X126449300Y-96632449D01*
X126384784Y-96659272D01*
X126371367Y-96660000D01*
X123296695Y-96660000D01*
X123229656Y-96640315D01*
X123191157Y-96601097D01*
X123132714Y-96506347D01*
X123132711Y-96506343D01*
X123008657Y-96382289D01*
X123008656Y-96382288D01*
X122859334Y-96290186D01*
X122692797Y-96235001D01*
X122692795Y-96235000D01*
X122590010Y-96224500D01*
X121389998Y-96224500D01*
X121389981Y-96224501D01*
X121287203Y-96235000D01*
X121287200Y-96235001D01*
X121120668Y-96290185D01*
X121120663Y-96290187D01*
X120971342Y-96382289D01*
X120847288Y-96506343D01*
X120847285Y-96506347D01*
X120788843Y-96601097D01*
X120736895Y-96647822D01*
X120683305Y-96660000D01*
X116012730Y-96660000D01*
X115945691Y-96640315D01*
X115925049Y-96623681D01*
X115923656Y-96622288D01*
X115923652Y-96622285D01*
X115818403Y-96557366D01*
X115771678Y-96505418D01*
X115759500Y-96451828D01*
X115759500Y-96233170D01*
X115779185Y-96166131D01*
X115818402Y-96127632D01*
X115923656Y-96062712D01*
X116047712Y-95938656D01*
X116139814Y-95789334D01*
X116194999Y-95622797D01*
X116205500Y-95520009D01*
X116205499Y-94719992D01*
X116198973Y-94656111D01*
X116194999Y-94617203D01*
X116194998Y-94617200D01*
X116155270Y-94497309D01*
X116139814Y-94450666D01*
X116047712Y-94301344D01*
X115953695Y-94207327D01*
X115920210Y-94146004D01*
X115925194Y-94076312D01*
X115926037Y-94075000D01*
X120690001Y-94075000D01*
X120690001Y-95124986D01*
X120700494Y-95227697D01*
X120755641Y-95394119D01*
X120755643Y-95394124D01*
X120847684Y-95543345D01*
X120971654Y-95667315D01*
X121120875Y-95759356D01*
X121120880Y-95759358D01*
X121287302Y-95814505D01*
X121287309Y-95814506D01*
X121390019Y-95824999D01*
X121739999Y-95824999D01*
X121740000Y-95824998D01*
X121740000Y-94075000D01*
X122240000Y-94075000D01*
X122240000Y-95824999D01*
X122589972Y-95824999D01*
X122589986Y-95824998D01*
X122692697Y-95814505D01*
X122859119Y-95759358D01*
X122859124Y-95759356D01*
X123008345Y-95667315D01*
X123132315Y-95543345D01*
X123224356Y-95394124D01*
X123224358Y-95394119D01*
X123279505Y-95227697D01*
X123279506Y-95227690D01*
X123289999Y-95124986D01*
X123290000Y-95124973D01*
X123290000Y-94737500D01*
X126480000Y-94737500D01*
X127455000Y-94737500D01*
X127455000Y-93900000D01*
X127955000Y-93900000D01*
X127955000Y-94737500D01*
X128929999Y-94737500D01*
X130290000Y-94737500D01*
X131265000Y-94737500D01*
X131265000Y-93900000D01*
X131765000Y-93900000D01*
X131765000Y-94737500D01*
X132739999Y-94737500D01*
X132739999Y-94600028D01*
X132739998Y-94600013D01*
X132729505Y-94497302D01*
X132674358Y-94330880D01*
X132674356Y-94330875D01*
X132582315Y-94181654D01*
X132458345Y-94057684D01*
X132309124Y-93965643D01*
X132309119Y-93965641D01*
X132142697Y-93910494D01*
X132142690Y-93910493D01*
X132039986Y-93900000D01*
X131765000Y-93900000D01*
X131265000Y-93900000D01*
X130990029Y-93900000D01*
X130990012Y-93900001D01*
X130887302Y-93910494D01*
X130720880Y-93965641D01*
X130720875Y-93965643D01*
X130571654Y-94057684D01*
X130447684Y-94181654D01*
X130355643Y-94330875D01*
X130355641Y-94330880D01*
X130300494Y-94497302D01*
X130300493Y-94497309D01*
X130290000Y-94600013D01*
X130290000Y-94737500D01*
X128929999Y-94737500D01*
X128929999Y-94600028D01*
X128929998Y-94600013D01*
X128919505Y-94497302D01*
X128864358Y-94330880D01*
X128864356Y-94330875D01*
X128772315Y-94181654D01*
X128648345Y-94057684D01*
X128499124Y-93965643D01*
X128499119Y-93965641D01*
X128332697Y-93910494D01*
X128332690Y-93910493D01*
X128229986Y-93900000D01*
X127955000Y-93900000D01*
X127455000Y-93900000D01*
X127180029Y-93900000D01*
X127180012Y-93900001D01*
X127077302Y-93910494D01*
X126910880Y-93965641D01*
X126910875Y-93965643D01*
X126761654Y-94057684D01*
X126637684Y-94181654D01*
X126545643Y-94330875D01*
X126545641Y-94330880D01*
X126490494Y-94497302D01*
X126490493Y-94497309D01*
X126480000Y-94600013D01*
X126480000Y-94737500D01*
X123290000Y-94737500D01*
X123290000Y-94075000D01*
X122240000Y-94075000D01*
X121740000Y-94075000D01*
X120690001Y-94075000D01*
X115926037Y-94075000D01*
X115953695Y-94031964D01*
X116047317Y-93938342D01*
X116139356Y-93789124D01*
X116139358Y-93789119D01*
X116194505Y-93622697D01*
X116194506Y-93622690D01*
X116204999Y-93519986D01*
X116205000Y-93519973D01*
X116205000Y-93370000D01*
X113805001Y-93370000D01*
X113805001Y-93519986D01*
X113815494Y-93622697D01*
X113870641Y-93789119D01*
X113870643Y-93789124D01*
X113962684Y-93938345D01*
X114056304Y-94031965D01*
X114089789Y-94093288D01*
X114084805Y-94162980D01*
X114056305Y-94207327D01*
X113962287Y-94301345D01*
X113870187Y-94450663D01*
X113870185Y-94450668D01*
X113863346Y-94471307D01*
X113815001Y-94617203D01*
X113815001Y-94617204D01*
X113815000Y-94617204D01*
X113804500Y-94719983D01*
X113804500Y-95520001D01*
X113804501Y-95520019D01*
X113815000Y-95622796D01*
X113815001Y-95622799D01*
X113870185Y-95789331D01*
X113870187Y-95789336D01*
X113885712Y-95814506D01*
X113962288Y-95938656D01*
X114086344Y-96062712D01*
X114191597Y-96127632D01*
X114238321Y-96179578D01*
X114250500Y-96233170D01*
X114250500Y-96451828D01*
X114230815Y-96518867D01*
X114191597Y-96557366D01*
X114086347Y-96622285D01*
X114086343Y-96622288D01*
X114084951Y-96623681D01*
X114083759Y-96624331D01*
X114080681Y-96626766D01*
X114080264Y-96626239D01*
X114023628Y-96657166D01*
X113997270Y-96660000D01*
X102610362Y-96660000D01*
X102543323Y-96640315D01*
X102522681Y-96623681D01*
X102341319Y-96442319D01*
X102307834Y-96380996D01*
X102305000Y-96354638D01*
X102305000Y-96282500D01*
X102324685Y-96215461D01*
X102377489Y-96169706D01*
X102429000Y-96158500D01*
X102957028Y-96158500D01*
X103024067Y-96178185D01*
X103034715Y-96185853D01*
X103135704Y-96267030D01*
X103135707Y-96267032D01*
X103306302Y-96351639D01*
X103306303Y-96351639D01*
X103306307Y-96351641D01*
X103491111Y-96397600D01*
X103533877Y-96400500D01*
X104936122Y-96400499D01*
X104978889Y-96397600D01*
X105163693Y-96351641D01*
X105334296Y-96267030D01*
X105482722Y-96147722D01*
X105602030Y-95999296D01*
X105686641Y-95828693D01*
X105732600Y-95643889D01*
X105735500Y-95601123D01*
X105735499Y-94698878D01*
X105732600Y-94656111D01*
X105686641Y-94471307D01*
X105616996Y-94330880D01*
X105602032Y-94300707D01*
X105602030Y-94300704D01*
X105482724Y-94152280D01*
X105482722Y-94152278D01*
X105413112Y-94096324D01*
X105373196Y-94038985D01*
X105370616Y-93969163D01*
X105406194Y-93909030D01*
X105413115Y-93903033D01*
X105482366Y-93847367D01*
X105482367Y-93847366D01*
X105601607Y-93699025D01*
X105601609Y-93699022D01*
X105686168Y-93528523D01*
X105732102Y-93343824D01*
X105735000Y-93301096D01*
X105735000Y-93100000D01*
X109035000Y-93100000D01*
X109035000Y-94308000D01*
X109045608Y-94427325D01*
X109045609Y-94427328D01*
X109101557Y-94622861D01*
X109195721Y-94803129D01*
X109324246Y-94960753D01*
X109481870Y-95089278D01*
X109662138Y-95183442D01*
X109857671Y-95239390D01*
X109857674Y-95239391D01*
X109976999Y-95249999D01*
X109977002Y-95250000D01*
X110285000Y-95250000D01*
X110285000Y-93100000D01*
X110785000Y-93100000D01*
X110785000Y-95250000D01*
X111092998Y-95250000D01*
X111093000Y-95249999D01*
X111212325Y-95239391D01*
X111212328Y-95239390D01*
X111407861Y-95183442D01*
X111588129Y-95089278D01*
X111745753Y-94960753D01*
X111874278Y-94803129D01*
X111968442Y-94622861D01*
X112024390Y-94427328D01*
X112024391Y-94427325D01*
X112034999Y-94308000D01*
X112035000Y-94307998D01*
X112035000Y-93100000D01*
X110785000Y-93100000D01*
X110285000Y-93100000D01*
X109035000Y-93100000D01*
X105735000Y-93100000D01*
X102735000Y-93100000D01*
X102735000Y-93301096D01*
X102737897Y-93343824D01*
X102783831Y-93528523D01*
X102868390Y-93699022D01*
X102868392Y-93699025D01*
X102987630Y-93847364D01*
X103056884Y-93903031D01*
X103096803Y-93960375D01*
X103099383Y-94030197D01*
X103063805Y-94090329D01*
X103056887Y-94096324D01*
X103045581Y-94105411D01*
X103034716Y-94114145D01*
X102970135Y-94140805D01*
X102957028Y-94141500D01*
X102429000Y-94141500D01*
X102361961Y-94121815D01*
X102316206Y-94069011D01*
X102305000Y-94017500D01*
X102305000Y-93295334D01*
X102324685Y-93228295D01*
X102325898Y-93226443D01*
X102338629Y-93207390D01*
X102338633Y-93207383D01*
X102338633Y-93207381D01*
X102395503Y-93070083D01*
X102395505Y-93070079D01*
X102424501Y-92924312D01*
X102424501Y-92870000D01*
X113805000Y-92870000D01*
X114755000Y-92870000D01*
X114755000Y-92020000D01*
X115255000Y-92020000D01*
X115255000Y-92870000D01*
X116204999Y-92870000D01*
X116204999Y-92850000D01*
X118594815Y-92850000D01*
X118613503Y-93027805D01*
X118613504Y-93027807D01*
X118668747Y-93197829D01*
X118668750Y-93197835D01*
X118758141Y-93352665D01*
X118773750Y-93370000D01*
X118877764Y-93485521D01*
X118877767Y-93485523D01*
X118877770Y-93485526D01*
X119022407Y-93590612D01*
X119185733Y-93663329D01*
X119360609Y-93700500D01*
X119360610Y-93700500D01*
X119539389Y-93700500D01*
X119539391Y-93700500D01*
X119714267Y-93663329D01*
X119877593Y-93590612D01*
X119899081Y-93575000D01*
X120690000Y-93575000D01*
X121740000Y-93575000D01*
X121740000Y-91825000D01*
X122240000Y-91825000D01*
X122240000Y-93575000D01*
X123289999Y-93575000D01*
X123289999Y-92525028D01*
X123289998Y-92525013D01*
X123279505Y-92422302D01*
X123224358Y-92255880D01*
X123224356Y-92255875D01*
X123132315Y-92106654D01*
X123008345Y-91982684D01*
X122859124Y-91890643D01*
X122859119Y-91890641D01*
X122692697Y-91835494D01*
X122692690Y-91835493D01*
X122589986Y-91825000D01*
X122240000Y-91825000D01*
X121740000Y-91825000D01*
X121390028Y-91825000D01*
X121390012Y-91825001D01*
X121287302Y-91835494D01*
X121120880Y-91890641D01*
X121120875Y-91890643D01*
X120971654Y-91982684D01*
X120847684Y-92106654D01*
X120755643Y-92255875D01*
X120755641Y-92255880D01*
X120700494Y-92422302D01*
X120700493Y-92422309D01*
X120690000Y-92525013D01*
X120690000Y-93575000D01*
X119899081Y-93575000D01*
X120022230Y-93485526D01*
X120141859Y-93352665D01*
X120231250Y-93197835D01*
X120286497Y-93027803D01*
X120305185Y-92850000D01*
X120286497Y-92672197D01*
X120231250Y-92502165D01*
X120141859Y-92347335D01*
X120095003Y-92295296D01*
X120022235Y-92214478D01*
X120022232Y-92214476D01*
X120022231Y-92214475D01*
X120022230Y-92214474D01*
X119877593Y-92109388D01*
X119714267Y-92036671D01*
X119714265Y-92036670D01*
X119586594Y-92009533D01*
X119539391Y-91999500D01*
X119360609Y-91999500D01*
X119329954Y-92006015D01*
X119185733Y-92036670D01*
X119185728Y-92036672D01*
X119022408Y-92109387D01*
X118877768Y-92214475D01*
X118758140Y-92347336D01*
X118668750Y-92502164D01*
X118668747Y-92502170D01*
X118613504Y-92672192D01*
X118613503Y-92672194D01*
X118594815Y-92850000D01*
X116204999Y-92850000D01*
X116204999Y-92720028D01*
X116204998Y-92720013D01*
X116194505Y-92617302D01*
X116139358Y-92450880D01*
X116139356Y-92450875D01*
X116047315Y-92301654D01*
X115923345Y-92177684D01*
X115774124Y-92085643D01*
X115774119Y-92085641D01*
X115607697Y-92030494D01*
X115607690Y-92030493D01*
X115504986Y-92020000D01*
X115255000Y-92020000D01*
X114755000Y-92020000D01*
X114505029Y-92020000D01*
X114505012Y-92020001D01*
X114402302Y-92030494D01*
X114235880Y-92085641D01*
X114235875Y-92085643D01*
X114086654Y-92177684D01*
X113962684Y-92301654D01*
X113870643Y-92450875D01*
X113870641Y-92450880D01*
X113815494Y-92617302D01*
X113815493Y-92617309D01*
X113805000Y-92720013D01*
X113805000Y-92870000D01*
X102424501Y-92870000D01*
X102424501Y-92775688D01*
X102424501Y-92770578D01*
X102424500Y-92770552D01*
X102424500Y-91943886D01*
X102444185Y-91876847D01*
X102460815Y-91856209D01*
X102792411Y-91524612D01*
X102853732Y-91491129D01*
X102923423Y-91496113D01*
X102976736Y-91534608D01*
X102987276Y-91547719D01*
X102987278Y-91547722D01*
X103056884Y-91603673D01*
X103096803Y-91661016D01*
X103099383Y-91730838D01*
X103063804Y-91790971D01*
X103056885Y-91796967D01*
X102987631Y-91852635D01*
X102868392Y-92000974D01*
X102868390Y-92000977D01*
X102783831Y-92171476D01*
X102737897Y-92356175D01*
X102735000Y-92398903D01*
X102735000Y-92600000D01*
X105735000Y-92600000D01*
X109035000Y-92600000D01*
X110285000Y-92600000D01*
X110285000Y-90450000D01*
X110785000Y-90450000D01*
X110785000Y-92600000D01*
X112035000Y-92600000D01*
X112035000Y-91392002D01*
X112034999Y-91391999D01*
X112024391Y-91272674D01*
X112024390Y-91272671D01*
X111968442Y-91077138D01*
X111874278Y-90896870D01*
X111745753Y-90739246D01*
X111588129Y-90610721D01*
X111407861Y-90516557D01*
X111212328Y-90460609D01*
X111212325Y-90460608D01*
X111093000Y-90450000D01*
X110785000Y-90450000D01*
X110285000Y-90450000D01*
X109976999Y-90450000D01*
X109857674Y-90460608D01*
X109857671Y-90460609D01*
X109662138Y-90516557D01*
X109481870Y-90610721D01*
X109324246Y-90739246D01*
X109195721Y-90896870D01*
X109101557Y-91077138D01*
X109045609Y-91272671D01*
X109045608Y-91272674D01*
X109035000Y-91391999D01*
X109035000Y-92600000D01*
X105735000Y-92600000D01*
X105735000Y-92398903D01*
X105732102Y-92356175D01*
X105686168Y-92171476D01*
X105601609Y-92000977D01*
X105601607Y-92000974D01*
X105482367Y-91852633D01*
X105482366Y-91852632D01*
X105413115Y-91796967D01*
X105373196Y-91739624D01*
X105370616Y-91669802D01*
X105406194Y-91609669D01*
X105413089Y-91603694D01*
X105482722Y-91547722D01*
X105602030Y-91399296D01*
X105686641Y-91228693D01*
X105732600Y-91043889D01*
X105735500Y-91001123D01*
X105735499Y-90290000D01*
X130315001Y-90290000D01*
X130315001Y-90439986D01*
X130325494Y-90542697D01*
X130380641Y-90709119D01*
X130380643Y-90709124D01*
X130472684Y-90858345D01*
X130596654Y-90982315D01*
X130745875Y-91074356D01*
X130745880Y-91074358D01*
X130912302Y-91129505D01*
X130912309Y-91129506D01*
X131015019Y-91139999D01*
X131264999Y-91139999D01*
X131265000Y-91139998D01*
X131265000Y-90290000D01*
X131765000Y-90290000D01*
X131765000Y-91139999D01*
X132014972Y-91139999D01*
X132014986Y-91139998D01*
X132117697Y-91129505D01*
X132284119Y-91074358D01*
X132284124Y-91074356D01*
X132433345Y-90982315D01*
X132557315Y-90858345D01*
X132649356Y-90709124D01*
X132649358Y-90709119D01*
X132704505Y-90542697D01*
X132704506Y-90542690D01*
X132714999Y-90439986D01*
X132715000Y-90439973D01*
X132715000Y-90290000D01*
X131765000Y-90290000D01*
X131265000Y-90290000D01*
X130315001Y-90290000D01*
X105735499Y-90290000D01*
X105735499Y-90098878D01*
X105732600Y-90056111D01*
X105686869Y-89872224D01*
X105689793Y-89802418D01*
X105729993Y-89745272D01*
X105794708Y-89718931D01*
X105807204Y-89718300D01*
X118881808Y-89718300D01*
X118881809Y-89718299D01*
X119012853Y-89692234D01*
X119100140Y-89656078D01*
X119136296Y-89641102D01*
X119247391Y-89566870D01*
X119341870Y-89472391D01*
X119737942Y-89076319D01*
X119799265Y-89042834D01*
X119825623Y-89040000D01*
X130362555Y-89040000D01*
X130429594Y-89059685D01*
G37*
%TD.AperFunction*%
%TD*%
%TA.AperFunction,Conductor*%
%TO.N,3V3*%
G36*
X84715393Y-74262690D02*
G01*
X84765881Y-74293300D01*
X85942589Y-75470008D01*
X85999778Y-75527197D01*
X86029993Y-75557412D01*
X86132760Y-75626079D01*
X86132773Y-75626086D01*
X86246960Y-75673383D01*
X86246965Y-75673385D01*
X86246969Y-75673385D01*
X86246970Y-75673386D01*
X86368194Y-75697500D01*
X86368197Y-75697500D01*
X86874101Y-75697500D01*
X86941140Y-75717185D01*
X86986895Y-75769989D01*
X86996839Y-75839147D01*
X86981488Y-75883500D01*
X86918750Y-75992164D01*
X86918747Y-75992170D01*
X86863504Y-76162192D01*
X86863503Y-76162194D01*
X86844815Y-76340000D01*
X86863503Y-76517805D01*
X86863504Y-76517807D01*
X86918747Y-76687829D01*
X86918750Y-76687835D01*
X87008138Y-76842661D01*
X87008139Y-76842663D01*
X87008141Y-76842665D01*
X87042576Y-76880909D01*
X87052588Y-76892028D01*
X87082817Y-76955020D01*
X87074191Y-77024355D01*
X87052588Y-77057972D01*
X87008138Y-77107338D01*
X86918750Y-77262164D01*
X86918747Y-77262170D01*
X86863504Y-77432192D01*
X86863503Y-77432194D01*
X86844815Y-77610000D01*
X86863503Y-77787805D01*
X86863504Y-77787807D01*
X86918747Y-77957829D01*
X86918750Y-77957835D01*
X87008141Y-78112665D01*
X87032203Y-78139388D01*
X87127764Y-78245521D01*
X87127767Y-78245523D01*
X87127770Y-78245526D01*
X87272407Y-78350612D01*
X87435733Y-78423329D01*
X87610609Y-78460500D01*
X87610610Y-78460500D01*
X87789389Y-78460500D01*
X87789391Y-78460500D01*
X87964267Y-78423329D01*
X88013631Y-78401350D01*
X88082878Y-78392065D01*
X88146155Y-78421693D01*
X88183369Y-78480828D01*
X88182705Y-78550694D01*
X88181996Y-78552947D01*
X88133505Y-78702189D01*
X88133503Y-78702194D01*
X88114815Y-78879999D01*
X88133503Y-79057804D01*
X88133505Y-79057809D01*
X88146977Y-79099273D01*
X88148972Y-79169114D01*
X88116728Y-79225271D01*
X87990024Y-79351976D01*
X87863317Y-79478682D01*
X87801997Y-79512166D01*
X87775638Y-79515000D01*
X85463781Y-79515000D01*
X85396742Y-79495315D01*
X85376100Y-79478681D01*
X84925011Y-79027591D01*
X84925010Y-79027590D01*
X84902180Y-79012336D01*
X84902179Y-79012335D01*
X84822232Y-78958916D01*
X84818506Y-78957373D01*
X84764103Y-78913532D01*
X84742639Y-78855776D01*
X84726497Y-78702197D01*
X84678003Y-78552947D01*
X84671252Y-78532170D01*
X84671249Y-78532164D01*
X84652643Y-78499937D01*
X84581859Y-78377335D01*
X84537412Y-78327972D01*
X84507182Y-78264981D01*
X84515807Y-78195646D01*
X84537412Y-78162028D01*
X84538124Y-78161236D01*
X84581859Y-78112665D01*
X84671250Y-77957835D01*
X84726497Y-77787803D01*
X84745185Y-77610000D01*
X84726497Y-77432197D01*
X84671250Y-77262165D01*
X84581859Y-77107335D01*
X84537412Y-77057972D01*
X84507182Y-76994981D01*
X84515807Y-76925646D01*
X84537412Y-76892028D01*
X84538124Y-76891236D01*
X84581859Y-76842665D01*
X84671250Y-76687835D01*
X84726497Y-76517803D01*
X84745185Y-76340000D01*
X84726497Y-76162197D01*
X84687692Y-76042767D01*
X84671252Y-75992170D01*
X84671249Y-75992164D01*
X84669208Y-75988629D01*
X84581859Y-75837335D01*
X84549350Y-75801230D01*
X84519120Y-75738238D01*
X84517500Y-75718258D01*
X84517500Y-75008194D01*
X84493386Y-74886970D01*
X84493385Y-74886969D01*
X84493385Y-74886965D01*
X84479938Y-74854500D01*
X84446086Y-74772773D01*
X84446079Y-74772760D01*
X84377411Y-74669992D01*
X84373546Y-74665282D01*
X84375239Y-74663892D01*
X84346479Y-74611221D01*
X84351463Y-74541529D01*
X84393335Y-74485596D01*
X84394618Y-74484649D01*
X84462230Y-74435526D01*
X84581859Y-74302665D01*
X84581863Y-74302658D01*
X84586049Y-74298009D01*
X84645536Y-74261361D01*
X84715393Y-74262690D01*
G37*
%TD.AperFunction*%
%TA.AperFunction,Conductor*%
G36*
X153882677Y-50324685D02*
G01*
X153903319Y-50341319D01*
X154338681Y-50776681D01*
X154372166Y-50838004D01*
X154375000Y-50864362D01*
X154375000Y-57235500D01*
X154355315Y-57302539D01*
X154302511Y-57348294D01*
X154251000Y-57359500D01*
X153704998Y-57359500D01*
X153704980Y-57359501D01*
X153602203Y-57370000D01*
X153602200Y-57370001D01*
X153435668Y-57425185D01*
X153435663Y-57425187D01*
X153286342Y-57517289D01*
X153192681Y-57610951D01*
X153131358Y-57644436D01*
X153061666Y-57639452D01*
X153017319Y-57610951D01*
X152923656Y-57517288D01*
X152918400Y-57514046D01*
X152871677Y-57462097D01*
X152859500Y-57408509D01*
X152859500Y-54465446D01*
X152859501Y-54465425D01*
X152859501Y-54310685D01*
X152830506Y-54164926D01*
X152830505Y-54164925D01*
X152830505Y-54164921D01*
X152773630Y-54027611D01*
X152712866Y-53936671D01*
X152691059Y-53904034D01*
X152691057Y-53904031D01*
X152581647Y-53794621D01*
X152581624Y-53794600D01*
X151045969Y-52258943D01*
X151045968Y-52258942D01*
X151004773Y-52231417D01*
X150922389Y-52176370D01*
X150922386Y-52176368D01*
X150922385Y-52176368D01*
X150841955Y-52143053D01*
X150785080Y-52119495D01*
X150760894Y-52114684D01*
X150639314Y-52090499D01*
X150639312Y-52090499D01*
X150490688Y-52090499D01*
X150484574Y-52090499D01*
X150484554Y-52090500D01*
X150408171Y-52090500D01*
X150341132Y-52070815D01*
X150302632Y-52031597D01*
X150295000Y-52019223D01*
X150237712Y-51926344D01*
X150113656Y-51802288D01*
X149964334Y-51710186D01*
X149797797Y-51655001D01*
X149797795Y-51655000D01*
X149695010Y-51644500D01*
X148894998Y-51644500D01*
X148894980Y-51644501D01*
X148792203Y-51655000D01*
X148792200Y-51655001D01*
X148625668Y-51710185D01*
X148625663Y-51710187D01*
X148476342Y-51802289D01*
X148382681Y-51895951D01*
X148321358Y-51929436D01*
X148251666Y-51924452D01*
X148207319Y-51895951D01*
X148113657Y-51802289D01*
X148113656Y-51802288D01*
X147964334Y-51710186D01*
X147797797Y-51655001D01*
X147797795Y-51655000D01*
X147695010Y-51644500D01*
X146894998Y-51644500D01*
X146894980Y-51644501D01*
X146792203Y-51655000D01*
X146792200Y-51655001D01*
X146625668Y-51710185D01*
X146625663Y-51710187D01*
X146476342Y-51802289D01*
X146352289Y-51926342D01*
X146287368Y-52031597D01*
X146235420Y-52078321D01*
X146181829Y-52090500D01*
X141755446Y-52090500D01*
X141755426Y-52090499D01*
X141749312Y-52090499D01*
X141600688Y-52090499D01*
X141600686Y-52090499D01*
X141479105Y-52114684D01*
X141464540Y-52117581D01*
X141454918Y-52119495D01*
X141454917Y-52119495D01*
X141398045Y-52143052D01*
X141398045Y-52143053D01*
X141317616Y-52176368D01*
X141317609Y-52176371D01*
X141194033Y-52258941D01*
X141141487Y-52311487D01*
X141088941Y-52364034D01*
X141088939Y-52364036D01*
X139183943Y-54269030D01*
X139183942Y-54269031D01*
X139101372Y-54392607D01*
X139101366Y-54392618D01*
X139044496Y-54529916D01*
X139044493Y-54529926D01*
X139015499Y-54675685D01*
X139015499Y-54830425D01*
X139015500Y-54830446D01*
X139015500Y-55503509D01*
X138995815Y-55570548D01*
X138956600Y-55609046D01*
X138951343Y-55612288D01*
X138857681Y-55705951D01*
X138796358Y-55739436D01*
X138726666Y-55734452D01*
X138682319Y-55705951D01*
X138588657Y-55612289D01*
X138588656Y-55612288D01*
X138439334Y-55520186D01*
X138272797Y-55465001D01*
X138272795Y-55465000D01*
X138170010Y-55454500D01*
X137369998Y-55454500D01*
X137369980Y-55454501D01*
X137267203Y-55465000D01*
X137267200Y-55465001D01*
X137100668Y-55520185D01*
X137100663Y-55520187D01*
X136951342Y-55612289D01*
X136827289Y-55736342D01*
X136762368Y-55841597D01*
X136710420Y-55888321D01*
X136656829Y-55900500D01*
X135053887Y-55900500D01*
X134986848Y-55880815D01*
X134966210Y-55864185D01*
X134900966Y-55798941D01*
X134890686Y-55792072D01*
X134845882Y-55738461D01*
X134837173Y-55669136D01*
X134867328Y-55606108D01*
X134926770Y-55569389D01*
X134933771Y-55567685D01*
X134954267Y-55563329D01*
X135117593Y-55490612D01*
X135262230Y-55385526D01*
X135381859Y-55252665D01*
X135471250Y-55097835D01*
X135526497Y-54927803D01*
X135545185Y-54750000D01*
X135526497Y-54572197D01*
X135471250Y-54402165D01*
X135381859Y-54247335D01*
X135335003Y-54195296D01*
X135262235Y-54114478D01*
X135262232Y-54114476D01*
X135262231Y-54114475D01*
X135262230Y-54114474D01*
X135142666Y-54027605D01*
X135117592Y-54009387D01*
X134956205Y-53937533D01*
X134918962Y-53911937D01*
X134805966Y-53798941D01*
X134682389Y-53716370D01*
X134682386Y-53716368D01*
X134682385Y-53716368D01*
X134601955Y-53683053D01*
X134545080Y-53659495D01*
X134539590Y-53658403D01*
X134520894Y-53654684D01*
X134512393Y-53652993D01*
X134399314Y-53630499D01*
X134399312Y-53630499D01*
X134250688Y-53630499D01*
X134244574Y-53630499D01*
X134244554Y-53630500D01*
X132666491Y-53630500D01*
X132599452Y-53610815D01*
X132560954Y-53571600D01*
X132557711Y-53566343D01*
X132433657Y-53442289D01*
X132433656Y-53442288D01*
X132284334Y-53350186D01*
X132117797Y-53295001D01*
X132117795Y-53295000D01*
X132015010Y-53284500D01*
X131014998Y-53284500D01*
X131014980Y-53284501D01*
X130912203Y-53295000D01*
X130912200Y-53295001D01*
X130745668Y-53350185D01*
X130745663Y-53350187D01*
X130596342Y-53442289D01*
X130472289Y-53566342D01*
X130380187Y-53715663D01*
X130380185Y-53715668D01*
X130375969Y-53728392D01*
X130325001Y-53882203D01*
X130325001Y-53882204D01*
X130325000Y-53882204D01*
X130314500Y-53984983D01*
X130314500Y-54785001D01*
X130314501Y-54785019D01*
X130325000Y-54887796D01*
X130325001Y-54887799D01*
X130380185Y-55054331D01*
X130380187Y-55054336D01*
X130407014Y-55097829D01*
X130432716Y-55139500D01*
X130472289Y-55203657D01*
X130565951Y-55297319D01*
X130599436Y-55358642D01*
X130594452Y-55428334D01*
X130565951Y-55472681D01*
X130472289Y-55566342D01*
X130380187Y-55715663D01*
X130380185Y-55715668D01*
X130373334Y-55736344D01*
X130325001Y-55882203D01*
X130325001Y-55882204D01*
X130325000Y-55882204D01*
X130314500Y-55984983D01*
X130314500Y-56546717D01*
X130294815Y-56613756D01*
X130278182Y-56634398D01*
X130193900Y-56718681D01*
X130132577Y-56752166D01*
X130106218Y-56755000D01*
X129772492Y-56755000D01*
X129651273Y-56779111D01*
X129651273Y-56779112D01*
X129651270Y-56779113D01*
X129651266Y-56779114D01*
X129584370Y-56806823D01*
X129584368Y-56806823D01*
X129537069Y-56826415D01*
X129477878Y-56865966D01*
X129477877Y-56865967D01*
X129434289Y-56895090D01*
X129434288Y-56895091D01*
X128611695Y-57717686D01*
X128349992Y-57979389D01*
X128327412Y-58001969D01*
X128262586Y-58066794D01*
X128262585Y-58066796D01*
X128193233Y-58170589D01*
X128191586Y-58175193D01*
X128146614Y-58283764D01*
X128146612Y-58283772D01*
X128125764Y-58388581D01*
X128125765Y-58388582D01*
X128122500Y-58404997D01*
X128122500Y-58560000D01*
X125165000Y-58560000D01*
X125165000Y-59830000D01*
X100400000Y-59830000D01*
X100400000Y-60337999D01*
X100400000Y-64350638D01*
X100380315Y-64417677D01*
X100363681Y-64438319D01*
X99928319Y-64873681D01*
X99866996Y-64907166D01*
X99840638Y-64910000D01*
X90240000Y-64910000D01*
X89880790Y-65269209D01*
X89880789Y-65269210D01*
X88694210Y-66455789D01*
X88694209Y-66455790D01*
X88335000Y-66815000D01*
X88335000Y-67322998D01*
X88335000Y-68106587D01*
X88315315Y-68173626D01*
X88303151Y-68189558D01*
X88278142Y-68217333D01*
X88278138Y-68217338D01*
X88188750Y-68372164D01*
X88188747Y-68372170D01*
X88133504Y-68542192D01*
X88133503Y-68542194D01*
X88114815Y-68720000D01*
X88133503Y-68897805D01*
X88133504Y-68897807D01*
X88181996Y-69047051D01*
X88183991Y-69116893D01*
X88147910Y-69176725D01*
X88085209Y-69207553D01*
X88015795Y-69199588D01*
X88013656Y-69198660D01*
X87964267Y-69176671D01*
X87964265Y-69176670D01*
X87836594Y-69149533D01*
X87789391Y-69139500D01*
X87610609Y-69139500D01*
X87579954Y-69146015D01*
X87435733Y-69176670D01*
X87435728Y-69176672D01*
X87272408Y-69249387D01*
X87127768Y-69354475D01*
X87008140Y-69487336D01*
X86918750Y-69642164D01*
X86918747Y-69642170D01*
X86863504Y-69812192D01*
X86863503Y-69812194D01*
X86844815Y-69990000D01*
X86863503Y-70167805D01*
X86863504Y-70167807D01*
X86918747Y-70337829D01*
X86918750Y-70337835D01*
X87008141Y-70492665D01*
X87049812Y-70538946D01*
X87127764Y-70625521D01*
X87127767Y-70625523D01*
X87127770Y-70625526D01*
X87272407Y-70730612D01*
X87435733Y-70803329D01*
X87610609Y-70840500D01*
X87610610Y-70840500D01*
X87789389Y-70840500D01*
X87789391Y-70840500D01*
X87964267Y-70803329D01*
X88013631Y-70781350D01*
X88082878Y-70772065D01*
X88146155Y-70801693D01*
X88183369Y-70860828D01*
X88182705Y-70930694D01*
X88181996Y-70932947D01*
X88133505Y-71082189D01*
X88133503Y-71082194D01*
X88114815Y-71260000D01*
X88133503Y-71437805D01*
X88133504Y-71437807D01*
X88181996Y-71587051D01*
X88183991Y-71656893D01*
X88147910Y-71716725D01*
X88085209Y-71747553D01*
X88015795Y-71739588D01*
X88013656Y-71738660D01*
X87964267Y-71716671D01*
X87964265Y-71716670D01*
X87836594Y-71689533D01*
X87789391Y-71679500D01*
X87610609Y-71679500D01*
X87579954Y-71686015D01*
X87435733Y-71716670D01*
X87435728Y-71716672D01*
X87272408Y-71789387D01*
X87127768Y-71894475D01*
X87008140Y-72027336D01*
X86918750Y-72182164D01*
X86918747Y-72182170D01*
X86863504Y-72352192D01*
X86863503Y-72352194D01*
X86844815Y-72530000D01*
X86863503Y-72707805D01*
X86863504Y-72707807D01*
X86918747Y-72877829D01*
X86918750Y-72877835D01*
X87008141Y-73032665D01*
X87015195Y-73040499D01*
X87127764Y-73165521D01*
X87127767Y-73165523D01*
X87127770Y-73165526D01*
X87272407Y-73270612D01*
X87435733Y-73343329D01*
X87610609Y-73380500D01*
X87610610Y-73380500D01*
X87789389Y-73380500D01*
X87789391Y-73380500D01*
X87964267Y-73343329D01*
X88013631Y-73321350D01*
X88082878Y-73312065D01*
X88146155Y-73341693D01*
X88183369Y-73400828D01*
X88182705Y-73470694D01*
X88181996Y-73472947D01*
X88133505Y-73622189D01*
X88133503Y-73622194D01*
X88114815Y-73800000D01*
X88133503Y-73977805D01*
X88133504Y-73977807D01*
X88181996Y-74127051D01*
X88183991Y-74196893D01*
X88147910Y-74256725D01*
X88085209Y-74287553D01*
X88015795Y-74279588D01*
X88013656Y-74278660D01*
X87964267Y-74256671D01*
X87964265Y-74256670D01*
X87836594Y-74229533D01*
X87789391Y-74219500D01*
X87610609Y-74219500D01*
X87579954Y-74226015D01*
X87435733Y-74256670D01*
X87435728Y-74256672D01*
X87272408Y-74329387D01*
X87178865Y-74397350D01*
X87173703Y-74401102D01*
X87149319Y-74418818D01*
X87083512Y-74442298D01*
X87076433Y-74442500D01*
X86741281Y-74442500D01*
X86674242Y-74422815D01*
X86653600Y-74406181D01*
X84379964Y-72132545D01*
X84346479Y-72071222D01*
X84351463Y-72001530D01*
X84393335Y-71945597D01*
X84394760Y-71944546D01*
X84452631Y-71902500D01*
X84462230Y-71895526D01*
X84463177Y-71894475D01*
X84514477Y-71837500D01*
X84581859Y-71762665D01*
X84671250Y-71607835D01*
X84726497Y-71437803D01*
X84745185Y-71260000D01*
X84726497Y-71082197D01*
X84683472Y-70949780D01*
X84671252Y-70912170D01*
X84671249Y-70912164D01*
X84581859Y-70757335D01*
X84521230Y-70690000D01*
X84462235Y-70624478D01*
X84462232Y-70624476D01*
X84462231Y-70624475D01*
X84462230Y-70624474D01*
X84317593Y-70519388D01*
X84154267Y-70446671D01*
X84154265Y-70446670D01*
X83980719Y-70409782D01*
X83919237Y-70376590D01*
X83885461Y-70315427D01*
X83882500Y-70288492D01*
X83882500Y-69691507D01*
X83902185Y-69624468D01*
X83954989Y-69578713D01*
X83980715Y-69570218D01*
X84115024Y-69541670D01*
X84154263Y-69533330D01*
X84154263Y-69533329D01*
X84154267Y-69533329D01*
X84317593Y-69460612D01*
X84462230Y-69355526D01*
X84463177Y-69354475D01*
X84493936Y-69320313D01*
X84581859Y-69222665D01*
X84671250Y-69067835D01*
X84726497Y-68897803D01*
X84745185Y-68720000D01*
X84726497Y-68542197D01*
X84671250Y-68372165D01*
X84581859Y-68217335D01*
X84535003Y-68165296D01*
X84462235Y-68084478D01*
X84462232Y-68084476D01*
X84462231Y-68084475D01*
X84462230Y-68084474D01*
X84317593Y-67979388D01*
X84154267Y-67906671D01*
X84154265Y-67906670D01*
X83980719Y-67869782D01*
X83919237Y-67836590D01*
X83885461Y-67775427D01*
X83882500Y-67748492D01*
X83882500Y-64848197D01*
X83877886Y-64824999D01*
X83877886Y-64824997D01*
X83877886Y-64824996D01*
X83858387Y-64726971D01*
X83858386Y-64726970D01*
X83858386Y-64726966D01*
X83824575Y-64645341D01*
X83811083Y-64612767D01*
X83790942Y-64582624D01*
X83742414Y-64509996D01*
X83742413Y-64509994D01*
X83708329Y-64475910D01*
X83655008Y-64422589D01*
X83291319Y-64058900D01*
X83257834Y-63997577D01*
X83255000Y-63971219D01*
X83255000Y-60454500D01*
X83274685Y-60387461D01*
X83327489Y-60341706D01*
X83379000Y-60330500D01*
X90940890Y-60330500D01*
X90940892Y-60330500D01*
X91068186Y-60296392D01*
X91182314Y-60230500D01*
X93180500Y-58232314D01*
X93246392Y-58118186D01*
X93280500Y-57990892D01*
X93280500Y-57859107D01*
X93280500Y-54750000D01*
X99544815Y-54750000D01*
X99563503Y-54927805D01*
X99563504Y-54927807D01*
X99618747Y-55097829D01*
X99618750Y-55097835D01*
X99708141Y-55252665D01*
X99748348Y-55297319D01*
X99827764Y-55385521D01*
X99827767Y-55385523D01*
X99827770Y-55385526D01*
X99972407Y-55490612D01*
X100135733Y-55563329D01*
X100310609Y-55600500D01*
X100310610Y-55600500D01*
X100489389Y-55600500D01*
X100489391Y-55600500D01*
X100664267Y-55563329D01*
X100827593Y-55490612D01*
X100972230Y-55385526D01*
X101091859Y-55252665D01*
X101181250Y-55097835D01*
X101236497Y-54927803D01*
X101255185Y-54750000D01*
X118594815Y-54750000D01*
X118613503Y-54927805D01*
X118613504Y-54927807D01*
X118668747Y-55097829D01*
X118668750Y-55097835D01*
X118758141Y-55252665D01*
X118798348Y-55297319D01*
X118877764Y-55385521D01*
X118877767Y-55385523D01*
X118877770Y-55385526D01*
X119022407Y-55490612D01*
X119185733Y-55563329D01*
X119360609Y-55600500D01*
X119360610Y-55600500D01*
X119539389Y-55600500D01*
X119539391Y-55600500D01*
X119714267Y-55563329D01*
X119877593Y-55490612D01*
X120022230Y-55385526D01*
X120141859Y-55252665D01*
X120231250Y-55097835D01*
X120286497Y-54927803D01*
X120305185Y-54750000D01*
X120286497Y-54572197D01*
X120231250Y-54402165D01*
X120141859Y-54247335D01*
X120095003Y-54195296D01*
X120022235Y-54114478D01*
X120022232Y-54114476D01*
X120022231Y-54114475D01*
X120022230Y-54114474D01*
X119877593Y-54009388D01*
X119714267Y-53936671D01*
X119714265Y-53936670D01*
X119586594Y-53909533D01*
X119539391Y-53899500D01*
X119360609Y-53899500D01*
X119339278Y-53904034D01*
X119185733Y-53936670D01*
X119185728Y-53936672D01*
X119022408Y-54009387D01*
X118877768Y-54114475D01*
X118758140Y-54247336D01*
X118668750Y-54402164D01*
X118668747Y-54402170D01*
X118613504Y-54572192D01*
X118613503Y-54572194D01*
X118594815Y-54750000D01*
X101255185Y-54750000D01*
X101236497Y-54572197D01*
X101181250Y-54402165D01*
X101091859Y-54247335D01*
X101045003Y-54195296D01*
X100972235Y-54114478D01*
X100972232Y-54114476D01*
X100972231Y-54114475D01*
X100972230Y-54114474D01*
X100827593Y-54009388D01*
X100664267Y-53936671D01*
X100664265Y-53936670D01*
X100536594Y-53909533D01*
X100489391Y-53899500D01*
X100310609Y-53899500D01*
X100289278Y-53904034D01*
X100135733Y-53936670D01*
X100135728Y-53936672D01*
X99972408Y-54009387D01*
X99827768Y-54114475D01*
X99708140Y-54247336D01*
X99618750Y-54402164D01*
X99618747Y-54402170D01*
X99563504Y-54572192D01*
X99563503Y-54572194D01*
X99544815Y-54750000D01*
X93280500Y-54750000D01*
X93280500Y-50429000D01*
X93300185Y-50361961D01*
X93352989Y-50316206D01*
X93404500Y-50305000D01*
X153815638Y-50305000D01*
X153882677Y-50324685D01*
G37*
%TD.AperFunction*%
%TA.AperFunction,Conductor*%
G36*
X146248868Y-53619185D02*
G01*
X146287367Y-53658402D01*
X146352288Y-53763656D01*
X146476344Y-53887712D01*
X146625666Y-53979814D01*
X146792203Y-54034999D01*
X146894991Y-54045500D01*
X147695008Y-54045499D01*
X147695016Y-54045498D01*
X147695019Y-54045498D01*
X147751302Y-54039748D01*
X147797797Y-54034999D01*
X147964334Y-53979814D01*
X148113656Y-53887712D01*
X148207319Y-53794049D01*
X148268642Y-53760564D01*
X148338334Y-53765548D01*
X148382681Y-53794049D01*
X148476344Y-53887712D01*
X148625666Y-53979814D01*
X148792203Y-54034999D01*
X148894991Y-54045500D01*
X149695008Y-54045499D01*
X149695016Y-54045498D01*
X149695019Y-54045498D01*
X149751302Y-54039748D01*
X149797797Y-54034999D01*
X149964334Y-53979814D01*
X150113656Y-53887712D01*
X150237712Y-53763656D01*
X150237715Y-53763650D01*
X150239489Y-53761877D01*
X150300812Y-53728392D01*
X150370504Y-53733376D01*
X150414852Y-53761877D01*
X151314181Y-54661205D01*
X151347666Y-54722528D01*
X151350500Y-54748886D01*
X151350500Y-57408509D01*
X151330815Y-57475548D01*
X151291600Y-57514046D01*
X151286343Y-57517288D01*
X151162289Y-57641342D01*
X151162288Y-57641344D01*
X151097369Y-57746596D01*
X151097368Y-57746597D01*
X151045420Y-57793321D01*
X150991829Y-57805500D01*
X150155841Y-57805500D01*
X150088802Y-57785815D01*
X150043047Y-57733011D01*
X150033103Y-57663853D01*
X150036765Y-57646905D01*
X150067099Y-57542494D01*
X150067100Y-57542488D01*
X150067295Y-57540001D01*
X150067295Y-57540000D01*
X147122705Y-57540000D01*
X147122704Y-57540001D01*
X147122899Y-57542486D01*
X147168718Y-57700198D01*
X147252314Y-57841552D01*
X147257100Y-57847722D01*
X147254640Y-57849629D01*
X147281210Y-57898288D01*
X147276226Y-57967980D01*
X147255162Y-58000781D01*
X147256699Y-58001974D01*
X147251915Y-58008140D01*
X147168255Y-58149603D01*
X147168254Y-58149606D01*
X147122402Y-58307426D01*
X147122401Y-58307432D01*
X147119500Y-58344298D01*
X147119500Y-58775701D01*
X147122401Y-58812567D01*
X147122402Y-58812573D01*
X147168254Y-58970393D01*
X147168255Y-58970396D01*
X147251917Y-59111862D01*
X147256702Y-59118031D01*
X147254256Y-59119927D01*
X147280857Y-59168642D01*
X147275873Y-59238334D01*
X147255069Y-59270703D01*
X147256702Y-59271969D01*
X147251917Y-59278137D01*
X147168255Y-59419603D01*
X147168254Y-59419606D01*
X147122402Y-59577426D01*
X147122401Y-59577432D01*
X147119500Y-59614298D01*
X147119500Y-59706000D01*
X147099815Y-59773039D01*
X147047011Y-59818794D01*
X146995500Y-59830000D01*
X145968387Y-59830000D01*
X145901348Y-59810315D01*
X145880706Y-59793681D01*
X145330969Y-59243943D01*
X145330968Y-59243942D01*
X145207392Y-59161372D01*
X145207391Y-59161371D01*
X145207389Y-59161370D01*
X145207386Y-59161368D01*
X145207381Y-59161366D01*
X145138658Y-59132901D01*
X145084254Y-59089061D01*
X145062189Y-59022767D01*
X145070595Y-58978188D01*
X145069568Y-58977890D01*
X145117597Y-58812573D01*
X145117598Y-58812567D01*
X145120500Y-58775694D01*
X145120500Y-58344306D01*
X145117598Y-58307431D01*
X145110724Y-58283772D01*
X145071745Y-58149606D01*
X145071744Y-58149603D01*
X145071744Y-58149602D01*
X144988081Y-58008135D01*
X144988078Y-58008132D01*
X144983298Y-58001969D01*
X144985750Y-58000066D01*
X144959155Y-57951421D01*
X144964104Y-57881726D01*
X144984940Y-57849304D01*
X144983298Y-57848031D01*
X144988075Y-57841870D01*
X144988081Y-57841865D01*
X145071744Y-57700398D01*
X145117598Y-57542569D01*
X145120500Y-57505694D01*
X145120500Y-57074306D01*
X145117598Y-57037431D01*
X145071744Y-56879602D01*
X144988081Y-56738135D01*
X144988078Y-56738132D01*
X144983298Y-56731969D01*
X144985750Y-56730066D01*
X144959155Y-56681421D01*
X144964104Y-56611726D01*
X144984940Y-56579304D01*
X144983298Y-56578031D01*
X144988075Y-56571870D01*
X144988081Y-56571865D01*
X145071744Y-56430398D01*
X145117598Y-56272569D01*
X145120499Y-56235701D01*
X147119500Y-56235701D01*
X147122401Y-56272567D01*
X147122402Y-56272573D01*
X147168254Y-56430393D01*
X147168255Y-56430396D01*
X147251917Y-56571862D01*
X147256702Y-56578031D01*
X147254369Y-56579840D01*
X147281210Y-56628995D01*
X147276226Y-56698687D01*
X147255470Y-56731021D01*
X147257097Y-56732283D01*
X147252313Y-56738449D01*
X147168718Y-56879801D01*
X147122899Y-57037513D01*
X147122704Y-57039998D01*
X147122705Y-57040000D01*
X150067295Y-57040000D01*
X150067295Y-57039998D01*
X150067100Y-57037513D01*
X150021281Y-56879801D01*
X149937685Y-56738447D01*
X149932900Y-56732278D01*
X149935366Y-56730364D01*
X149908802Y-56681776D01*
X149913749Y-56612082D01*
X149934856Y-56579232D01*
X149933301Y-56578026D01*
X149938077Y-56571868D01*
X149938081Y-56571865D01*
X150021744Y-56430398D01*
X150067598Y-56272569D01*
X150070500Y-56235694D01*
X150070500Y-55804306D01*
X150067598Y-55767431D01*
X150059181Y-55738461D01*
X150021745Y-55609606D01*
X150021744Y-55609603D01*
X150021744Y-55609602D01*
X149938081Y-55468135D01*
X149938079Y-55468133D01*
X149938076Y-55468129D01*
X149821870Y-55351923D01*
X149821862Y-55351917D01*
X149680396Y-55268255D01*
X149680393Y-55268254D01*
X149522573Y-55222402D01*
X149522567Y-55222401D01*
X149485701Y-55219500D01*
X149485694Y-55219500D01*
X147704306Y-55219500D01*
X147704298Y-55219500D01*
X147667432Y-55222401D01*
X147667426Y-55222402D01*
X147509606Y-55268254D01*
X147509603Y-55268255D01*
X147368137Y-55351917D01*
X147368129Y-55351923D01*
X147251923Y-55468129D01*
X147251917Y-55468137D01*
X147168255Y-55609603D01*
X147168254Y-55609606D01*
X147122402Y-55767426D01*
X147122401Y-55767432D01*
X147119500Y-55804298D01*
X147119500Y-56235701D01*
X145120499Y-56235701D01*
X145120500Y-56235694D01*
X145120500Y-55804306D01*
X145117598Y-55767431D01*
X145109181Y-55738461D01*
X145071745Y-55609606D01*
X145071744Y-55609603D01*
X145071744Y-55609602D01*
X144988081Y-55468135D01*
X144988079Y-55468133D01*
X144988076Y-55468129D01*
X144871870Y-55351923D01*
X144871862Y-55351917D01*
X144730396Y-55268255D01*
X144730393Y-55268254D01*
X144572573Y-55222402D01*
X144572567Y-55222401D01*
X144535701Y-55219500D01*
X144535694Y-55219500D01*
X142754306Y-55219500D01*
X142754298Y-55219500D01*
X142717432Y-55222401D01*
X142717426Y-55222402D01*
X142559606Y-55268254D01*
X142559603Y-55268255D01*
X142418137Y-55351917D01*
X142418129Y-55351923D01*
X142301923Y-55468129D01*
X142301917Y-55468137D01*
X142218255Y-55609603D01*
X142218254Y-55609606D01*
X142172402Y-55767426D01*
X142172401Y-55767432D01*
X142169500Y-55804298D01*
X142169500Y-55857584D01*
X142149815Y-55924623D01*
X142097011Y-55970378D01*
X142027853Y-55980322D01*
X141998048Y-55972145D01*
X141951955Y-55953053D01*
X141895080Y-55929495D01*
X141870894Y-55924684D01*
X141870587Y-55924623D01*
X141749314Y-55900499D01*
X141749312Y-55900499D01*
X141600688Y-55900499D01*
X141594574Y-55900499D01*
X141594554Y-55900500D01*
X140883171Y-55900500D01*
X140816132Y-55880815D01*
X140777632Y-55841597D01*
X140754626Y-55804298D01*
X140712712Y-55736344D01*
X140588656Y-55612288D01*
X140583400Y-55609046D01*
X140536677Y-55557097D01*
X140524500Y-55503509D01*
X140524500Y-55113886D01*
X140544185Y-55046847D01*
X140560819Y-55026205D01*
X141951205Y-53635819D01*
X142012528Y-53602334D01*
X142038886Y-53599500D01*
X146181829Y-53599500D01*
X146248868Y-53619185D01*
G37*
%TD.AperFunction*%
%TD*%
D45*
X79064000Y-68593000D03*
X76905000Y-68720000D03*
X81350000Y-65545000D03*
X78048000Y-64021000D03*
X88970000Y-118250000D03*
X88970000Y-113170000D03*
X87700000Y-110630000D03*
X88970000Y-82690000D03*
X136722000Y-127775000D03*
D46*
X151835000Y-132855000D03*
D45*
X83890000Y-108090000D03*
X92780000Y-69990000D03*
X100400000Y-78245000D03*
X87700000Y-69990000D03*
X135960000Y-92850000D03*
X87700000Y-103010000D03*
X126741822Y-78755178D03*
X111430220Y-73165000D03*
X88970000Y-101740000D03*
X83890000Y-103010000D03*
D46*
X134055000Y-107455000D03*
D45*
X132912000Y-118758000D03*
X92780000Y-115710000D03*
X88970000Y-86500000D03*
X92780000Y-104280000D03*
X92780000Y-92850000D03*
X157550000Y-92850000D03*
X92780000Y-85230000D03*
X83890000Y-68720000D03*
X87700000Y-95390000D03*
X119450000Y-124600000D03*
X92780000Y-77610000D03*
X87700000Y-115710000D03*
X83890000Y-71260000D03*
X88970000Y-94120000D03*
X87700000Y-106820000D03*
X120720000Y-73165000D03*
X88970000Y-114440000D03*
X87700000Y-111900000D03*
D46*
X135960000Y-59830000D03*
D45*
X87700000Y-91580000D03*
X100400000Y-124600000D03*
X88970000Y-97930000D03*
X157550000Y-105550000D03*
D46*
X118815000Y-98565000D03*
D45*
X92780000Y-111900000D03*
D46*
X147136000Y-115710000D03*
D45*
X92780000Y-100470000D03*
D46*
X147136000Y-120790000D03*
D45*
X83890000Y-82690000D03*
X92780000Y-73800000D03*
X83890000Y-109360000D03*
D46*
X146120000Y-63640000D03*
D45*
X92780000Y-96660000D03*
X129102000Y-121806000D03*
X83890000Y-77610000D03*
X87700000Y-99200000D03*
X157550000Y-78880000D03*
X83890000Y-97930000D03*
D46*
X133420000Y-69355000D03*
D45*
X83890000Y-89040000D03*
D46*
X132785000Y-134760000D03*
D45*
X87700000Y-72530000D03*
X83890000Y-94120000D03*
X88970000Y-105550000D03*
X119450000Y-105550000D03*
X87700000Y-83960000D03*
D46*
X151835000Y-116345000D03*
D45*
X140405000Y-78880000D03*
X88970000Y-71260000D03*
X140405000Y-105550000D03*
X87700000Y-87770000D03*
X134690000Y-54750000D03*
X83890000Y-104280000D03*
X83890000Y-118250000D03*
X119450000Y-70625000D03*
X100400000Y-54750000D03*
X88970000Y-68720000D03*
D46*
X129610000Y-99200000D03*
D45*
X140405000Y-143650000D03*
X92780000Y-89040000D03*
D46*
X146120000Y-93485000D03*
D45*
X83890000Y-73800000D03*
D46*
X131515000Y-82055000D03*
D45*
X83890000Y-87770000D03*
X119450000Y-54750000D03*
X92780000Y-108090000D03*
X100400000Y-92850000D03*
X88970000Y-90310000D03*
X106750000Y-105550000D03*
D46*
X108020000Y-77610000D03*
D45*
X119450000Y-92850000D03*
X83890000Y-113170000D03*
X87700000Y-116980000D03*
X83890000Y-114440000D03*
X92780000Y-81420000D03*
X100400000Y-143650000D03*
X123260000Y-74435000D03*
X88970000Y-78880000D03*
X157550000Y-143650000D03*
X157550000Y-54750000D03*
X130503000Y-116726000D03*
X83890000Y-78880000D03*
X140405000Y-124600000D03*
X88970000Y-109360000D03*
X132150000Y-116726000D03*
X83890000Y-92850000D03*
X132912000Y-120536000D03*
X83890000Y-83960000D03*
X83890000Y-99200000D03*
X88970000Y-75070000D03*
X119450000Y-143650000D03*
D46*
X129610000Y-91580000D03*
D45*
X135960000Y-113170000D03*
D46*
X129610000Y-91580000D03*
X130245000Y-63640000D03*
D45*
X138246000Y-119012000D03*
X137230000Y-119643000D03*
D46*
X101670000Y-95390000D03*
X126435000Y-56655000D03*
X106750000Y-56655000D03*
D45*
X87700000Y-78880000D03*
D46*
X146120000Y-85230000D03*
D45*
X123260000Y-71260000D03*
D46*
X106750000Y-52845000D03*
D45*
X87700000Y-71260000D03*
D46*
X151835000Y-131585000D03*
D45*
X126435000Y-69355000D03*
D46*
X146120000Y-56020000D03*
D45*
X83890000Y-69990000D03*
D46*
X146755000Y-118250000D03*
X128975000Y-104280000D03*
X151835000Y-115075000D03*
D45*
X121990000Y-75070000D03*
X87700000Y-68720000D03*
D46*
X126435000Y-52845000D03*
D45*
X87700000Y-73800000D03*
D46*
X154335420Y-111304580D03*
X154335420Y-127814580D03*
X141675000Y-112535000D03*
D45*
X125292000Y-124092000D03*
X92780000Y-68720000D03*
D46*
X135325000Y-139205000D03*
X135325000Y-136030000D03*
D45*
X125165000Y-67450000D03*
X138500000Y-79515000D03*
X130245000Y-125870000D03*
X137484000Y-125997000D03*
X88970000Y-69990000D03*
D46*
X120693616Y-70083028D03*
D45*
X135960000Y-115710000D03*
D46*
X108655000Y-75070000D03*
D45*
X123260000Y-118250000D03*
X123260000Y-120790000D03*
X148025000Y-132220000D03*
X150565000Y-129680000D03*
X128340000Y-112916000D03*
X123895000Y-116345000D03*
X129757000Y-125108000D03*
X128340000Y-110884000D03*
X124020857Y-122185857D03*
X128340000Y-109360000D03*
X128361847Y-125718865D03*
X123260000Y-119520000D03*
X88970000Y-91580000D03*
X92780000Y-90310000D03*
X94685000Y-93442200D03*
X88970000Y-92850000D03*
X88970000Y-81420000D03*
X88970000Y-73800000D03*
X125165000Y-76975000D03*
X132150000Y-75705000D03*
X92780000Y-87770000D03*
X120085000Y-82055000D03*
X88970000Y-87770000D03*
X121355000Y-64910000D03*
X92780000Y-76340000D03*
X121990000Y-63640000D03*
X92780000Y-75070000D03*
X115005000Y-75070000D03*
X92780000Y-82690000D03*
X115005000Y-76975000D03*
X92780000Y-83960000D03*
X88970000Y-89040000D03*
X88970000Y-72530000D03*
X88970000Y-85230000D03*
X92780000Y-86500000D03*
X118815000Y-81420000D03*
X92780000Y-72530000D03*
X123895000Y-62370000D03*
X88970000Y-83960000D03*
X92780000Y-71260000D03*
X124530000Y-61100000D03*
X116910000Y-66180000D03*
X92780000Y-78880000D03*
X123895000Y-72530000D03*
X88970000Y-77610000D03*
X92780000Y-80150000D03*
X116910000Y-67450000D03*
X88970000Y-76340000D03*
X92780000Y-116980000D03*
X83890000Y-96660000D03*
X83890000Y-86500000D03*
X88970000Y-115710000D03*
X92780000Y-103010000D03*
X87700000Y-118250000D03*
X83890000Y-80150000D03*
X83890000Y-110630000D03*
X88970000Y-116980000D03*
X87700000Y-76340000D03*
X87700000Y-75070000D03*
X83890000Y-115710000D03*
X92780000Y-97930000D03*
X92780000Y-118250000D03*
X83890000Y-85230000D03*
X106369000Y-73642000D03*
X100781000Y-81897000D03*
X87700000Y-85230000D03*
X83890000Y-76340000D03*
X83890000Y-116980000D03*
X92780000Y-94120000D03*
X92780000Y-95390000D03*
X83890000Y-91580000D03*
X87700000Y-94120000D03*
X92780000Y-91580000D03*
X94685000Y-100470000D03*
X88970000Y-99200000D03*
X92780000Y-101740000D03*
X94685000Y-95390000D03*
X88970000Y-95390000D03*
X123260000Y-80150000D03*
X87700000Y-90310000D03*
X97225000Y-89717800D03*
X94685000Y-113805000D03*
X88970000Y-111900000D03*
X134055000Y-125870000D03*
X83890000Y-111900000D03*
X83890000Y-81420000D03*
X87700000Y-97930000D03*
X83890000Y-100470000D03*
X88970000Y-80150000D03*
X87700000Y-104280000D03*
X88970000Y-110630000D03*
X83890000Y-95390000D03*
X106369000Y-72688000D03*
X87700000Y-86500000D03*
X100781000Y-80943000D03*
X87700000Y-101740000D03*
X83890000Y-101740000D03*
X88970000Y-106820000D03*
X94685000Y-108090000D03*
X87700000Y-113170000D03*
X87700000Y-96660000D03*
X87700000Y-92850000D03*
X88970000Y-100470000D03*
X92780000Y-99200000D03*
X92780000Y-109360000D03*
X92780000Y-106820000D03*
X88970000Y-104280000D03*
X92780000Y-110630000D03*
X94685000Y-104280000D03*
X88970000Y-103010000D03*
X88970000Y-108090000D03*
X87700000Y-114440000D03*
X83890000Y-106820000D03*
X83890000Y-105550000D03*
X87700000Y-105550000D03*
X92780000Y-113170000D03*
X98015723Y-116189277D03*
X138500000Y-128410000D03*
X134690000Y-128410000D03*
X92780000Y-114440000D03*
X97411853Y-116793147D03*
X87700000Y-77610000D03*
X92780000Y-105550000D03*
X88970000Y-96660000D03*
X87700000Y-100470000D03*
X87700000Y-89040000D03*
X83890000Y-90310000D03*
X87700000Y-108090000D03*
X87700000Y-109360000D03*
D46*
X91385000Y-66294000D03*
X88335000Y-120674000D03*
X163900000Y-73165000D03*
X168980000Y-58560000D03*
X166440000Y-56020000D03*
X166440000Y-61100000D03*
X171520000Y-56020000D03*
X171520000Y-61100000D03*
X163900000Y-123330000D03*
X168980000Y-88405000D03*
X166440000Y-85865000D03*
X166440000Y-90945000D03*
X171520000Y-85865000D03*
X171520000Y-90945000D03*
X76905000Y-121425000D03*
X79445000Y-121425000D03*
X76905000Y-118885000D03*
X79445000Y-118885000D03*
X76905000Y-116345000D03*
X79445000Y-116345000D03*
X76905000Y-113805000D03*
X79445000Y-113805000D03*
X76905000Y-111265000D03*
X79445000Y-111265000D03*
X76905000Y-108725000D03*
X79445000Y-108725000D03*
X168980000Y-110630000D03*
X166440000Y-108090000D03*
X166440000Y-113170000D03*
X171520000Y-108090000D03*
X171520000Y-113170000D03*
X168980000Y-134760000D03*
X166440000Y-132220000D03*
X166440000Y-137300000D03*
X171520000Y-132220000D03*
X171520000Y-137300000D03*
X76905000Y-88405000D03*
X79445000Y-88405000D03*
X76905000Y-85865000D03*
X79445000Y-85865000D03*
X76905000Y-83325000D03*
X79445000Y-83325000D03*
X76905000Y-80785000D03*
X79445000Y-80785000D03*
X76905000Y-78245000D03*
X79445000Y-78245000D03*
X76905000Y-75705000D03*
X79445000Y-75705000D03*
X76885000Y-104890000D03*
X79425000Y-104890000D03*
X76885000Y-102350000D03*
X79425000Y-102350000D03*
X76885000Y-99810000D03*
X79425000Y-99810000D03*
X76885000Y-97270000D03*
X79425000Y-97270000D03*
X76885000Y-94730000D03*
X79425000Y-94730000D03*
X76885000Y-92190000D03*
X79425000Y-92190000D03*
M02*
