M48
METRIC,TZ
T1C0.300
T2C0.500
T3C1.000
T4C1.500
T5C1.700
%
G90
G05
T1
X76905Y-68720
X78048Y-64021
X79064Y-68593
X81350Y-65545
X83890Y-68720
X83890Y-69990
X83890Y-71260
X83890Y-73800
X83890Y-76340
X83890Y-77610
X83890Y-78880
X83890Y-80150
X83890Y-81420
X83890Y-82690
X83890Y-83960
X83890Y-85230
X83890Y-86500
X83890Y-87770
X83890Y-89040
X83890Y-90310
X83890Y-91580
X83890Y-92850
X83890Y-94120
X83890Y-95390
X83890Y-96660
X83890Y-97930
X83890Y-99200
X83890Y-100470
X83890Y-101740
X83890Y-103010
X83890Y-104280
X83890Y-105550
X83890Y-106820
X83890Y-108090
X83890Y-109360
X83890Y-110630
X83890Y-111900
X83890Y-113170
X83890Y-114440
X83890Y-115710
X83890Y-116980
X83890Y-118250
X87700Y-68720
X87700Y-69990
X87700Y-71260
X87700Y-72530
X87700Y-73800
X87700Y-75070
X87700Y-76340
X87700Y-77610
X87700Y-78880
X87700Y-83960
X87700Y-85230
X87700Y-86500
X87700Y-87770
X87700Y-89040
X87700Y-90310
X87700Y-91580
X87700Y-92850
X87700Y-94120
X87700Y-95390
X87700Y-96660
X87700Y-97930
X87700Y-99200
X87700Y-100470
X87700Y-101740
X87700Y-103010
X87700Y-104280
X87700Y-105550
X87700Y-106820
X87700Y-108090
X87700Y-109360
X87700Y-110630
X87700Y-111900
X87700Y-113170
X87700Y-114440
X87700Y-115710
X87700Y-116980
X87700Y-118250
X88970Y-68720
X88970Y-69990
X88970Y-71260
X88970Y-72530
X88970Y-73800
X88970Y-75070
X88970Y-76340
X88970Y-77610
X88970Y-78880
X88970Y-80150
X88970Y-81420
X88970Y-82690
X88970Y-83960
X88970Y-85230
X88970Y-86500
X88970Y-87770
X88970Y-89040
X88970Y-90310
X88970Y-91580
X88970Y-92850
X88970Y-94120
X88970Y-95390
X88970Y-96660
X88970Y-97930
X88970Y-99200
X88970Y-100470
X88970Y-101740
X88970Y-103010
X88970Y-104280
X88970Y-105550
X88970Y-106820
X88970Y-108090
X88970Y-109360
X88970Y-110630
X88970Y-111900
X88970Y-113170
X88970Y-114440
X88970Y-115710
X88970Y-116980
X88970Y-118250
X92780Y-68720
X92780Y-69990
X92780Y-71260
X92780Y-72530
X92780Y-73800
X92780Y-75070
X92780Y-76340
X92780Y-77610
X92780Y-78880
X92780Y-80150
X92780Y-81420
X92780Y-82690
X92780Y-83960
X92780Y-85230
X92780Y-86500
X92780Y-87770
X92780Y-89040
X92780Y-90310
X92780Y-91580
X92780Y-92850
X92780Y-94120
X92780Y-95390
X92780Y-96660
X92780Y-97930
X92780Y-99200
X92780Y-100470
X92780Y-101740
X92780Y-103010
X92780Y-104280
X92780Y-105550
X92780Y-106820
X92780Y-108090
X92780Y-109360
X92780Y-110630
X92780Y-111900
X92780Y-113170
X92780Y-114440
X92780Y-115710
X92780Y-116980
X92780Y-118250
X94685Y-93442
X94685Y-95390
X94685Y-100470
X94685Y-104280
X94685Y-108090
X94685Y-113805
X97225Y-89718
X97412Y-116793
X98016Y-116189
X100400Y-54750
X100400Y-78245
X100400Y-92850
X100400Y-124600
X100400Y-143650
X100781Y-80943
X100781Y-81897
X106369Y-72688
X106369Y-73642
X106750Y-105550
X111430Y-73165
X115005Y-75070
X115005Y-76975
X116910Y-66180
X116910Y-67450
X118815Y-81420
X119450Y-54750
X119450Y-70625
X119450Y-92850
X119450Y-105550
X119450Y-124600
X119450Y-143650
X120085Y-82055
X120720Y-73165
X121355Y-64910
X121990Y-63640
X121990Y-75070
X123260Y-71260
X123260Y-74435
X123260Y-80150
X123260Y-118250
X123260Y-119520
X123260Y-120790
X123895Y-62370
X123895Y-72530
X123895Y-116345
X124021Y-122186
X124530Y-61100
X125165Y-67450
X125165Y-76975
X125292Y-124092
X126435Y-69355
X126742Y-78755
X128340Y-109360
X128340Y-110884
X128340Y-112916
X128362Y-125719
X129102Y-121806
X129757Y-125108
X130245Y-125870
X130503Y-116726
X132150Y-75705
X132150Y-116726
X132912Y-118758
X132912Y-120536
X134055Y-125870
X134690Y-54750
X134690Y-128410
X135960Y-92850
X135960Y-113170
X135960Y-115710
X136722Y-127775
X137230Y-119643
X137484Y-125997
X138246Y-119012
X138500Y-79515
X138500Y-128410
X140405Y-78880
X140405Y-105550
X140405Y-124600
X140405Y-143650
X148025Y-132220
X150565Y-129680
X157550Y-54750
X157550Y-78880
X157550Y-92850
X157550Y-105550
X157550Y-143650
T2
X101670Y-95390
X106750Y-52845
X106750Y-56655
X108020Y-77610
X108655Y-75070
X118815Y-98565
X120694Y-70083
X126435Y-52845
X126435Y-56655
X128975Y-104280
X129610Y-91580
X129610Y-91580
X129610Y-99200
X130245Y-63640
X131515Y-82055
X132785Y-134760
X133420Y-69355
X134055Y-107455
X135325Y-136030
X135325Y-139205
X135960Y-59830
X141675Y-112535
X146120Y-56020
X146120Y-63640
X146120Y-85230
X146120Y-93485
X146755Y-118250
X147136Y-115710
X147136Y-120790
X151835Y-115075
X151835Y-116345
X151835Y-131585
X151835Y-132855
X154335Y-111305
X154335Y-127815
T3
X76885Y-92190
X76885Y-94730
X76885Y-97270
X76885Y-99810
X76885Y-102350
X76885Y-104890
X76905Y-75705
X76905Y-78245
X76905Y-80785
X76905Y-83325
X76905Y-85865
X76905Y-88405
X76905Y-108725
X76905Y-111265
X76905Y-113805
X76905Y-116345
X76905Y-118885
X76905Y-121425
X79425Y-92190
X79425Y-94730
X79425Y-97270
X79425Y-99810
X79425Y-102350
X79425Y-104890
X79445Y-75705
X79445Y-78245
X79445Y-80785
X79445Y-83325
X79445Y-85865
X79445Y-88405
X79445Y-108725
X79445Y-111265
X79445Y-113805
X79445Y-116345
X79445Y-118885
X79445Y-121425
T4
X168980Y-58560
X168980Y-88405
X168980Y-110630
X168980Y-134760
T5
X166440Y-56020
X166440Y-61100
X166440Y-85865
X166440Y-90945
X166440Y-108090
X166440Y-113170
X166440Y-132220
X166440Y-137300
X171520Y-56020
X171520Y-61100
X171520Y-85865
X171520Y-90945
X171520Y-108090
X171520Y-113170
X171520Y-132220
X171520Y-137300
M30
