%TF.GenerationSoftware,KiCad,Pcbnew,8.0.0*%
%TF.CreationDate,2024-08-30T23:38:12+03:00*%
%TF.ProjectId,ML605_LPC_Board_wADC_DAC,4d4c3630-355f-44c5-9043-5f426f617264,rev?*%
%TF.SameCoordinates,Original*%
%TF.FileFunction,Soldermask,Bot*%
%TF.FilePolarity,Negative*%
%FSLAX46Y46*%
G04 Gerber Fmt 4.6, Leading zero omitted, Abs format (unit mm)*
G04 Created by KiCad (PCBNEW 8.0.0) date 2024-08-30 23:38:12*
%MOMM*%
%LPD*%
G01*
G04 APERTURE LIST*
G04 Aperture macros list*
%AMRoundRect*
0 Rectangle with rounded corners*
0 $1 Rounding radius*
0 $2 $3 $4 $5 $6 $7 $8 $9 X,Y pos of 4 corners*
0 Add a 4 corners polygon primitive as box body*
4,1,4,$2,$3,$4,$5,$6,$7,$8,$9,$2,$3,0*
0 Add four circle primitives for the rounded corners*
1,1,$1+$1,$2,$3*
1,1,$1+$1,$4,$5*
1,1,$1+$1,$6,$7*
1,1,$1+$1,$8,$9*
0 Add four rect primitives between the rounded corners*
20,1,$1+$1,$2,$3,$4,$5,0*
20,1,$1+$1,$4,$5,$6,$7,0*
20,1,$1+$1,$6,$7,$8,$9,0*
20,1,$1+$1,$8,$9,$2,$3,0*%
G04 Aperture macros list end*
%ADD10C,2.050000*%
%ADD11C,2.250000*%
%ADD12R,1.700000X1.700000*%
%ADD13O,1.700000X1.700000*%
%ADD14RoundRect,0.250000X-0.475000X0.337500X-0.475000X-0.337500X0.475000X-0.337500X0.475000X0.337500X0*%
%ADD15RoundRect,0.250000X-0.337500X-0.475000X0.337500X-0.475000X0.337500X0.475000X-0.337500X0.475000X0*%
%ADD16C,1.270000*%
%ADD17C,0.640000*%
%ADD18RoundRect,0.250000X0.350000X0.450000X-0.350000X0.450000X-0.350000X-0.450000X0.350000X-0.450000X0*%
%ADD19RoundRect,0.250000X-0.350000X-0.450000X0.350000X-0.450000X0.350000X0.450000X-0.350000X0.450000X0*%
%ADD20RoundRect,0.250000X0.337500X0.475000X-0.337500X0.475000X-0.337500X-0.475000X0.337500X-0.475000X0*%
%ADD21RoundRect,0.250000X-0.450000X0.350000X-0.450000X-0.350000X0.450000X-0.350000X0.450000X0.350000X0*%
%ADD22C,1.000000*%
%ADD23RoundRect,0.250000X0.475000X-0.337500X0.475000X0.337500X-0.475000X0.337500X-0.475000X-0.337500X0*%
G04 APERTURE END LIST*
D10*
%TO.C,J8*%
X168980000Y-58560000D03*
D11*
X166440000Y-56020000D03*
X166440000Y-61100000D03*
X171520000Y-56020000D03*
X171520000Y-61100000D03*
%TD*%
D10*
%TO.C,J9*%
X168980000Y-88405000D03*
D11*
X166440000Y-85865000D03*
X166440000Y-90945000D03*
X171520000Y-85865000D03*
X171520000Y-90945000D03*
%TD*%
D12*
%TO.C,J10*%
X76905000Y-121425000D03*
D13*
X79445000Y-121425000D03*
X76905000Y-118885000D03*
X79445000Y-118885000D03*
X76905000Y-116345000D03*
X79445000Y-116345000D03*
X76905000Y-113805000D03*
X79445000Y-113805000D03*
X76905000Y-111265000D03*
X79445000Y-111265000D03*
X76905000Y-108725000D03*
X79445000Y-108725000D03*
%TD*%
D10*
%TO.C,J5*%
X168980000Y-110630000D03*
D11*
X166440000Y-108090000D03*
X166440000Y-113170000D03*
X171520000Y-108090000D03*
X171520000Y-113170000D03*
%TD*%
D10*
%TO.C,J4*%
X168980000Y-134760000D03*
D11*
X166440000Y-132220000D03*
X166440000Y-137300000D03*
X171520000Y-132220000D03*
X171520000Y-137300000D03*
%TD*%
D12*
%TO.C,J12*%
X76905000Y-88405000D03*
D13*
X79445000Y-88405000D03*
X76905000Y-85865000D03*
X79445000Y-85865000D03*
X76905000Y-83325000D03*
X79445000Y-83325000D03*
X76905000Y-80785000D03*
X79445000Y-80785000D03*
X76905000Y-78245000D03*
X79445000Y-78245000D03*
X76905000Y-75705000D03*
X79445000Y-75705000D03*
%TD*%
D12*
%TO.C,J11*%
X76885000Y-104890000D03*
D13*
X79425000Y-104890000D03*
X76885000Y-102350000D03*
X79425000Y-102350000D03*
X76885000Y-99810000D03*
X79425000Y-99810000D03*
X76885000Y-97270000D03*
X79425000Y-97270000D03*
X76885000Y-94730000D03*
X79425000Y-94730000D03*
X76885000Y-92190000D03*
X79425000Y-92190000D03*
%TD*%
D14*
%TO.C,C32*%
X146120000Y-86732500D03*
X146120000Y-88807500D03*
%TD*%
D15*
%TO.C,C20*%
X131747500Y-90310000D03*
X133822500Y-90310000D03*
%TD*%
D16*
%TO.C,J1*%
X91385000Y-66294000D03*
X88335000Y-120674000D03*
D17*
X85160000Y-118250000D03*
X85160000Y-116980000D03*
X85160000Y-115710000D03*
X85160000Y-114440000D03*
X85160000Y-113170000D03*
X85160000Y-111900000D03*
X85160000Y-110630000D03*
X85160000Y-109360000D03*
X85160000Y-108090000D03*
X85160000Y-106820000D03*
X85160000Y-105550000D03*
X85160000Y-104280000D03*
X85160000Y-103010000D03*
X85160000Y-101740000D03*
X85160000Y-100470000D03*
X85160000Y-99200000D03*
X85160000Y-97930000D03*
X85160000Y-96660000D03*
X85160000Y-95390000D03*
X85160000Y-94120000D03*
X85160000Y-92850000D03*
X85160000Y-91580000D03*
X85160000Y-90310000D03*
X85160000Y-89040000D03*
X85160000Y-87770000D03*
X85160000Y-86500000D03*
X85160000Y-85230000D03*
X85160000Y-83960000D03*
X85160000Y-82690000D03*
X85160000Y-81420000D03*
X85160000Y-80150000D03*
X85160000Y-78880000D03*
X85160000Y-77610000D03*
X85160000Y-76340000D03*
X85160000Y-75070000D03*
X85160000Y-73800000D03*
X85160000Y-72530000D03*
X85160000Y-71260000D03*
X85160000Y-69990000D03*
X85160000Y-68720000D03*
X86430000Y-118250000D03*
X86430000Y-116980000D03*
X86430000Y-115710000D03*
X86430000Y-114440000D03*
X86430000Y-113170000D03*
X86430000Y-111900000D03*
X86430000Y-110630000D03*
X86430000Y-109360000D03*
X86430000Y-108090000D03*
X86430000Y-106820000D03*
X86430000Y-105550000D03*
X86430000Y-104280000D03*
X86430000Y-103010000D03*
X86430000Y-101740000D03*
X86430000Y-100470000D03*
X86430000Y-99200000D03*
X86430000Y-97930000D03*
X86430000Y-96660000D03*
X86430000Y-95390000D03*
X86430000Y-94120000D03*
X86430000Y-92850000D03*
X86430000Y-91580000D03*
X86430000Y-90310000D03*
X86430000Y-89040000D03*
X86430000Y-87770000D03*
X86430000Y-86500000D03*
X86430000Y-85230000D03*
X86430000Y-83960000D03*
X86430000Y-82690000D03*
X86430000Y-81420000D03*
X86430000Y-80150000D03*
X86430000Y-78880000D03*
X86430000Y-77610000D03*
X86430000Y-76340000D03*
X86430000Y-75070000D03*
X86430000Y-73800000D03*
X86430000Y-72530000D03*
X86430000Y-71260000D03*
X86430000Y-69990000D03*
X86430000Y-68720000D03*
X90240000Y-118250000D03*
X90240000Y-116980000D03*
X90240000Y-115710000D03*
X90240000Y-114440000D03*
X90240000Y-113170000D03*
X90240000Y-111900000D03*
X90240000Y-110630000D03*
X90240000Y-109360000D03*
X90240000Y-108090000D03*
X90240000Y-106820000D03*
X90240000Y-105550000D03*
X90240000Y-104280000D03*
X90240000Y-103010000D03*
X90240000Y-101740000D03*
X90240000Y-100470000D03*
X90240000Y-99200000D03*
X90240000Y-97930000D03*
X90240000Y-96660000D03*
X90240000Y-95390000D03*
X90240000Y-94120000D03*
X90240000Y-92850000D03*
X90240000Y-91580000D03*
X90240000Y-90310000D03*
X90240000Y-89040000D03*
X90240000Y-87770000D03*
X90240000Y-86500000D03*
X90240000Y-85230000D03*
X90240000Y-83960000D03*
X90240000Y-82690000D03*
X90240000Y-81420000D03*
X90240000Y-80150000D03*
X90240000Y-78880000D03*
X90240000Y-77610000D03*
X90240000Y-76340000D03*
X90240000Y-75070000D03*
X90240000Y-73800000D03*
X90240000Y-72530000D03*
X90240000Y-71260000D03*
X90240000Y-69990000D03*
X90240000Y-68720000D03*
X91510000Y-118250000D03*
X91510000Y-116980000D03*
X91510000Y-115710000D03*
X91510000Y-114440000D03*
X91510000Y-113170000D03*
X91510000Y-111900000D03*
X91510000Y-110630000D03*
X91510000Y-109360000D03*
X91510000Y-108090000D03*
X91510000Y-106820000D03*
X91510000Y-105550000D03*
X91510000Y-104280000D03*
X91510000Y-103010000D03*
X91510000Y-101740000D03*
X91510000Y-100470000D03*
X91510000Y-99200000D03*
X91510000Y-97930000D03*
X91510000Y-96660000D03*
X91510000Y-95390000D03*
X91510000Y-94120000D03*
X91510000Y-92850000D03*
X91510000Y-91580000D03*
X91510000Y-90310000D03*
X91510000Y-89040000D03*
X91510000Y-87770000D03*
X91510000Y-86500000D03*
X91510000Y-85230000D03*
X91510000Y-83960000D03*
X91510000Y-82690000D03*
X91510000Y-81420000D03*
X91510000Y-80150000D03*
X91510000Y-78880000D03*
X91510000Y-77610000D03*
X91510000Y-76340000D03*
X91510000Y-75070000D03*
X91510000Y-73800000D03*
X91510000Y-72530000D03*
X91510000Y-71260000D03*
X91510000Y-69990000D03*
X91510000Y-68720000D03*
%TD*%
D18*
%TO.C,R6*%
X117910000Y-116345000D03*
X115910000Y-116345000D03*
%TD*%
D19*
%TO.C,R17*%
X124165000Y-113170000D03*
X126165000Y-113170000D03*
%TD*%
D18*
%TO.C,R10*%
X117910000Y-120155000D03*
X115910000Y-120155000D03*
%TD*%
D14*
%TO.C,C17*%
X153105000Y-131182500D03*
X153105000Y-133257500D03*
%TD*%
%TO.C,C36*%
X119450000Y-72762500D03*
X119450000Y-74837500D03*
%TD*%
D18*
%TO.C,R8*%
X117910000Y-118250000D03*
X115910000Y-118250000D03*
%TD*%
D20*
%TO.C,C7*%
X134055000Y-110630000D03*
X131980000Y-110630000D03*
%TD*%
D15*
%TO.C,C34*%
X127937500Y-66180000D03*
X130012500Y-66180000D03*
%TD*%
D21*
%TO.C,R18*%
X127705000Y-127410000D03*
X127705000Y-129410000D03*
%TD*%
D18*
%TO.C,R12*%
X117910000Y-122060000D03*
X115910000Y-122060000D03*
%TD*%
D19*
%TO.C,R34*%
X127975000Y-72530000D03*
X129975000Y-72530000D03*
%TD*%
D22*
%TO.C,FID5*%
X76905000Y-148095000D03*
%TD*%
D15*
%TO.C,C19*%
X131747500Y-61100000D03*
X133822500Y-61100000D03*
%TD*%
D18*
%TO.C,R4*%
X117910000Y-114440000D03*
X115910000Y-114440000D03*
%TD*%
D19*
%TO.C,R21*%
X124165000Y-111265000D03*
X126165000Y-111265000D03*
%TD*%
%TO.C,R23*%
X124165000Y-109360000D03*
X126165000Y-109360000D03*
%TD*%
D15*
%TO.C,C11*%
X140002500Y-123330000D03*
X142077500Y-123330000D03*
%TD*%
D20*
%TO.C,C10*%
X142077500Y-120790000D03*
X140002500Y-120790000D03*
%TD*%
D15*
%TO.C,C22*%
X131747500Y-92850000D03*
X133822500Y-92850000D03*
%TD*%
D19*
%TO.C,R35*%
X131785000Y-72530000D03*
X133785000Y-72530000D03*
%TD*%
D23*
%TO.C,C35*%
X116910000Y-74837500D03*
X116910000Y-72762500D03*
%TD*%
D21*
%TO.C,R22*%
X129610000Y-127410000D03*
X129610000Y-129410000D03*
%TD*%
D15*
%TO.C,C6*%
X131980000Y-113170000D03*
X134055000Y-113170000D03*
%TD*%
D14*
%TO.C,C31*%
X146120000Y-57522500D03*
X146120000Y-59597500D03*
%TD*%
D18*
%TO.C,R14*%
X117910000Y-123965000D03*
X115910000Y-123965000D03*
%TD*%
D22*
%TO.C,FID4*%
X76905000Y-51575000D03*
%TD*%
D20*
%TO.C,C33*%
X130012500Y-68720000D03*
X127937500Y-68720000D03*
%TD*%
D22*
%TO.C,FID6*%
X173425000Y-148095000D03*
%TD*%
D15*
%TO.C,C21*%
X131747500Y-63640000D03*
X133822500Y-63640000D03*
%TD*%
D14*
%TO.C,C16*%
X153105000Y-114672500D03*
X153105000Y-116747500D03*
%TD*%
D15*
%TO.C,C8*%
X140002500Y-114440000D03*
X142077500Y-114440000D03*
%TD*%
D20*
%TO.C,C9*%
X142077500Y-116980000D03*
X140002500Y-116980000D03*
%TD*%
M02*
