%TF.GenerationSoftware,KiCad,Pcbnew,8.0.0*%
%TF.CreationDate,2024-09-01T00:56:57+03:00*%
%TF.ProjectId,ML605_LPC_Board_wADC_DAC,4d4c3630-355f-44c5-9043-5f426f617264,rev?*%
%TF.SameCoordinates,Original*%
%TF.FileFunction,Legend,Bot*%
%TF.FilePolarity,Positive*%
%FSLAX46Y46*%
G04 Gerber Fmt 4.6, Leading zero omitted, Abs format (unit mm)*
G04 Created by KiCad (PCBNEW 8.0.0) date 2024-09-01 00:56:57*
%MOMM*%
%LPD*%
G01*
G04 APERTURE LIST*
%ADD10C,0.177800*%
%ADD11C,0.254000*%
%ADD12C,0.120000*%
%ADD13C,0.100000*%
%ADD14C,0.200000*%
%ADD15C,0.350000*%
G04 APERTURE END LIST*
D10*
X146773142Y-85594013D02*
X146821523Y-85642394D01*
X146821523Y-85642394D02*
X146966666Y-85690774D01*
X146966666Y-85690774D02*
X147063428Y-85690774D01*
X147063428Y-85690774D02*
X147208571Y-85642394D01*
X147208571Y-85642394D02*
X147305333Y-85545632D01*
X147305333Y-85545632D02*
X147353714Y-85448870D01*
X147353714Y-85448870D02*
X147402095Y-85255346D01*
X147402095Y-85255346D02*
X147402095Y-85110203D01*
X147402095Y-85110203D02*
X147353714Y-84916679D01*
X147353714Y-84916679D02*
X147305333Y-84819917D01*
X147305333Y-84819917D02*
X147208571Y-84723155D01*
X147208571Y-84723155D02*
X147063428Y-84674774D01*
X147063428Y-84674774D02*
X146966666Y-84674774D01*
X146966666Y-84674774D02*
X146821523Y-84723155D01*
X146821523Y-84723155D02*
X146773142Y-84771536D01*
X146434476Y-84674774D02*
X145805523Y-84674774D01*
X145805523Y-84674774D02*
X146144190Y-85061822D01*
X146144190Y-85061822D02*
X145999047Y-85061822D01*
X145999047Y-85061822D02*
X145902285Y-85110203D01*
X145902285Y-85110203D02*
X145853904Y-85158584D01*
X145853904Y-85158584D02*
X145805523Y-85255346D01*
X145805523Y-85255346D02*
X145805523Y-85497251D01*
X145805523Y-85497251D02*
X145853904Y-85594013D01*
X145853904Y-85594013D02*
X145902285Y-85642394D01*
X145902285Y-85642394D02*
X145999047Y-85690774D01*
X145999047Y-85690774D02*
X146289333Y-85690774D01*
X146289333Y-85690774D02*
X146386095Y-85642394D01*
X146386095Y-85642394D02*
X146434476Y-85594013D01*
X145418476Y-84771536D02*
X145370095Y-84723155D01*
X145370095Y-84723155D02*
X145273333Y-84674774D01*
X145273333Y-84674774D02*
X145031428Y-84674774D01*
X145031428Y-84674774D02*
X144934666Y-84723155D01*
X144934666Y-84723155D02*
X144886285Y-84771536D01*
X144886285Y-84771536D02*
X144837904Y-84868298D01*
X144837904Y-84868298D02*
X144837904Y-84965060D01*
X144837904Y-84965060D02*
X144886285Y-85110203D01*
X144886285Y-85110203D02*
X145466857Y-85690774D01*
X145466857Y-85690774D02*
X144837904Y-85690774D01*
X137248142Y-90674013D02*
X137296523Y-90722394D01*
X137296523Y-90722394D02*
X137441666Y-90770774D01*
X137441666Y-90770774D02*
X137538428Y-90770774D01*
X137538428Y-90770774D02*
X137683571Y-90722394D01*
X137683571Y-90722394D02*
X137780333Y-90625632D01*
X137780333Y-90625632D02*
X137828714Y-90528870D01*
X137828714Y-90528870D02*
X137877095Y-90335346D01*
X137877095Y-90335346D02*
X137877095Y-90190203D01*
X137877095Y-90190203D02*
X137828714Y-89996679D01*
X137828714Y-89996679D02*
X137780333Y-89899917D01*
X137780333Y-89899917D02*
X137683571Y-89803155D01*
X137683571Y-89803155D02*
X137538428Y-89754774D01*
X137538428Y-89754774D02*
X137441666Y-89754774D01*
X137441666Y-89754774D02*
X137296523Y-89803155D01*
X137296523Y-89803155D02*
X137248142Y-89851536D01*
X136861095Y-89851536D02*
X136812714Y-89803155D01*
X136812714Y-89803155D02*
X136715952Y-89754774D01*
X136715952Y-89754774D02*
X136474047Y-89754774D01*
X136474047Y-89754774D02*
X136377285Y-89803155D01*
X136377285Y-89803155D02*
X136328904Y-89851536D01*
X136328904Y-89851536D02*
X136280523Y-89948298D01*
X136280523Y-89948298D02*
X136280523Y-90045060D01*
X136280523Y-90045060D02*
X136328904Y-90190203D01*
X136328904Y-90190203D02*
X136909476Y-90770774D01*
X136909476Y-90770774D02*
X136280523Y-90770774D01*
X135651571Y-89754774D02*
X135554809Y-89754774D01*
X135554809Y-89754774D02*
X135458047Y-89803155D01*
X135458047Y-89803155D02*
X135409666Y-89851536D01*
X135409666Y-89851536D02*
X135361285Y-89948298D01*
X135361285Y-89948298D02*
X135312904Y-90141822D01*
X135312904Y-90141822D02*
X135312904Y-90383727D01*
X135312904Y-90383727D02*
X135361285Y-90577251D01*
X135361285Y-90577251D02*
X135409666Y-90674013D01*
X135409666Y-90674013D02*
X135458047Y-90722394D01*
X135458047Y-90722394D02*
X135554809Y-90770774D01*
X135554809Y-90770774D02*
X135651571Y-90770774D01*
X135651571Y-90770774D02*
X135748333Y-90722394D01*
X135748333Y-90722394D02*
X135796714Y-90674013D01*
X135796714Y-90674013D02*
X135845095Y-90577251D01*
X135845095Y-90577251D02*
X135893476Y-90383727D01*
X135893476Y-90383727D02*
X135893476Y-90141822D01*
X135893476Y-90141822D02*
X135845095Y-89948298D01*
X135845095Y-89948298D02*
X135796714Y-89851536D01*
X135796714Y-89851536D02*
X135748333Y-89803155D01*
X135748333Y-89803155D02*
X135651571Y-89754774D01*
D11*
X87639318Y-93505667D02*
X88546461Y-93505667D01*
X88546461Y-93505667D02*
X88727889Y-93445190D01*
X88727889Y-93445190D02*
X88848842Y-93324238D01*
X88848842Y-93324238D02*
X88909318Y-93142809D01*
X88909318Y-93142809D02*
X88909318Y-93021857D01*
X88909318Y-94775667D02*
X88909318Y-94049952D01*
X88909318Y-94412809D02*
X87639318Y-94412809D01*
X87639318Y-94412809D02*
X87820746Y-94291857D01*
X87820746Y-94291857D02*
X87941699Y-94170905D01*
X87941699Y-94170905D02*
X88002175Y-94049952D01*
D10*
X113904332Y-116805774D02*
X114242999Y-116321965D01*
X114484904Y-116805774D02*
X114484904Y-115789774D01*
X114484904Y-115789774D02*
X114097856Y-115789774D01*
X114097856Y-115789774D02*
X114001094Y-115838155D01*
X114001094Y-115838155D02*
X113952713Y-115886536D01*
X113952713Y-115886536D02*
X113904332Y-115983298D01*
X113904332Y-115983298D02*
X113904332Y-116128441D01*
X113904332Y-116128441D02*
X113952713Y-116225203D01*
X113952713Y-116225203D02*
X114001094Y-116273584D01*
X114001094Y-116273584D02*
X114097856Y-116321965D01*
X114097856Y-116321965D02*
X114484904Y-116321965D01*
X113033475Y-115789774D02*
X113226999Y-115789774D01*
X113226999Y-115789774D02*
X113323761Y-115838155D01*
X113323761Y-115838155D02*
X113372142Y-115886536D01*
X113372142Y-115886536D02*
X113468904Y-116031679D01*
X113468904Y-116031679D02*
X113517285Y-116225203D01*
X113517285Y-116225203D02*
X113517285Y-116612251D01*
X113517285Y-116612251D02*
X113468904Y-116709013D01*
X113468904Y-116709013D02*
X113420523Y-116757394D01*
X113420523Y-116757394D02*
X113323761Y-116805774D01*
X113323761Y-116805774D02*
X113130237Y-116805774D01*
X113130237Y-116805774D02*
X113033475Y-116757394D01*
X113033475Y-116757394D02*
X112985094Y-116709013D01*
X112985094Y-116709013D02*
X112936713Y-116612251D01*
X112936713Y-116612251D02*
X112936713Y-116370346D01*
X112936713Y-116370346D02*
X112985094Y-116273584D01*
X112985094Y-116273584D02*
X113033475Y-116225203D01*
X113033475Y-116225203D02*
X113130237Y-116176822D01*
X113130237Y-116176822D02*
X113323761Y-116176822D01*
X113323761Y-116176822D02*
X113420523Y-116225203D01*
X113420523Y-116225203D02*
X113468904Y-116273584D01*
X113468904Y-116273584D02*
X113517285Y-116370346D01*
X122008142Y-113630774D02*
X122346809Y-113146965D01*
X122588714Y-113630774D02*
X122588714Y-112614774D01*
X122588714Y-112614774D02*
X122201666Y-112614774D01*
X122201666Y-112614774D02*
X122104904Y-112663155D01*
X122104904Y-112663155D02*
X122056523Y-112711536D01*
X122056523Y-112711536D02*
X122008142Y-112808298D01*
X122008142Y-112808298D02*
X122008142Y-112953441D01*
X122008142Y-112953441D02*
X122056523Y-113050203D01*
X122056523Y-113050203D02*
X122104904Y-113098584D01*
X122104904Y-113098584D02*
X122201666Y-113146965D01*
X122201666Y-113146965D02*
X122588714Y-113146965D01*
X121040523Y-113630774D02*
X121621095Y-113630774D01*
X121330809Y-113630774D02*
X121330809Y-112614774D01*
X121330809Y-112614774D02*
X121427571Y-112759917D01*
X121427571Y-112759917D02*
X121524333Y-112856679D01*
X121524333Y-112856679D02*
X121621095Y-112905060D01*
X120701857Y-112614774D02*
X120024523Y-112614774D01*
X120024523Y-112614774D02*
X120459952Y-113630774D01*
X114388142Y-120615774D02*
X114726809Y-120131965D01*
X114968714Y-120615774D02*
X114968714Y-119599774D01*
X114968714Y-119599774D02*
X114581666Y-119599774D01*
X114581666Y-119599774D02*
X114484904Y-119648155D01*
X114484904Y-119648155D02*
X114436523Y-119696536D01*
X114436523Y-119696536D02*
X114388142Y-119793298D01*
X114388142Y-119793298D02*
X114388142Y-119938441D01*
X114388142Y-119938441D02*
X114436523Y-120035203D01*
X114436523Y-120035203D02*
X114484904Y-120083584D01*
X114484904Y-120083584D02*
X114581666Y-120131965D01*
X114581666Y-120131965D02*
X114968714Y-120131965D01*
X113420523Y-120615774D02*
X114001095Y-120615774D01*
X113710809Y-120615774D02*
X113710809Y-119599774D01*
X113710809Y-119599774D02*
X113807571Y-119744917D01*
X113807571Y-119744917D02*
X113904333Y-119841679D01*
X113904333Y-119841679D02*
X114001095Y-119890060D01*
X112791571Y-119599774D02*
X112694809Y-119599774D01*
X112694809Y-119599774D02*
X112598047Y-119648155D01*
X112598047Y-119648155D02*
X112549666Y-119696536D01*
X112549666Y-119696536D02*
X112501285Y-119793298D01*
X112501285Y-119793298D02*
X112452904Y-119986822D01*
X112452904Y-119986822D02*
X112452904Y-120228727D01*
X112452904Y-120228727D02*
X112501285Y-120422251D01*
X112501285Y-120422251D02*
X112549666Y-120519013D01*
X112549666Y-120519013D02*
X112598047Y-120567394D01*
X112598047Y-120567394D02*
X112694809Y-120615774D01*
X112694809Y-120615774D02*
X112791571Y-120615774D01*
X112791571Y-120615774D02*
X112888333Y-120567394D01*
X112888333Y-120567394D02*
X112936714Y-120519013D01*
X112936714Y-120519013D02*
X112985095Y-120422251D01*
X112985095Y-120422251D02*
X113033476Y-120228727D01*
X113033476Y-120228727D02*
X113033476Y-119986822D01*
X113033476Y-119986822D02*
X112985095Y-119793298D01*
X112985095Y-119793298D02*
X112936714Y-119696536D01*
X112936714Y-119696536D02*
X112888333Y-119648155D01*
X112888333Y-119648155D02*
X112791571Y-119599774D01*
X156298142Y-132584013D02*
X156346523Y-132632394D01*
X156346523Y-132632394D02*
X156491666Y-132680774D01*
X156491666Y-132680774D02*
X156588428Y-132680774D01*
X156588428Y-132680774D02*
X156733571Y-132632394D01*
X156733571Y-132632394D02*
X156830333Y-132535632D01*
X156830333Y-132535632D02*
X156878714Y-132438870D01*
X156878714Y-132438870D02*
X156927095Y-132245346D01*
X156927095Y-132245346D02*
X156927095Y-132100203D01*
X156927095Y-132100203D02*
X156878714Y-131906679D01*
X156878714Y-131906679D02*
X156830333Y-131809917D01*
X156830333Y-131809917D02*
X156733571Y-131713155D01*
X156733571Y-131713155D02*
X156588428Y-131664774D01*
X156588428Y-131664774D02*
X156491666Y-131664774D01*
X156491666Y-131664774D02*
X156346523Y-131713155D01*
X156346523Y-131713155D02*
X156298142Y-131761536D01*
X155330523Y-132680774D02*
X155911095Y-132680774D01*
X155620809Y-132680774D02*
X155620809Y-131664774D01*
X155620809Y-131664774D02*
X155717571Y-131809917D01*
X155717571Y-131809917D02*
X155814333Y-131906679D01*
X155814333Y-131906679D02*
X155911095Y-131955060D01*
X154991857Y-131664774D02*
X154314523Y-131664774D01*
X154314523Y-131664774D02*
X154749952Y-132680774D01*
X120738142Y-71624013D02*
X120786523Y-71672394D01*
X120786523Y-71672394D02*
X120931666Y-71720774D01*
X120931666Y-71720774D02*
X121028428Y-71720774D01*
X121028428Y-71720774D02*
X121173571Y-71672394D01*
X121173571Y-71672394D02*
X121270333Y-71575632D01*
X121270333Y-71575632D02*
X121318714Y-71478870D01*
X121318714Y-71478870D02*
X121367095Y-71285346D01*
X121367095Y-71285346D02*
X121367095Y-71140203D01*
X121367095Y-71140203D02*
X121318714Y-70946679D01*
X121318714Y-70946679D02*
X121270333Y-70849917D01*
X121270333Y-70849917D02*
X121173571Y-70753155D01*
X121173571Y-70753155D02*
X121028428Y-70704774D01*
X121028428Y-70704774D02*
X120931666Y-70704774D01*
X120931666Y-70704774D02*
X120786523Y-70753155D01*
X120786523Y-70753155D02*
X120738142Y-70801536D01*
X120399476Y-70704774D02*
X119770523Y-70704774D01*
X119770523Y-70704774D02*
X120109190Y-71091822D01*
X120109190Y-71091822D02*
X119964047Y-71091822D01*
X119964047Y-71091822D02*
X119867285Y-71140203D01*
X119867285Y-71140203D02*
X119818904Y-71188584D01*
X119818904Y-71188584D02*
X119770523Y-71285346D01*
X119770523Y-71285346D02*
X119770523Y-71527251D01*
X119770523Y-71527251D02*
X119818904Y-71624013D01*
X119818904Y-71624013D02*
X119867285Y-71672394D01*
X119867285Y-71672394D02*
X119964047Y-71720774D01*
X119964047Y-71720774D02*
X120254333Y-71720774D01*
X120254333Y-71720774D02*
X120351095Y-71672394D01*
X120351095Y-71672394D02*
X120399476Y-71624013D01*
X118899666Y-70704774D02*
X119093190Y-70704774D01*
X119093190Y-70704774D02*
X119189952Y-70753155D01*
X119189952Y-70753155D02*
X119238333Y-70801536D01*
X119238333Y-70801536D02*
X119335095Y-70946679D01*
X119335095Y-70946679D02*
X119383476Y-71140203D01*
X119383476Y-71140203D02*
X119383476Y-71527251D01*
X119383476Y-71527251D02*
X119335095Y-71624013D01*
X119335095Y-71624013D02*
X119286714Y-71672394D01*
X119286714Y-71672394D02*
X119189952Y-71720774D01*
X119189952Y-71720774D02*
X118996428Y-71720774D01*
X118996428Y-71720774D02*
X118899666Y-71672394D01*
X118899666Y-71672394D02*
X118851285Y-71624013D01*
X118851285Y-71624013D02*
X118802904Y-71527251D01*
X118802904Y-71527251D02*
X118802904Y-71285346D01*
X118802904Y-71285346D02*
X118851285Y-71188584D01*
X118851285Y-71188584D02*
X118899666Y-71140203D01*
X118899666Y-71140203D02*
X118996428Y-71091822D01*
X118996428Y-71091822D02*
X119189952Y-71091822D01*
X119189952Y-71091822D02*
X119286714Y-71140203D01*
X119286714Y-71140203D02*
X119335095Y-71188584D01*
X119335095Y-71188584D02*
X119383476Y-71285346D01*
X113904332Y-118710774D02*
X114242999Y-118226965D01*
X114484904Y-118710774D02*
X114484904Y-117694774D01*
X114484904Y-117694774D02*
X114097856Y-117694774D01*
X114097856Y-117694774D02*
X114001094Y-117743155D01*
X114001094Y-117743155D02*
X113952713Y-117791536D01*
X113952713Y-117791536D02*
X113904332Y-117888298D01*
X113904332Y-117888298D02*
X113904332Y-118033441D01*
X113904332Y-118033441D02*
X113952713Y-118130203D01*
X113952713Y-118130203D02*
X114001094Y-118178584D01*
X114001094Y-118178584D02*
X114097856Y-118226965D01*
X114097856Y-118226965D02*
X114484904Y-118226965D01*
X113323761Y-118130203D02*
X113420523Y-118081822D01*
X113420523Y-118081822D02*
X113468904Y-118033441D01*
X113468904Y-118033441D02*
X113517285Y-117936679D01*
X113517285Y-117936679D02*
X113517285Y-117888298D01*
X113517285Y-117888298D02*
X113468904Y-117791536D01*
X113468904Y-117791536D02*
X113420523Y-117743155D01*
X113420523Y-117743155D02*
X113323761Y-117694774D01*
X113323761Y-117694774D02*
X113130237Y-117694774D01*
X113130237Y-117694774D02*
X113033475Y-117743155D01*
X113033475Y-117743155D02*
X112985094Y-117791536D01*
X112985094Y-117791536D02*
X112936713Y-117888298D01*
X112936713Y-117888298D02*
X112936713Y-117936679D01*
X112936713Y-117936679D02*
X112985094Y-118033441D01*
X112985094Y-118033441D02*
X113033475Y-118081822D01*
X113033475Y-118081822D02*
X113130237Y-118130203D01*
X113130237Y-118130203D02*
X113323761Y-118130203D01*
X113323761Y-118130203D02*
X113420523Y-118178584D01*
X113420523Y-118178584D02*
X113468904Y-118226965D01*
X113468904Y-118226965D02*
X113517285Y-118323727D01*
X113517285Y-118323727D02*
X113517285Y-118517251D01*
X113517285Y-118517251D02*
X113468904Y-118614013D01*
X113468904Y-118614013D02*
X113420523Y-118662394D01*
X113420523Y-118662394D02*
X113323761Y-118710774D01*
X113323761Y-118710774D02*
X113130237Y-118710774D01*
X113130237Y-118710774D02*
X113033475Y-118662394D01*
X113033475Y-118662394D02*
X112985094Y-118614013D01*
X112985094Y-118614013D02*
X112936713Y-118517251D01*
X112936713Y-118517251D02*
X112936713Y-118323727D01*
X112936713Y-118323727D02*
X112985094Y-118226965D01*
X112985094Y-118226965D02*
X113033475Y-118178584D01*
X113033475Y-118178584D02*
X113130237Y-118130203D01*
X136129332Y-110994013D02*
X136177713Y-111042394D01*
X136177713Y-111042394D02*
X136322856Y-111090774D01*
X136322856Y-111090774D02*
X136419618Y-111090774D01*
X136419618Y-111090774D02*
X136564761Y-111042394D01*
X136564761Y-111042394D02*
X136661523Y-110945632D01*
X136661523Y-110945632D02*
X136709904Y-110848870D01*
X136709904Y-110848870D02*
X136758285Y-110655346D01*
X136758285Y-110655346D02*
X136758285Y-110510203D01*
X136758285Y-110510203D02*
X136709904Y-110316679D01*
X136709904Y-110316679D02*
X136661523Y-110219917D01*
X136661523Y-110219917D02*
X136564761Y-110123155D01*
X136564761Y-110123155D02*
X136419618Y-110074774D01*
X136419618Y-110074774D02*
X136322856Y-110074774D01*
X136322856Y-110074774D02*
X136177713Y-110123155D01*
X136177713Y-110123155D02*
X136129332Y-110171536D01*
X135790666Y-110074774D02*
X135113332Y-110074774D01*
X135113332Y-110074774D02*
X135548761Y-111090774D01*
X133438142Y-66544013D02*
X133486523Y-66592394D01*
X133486523Y-66592394D02*
X133631666Y-66640774D01*
X133631666Y-66640774D02*
X133728428Y-66640774D01*
X133728428Y-66640774D02*
X133873571Y-66592394D01*
X133873571Y-66592394D02*
X133970333Y-66495632D01*
X133970333Y-66495632D02*
X134018714Y-66398870D01*
X134018714Y-66398870D02*
X134067095Y-66205346D01*
X134067095Y-66205346D02*
X134067095Y-66060203D01*
X134067095Y-66060203D02*
X134018714Y-65866679D01*
X134018714Y-65866679D02*
X133970333Y-65769917D01*
X133970333Y-65769917D02*
X133873571Y-65673155D01*
X133873571Y-65673155D02*
X133728428Y-65624774D01*
X133728428Y-65624774D02*
X133631666Y-65624774D01*
X133631666Y-65624774D02*
X133486523Y-65673155D01*
X133486523Y-65673155D02*
X133438142Y-65721536D01*
X133099476Y-65624774D02*
X132470523Y-65624774D01*
X132470523Y-65624774D02*
X132809190Y-66011822D01*
X132809190Y-66011822D02*
X132664047Y-66011822D01*
X132664047Y-66011822D02*
X132567285Y-66060203D01*
X132567285Y-66060203D02*
X132518904Y-66108584D01*
X132518904Y-66108584D02*
X132470523Y-66205346D01*
X132470523Y-66205346D02*
X132470523Y-66447251D01*
X132470523Y-66447251D02*
X132518904Y-66544013D01*
X132518904Y-66544013D02*
X132567285Y-66592394D01*
X132567285Y-66592394D02*
X132664047Y-66640774D01*
X132664047Y-66640774D02*
X132954333Y-66640774D01*
X132954333Y-66640774D02*
X133051095Y-66592394D01*
X133051095Y-66592394D02*
X133099476Y-66544013D01*
X131599666Y-65963441D02*
X131599666Y-66640774D01*
X131841571Y-65576394D02*
X132083476Y-66302108D01*
X132083476Y-66302108D02*
X131454523Y-66302108D01*
X127723142Y-131410774D02*
X128061809Y-130926965D01*
X128303714Y-131410774D02*
X128303714Y-130394774D01*
X128303714Y-130394774D02*
X127916666Y-130394774D01*
X127916666Y-130394774D02*
X127819904Y-130443155D01*
X127819904Y-130443155D02*
X127771523Y-130491536D01*
X127771523Y-130491536D02*
X127723142Y-130588298D01*
X127723142Y-130588298D02*
X127723142Y-130733441D01*
X127723142Y-130733441D02*
X127771523Y-130830203D01*
X127771523Y-130830203D02*
X127819904Y-130878584D01*
X127819904Y-130878584D02*
X127916666Y-130926965D01*
X127916666Y-130926965D02*
X128303714Y-130926965D01*
X126755523Y-131410774D02*
X127336095Y-131410774D01*
X127045809Y-131410774D02*
X127045809Y-130394774D01*
X127045809Y-130394774D02*
X127142571Y-130539917D01*
X127142571Y-130539917D02*
X127239333Y-130636679D01*
X127239333Y-130636679D02*
X127336095Y-130685060D01*
X126174952Y-130830203D02*
X126271714Y-130781822D01*
X126271714Y-130781822D02*
X126320095Y-130733441D01*
X126320095Y-130733441D02*
X126368476Y-130636679D01*
X126368476Y-130636679D02*
X126368476Y-130588298D01*
X126368476Y-130588298D02*
X126320095Y-130491536D01*
X126320095Y-130491536D02*
X126271714Y-130443155D01*
X126271714Y-130443155D02*
X126174952Y-130394774D01*
X126174952Y-130394774D02*
X125981428Y-130394774D01*
X125981428Y-130394774D02*
X125884666Y-130443155D01*
X125884666Y-130443155D02*
X125836285Y-130491536D01*
X125836285Y-130491536D02*
X125787904Y-130588298D01*
X125787904Y-130588298D02*
X125787904Y-130636679D01*
X125787904Y-130636679D02*
X125836285Y-130733441D01*
X125836285Y-130733441D02*
X125884666Y-130781822D01*
X125884666Y-130781822D02*
X125981428Y-130830203D01*
X125981428Y-130830203D02*
X126174952Y-130830203D01*
X126174952Y-130830203D02*
X126271714Y-130878584D01*
X126271714Y-130878584D02*
X126320095Y-130926965D01*
X126320095Y-130926965D02*
X126368476Y-131023727D01*
X126368476Y-131023727D02*
X126368476Y-131217251D01*
X126368476Y-131217251D02*
X126320095Y-131314013D01*
X126320095Y-131314013D02*
X126271714Y-131362394D01*
X126271714Y-131362394D02*
X126174952Y-131410774D01*
X126174952Y-131410774D02*
X125981428Y-131410774D01*
X125981428Y-131410774D02*
X125884666Y-131362394D01*
X125884666Y-131362394D02*
X125836285Y-131314013D01*
X125836285Y-131314013D02*
X125787904Y-131217251D01*
X125787904Y-131217251D02*
X125787904Y-131023727D01*
X125787904Y-131023727D02*
X125836285Y-130926965D01*
X125836285Y-130926965D02*
X125884666Y-130878584D01*
X125884666Y-130878584D02*
X125981428Y-130830203D01*
X114388142Y-122520774D02*
X114726809Y-122036965D01*
X114968714Y-122520774D02*
X114968714Y-121504774D01*
X114968714Y-121504774D02*
X114581666Y-121504774D01*
X114581666Y-121504774D02*
X114484904Y-121553155D01*
X114484904Y-121553155D02*
X114436523Y-121601536D01*
X114436523Y-121601536D02*
X114388142Y-121698298D01*
X114388142Y-121698298D02*
X114388142Y-121843441D01*
X114388142Y-121843441D02*
X114436523Y-121940203D01*
X114436523Y-121940203D02*
X114484904Y-121988584D01*
X114484904Y-121988584D02*
X114581666Y-122036965D01*
X114581666Y-122036965D02*
X114968714Y-122036965D01*
X113420523Y-122520774D02*
X114001095Y-122520774D01*
X113710809Y-122520774D02*
X113710809Y-121504774D01*
X113710809Y-121504774D02*
X113807571Y-121649917D01*
X113807571Y-121649917D02*
X113904333Y-121746679D01*
X113904333Y-121746679D02*
X114001095Y-121795060D01*
X113033476Y-121601536D02*
X112985095Y-121553155D01*
X112985095Y-121553155D02*
X112888333Y-121504774D01*
X112888333Y-121504774D02*
X112646428Y-121504774D01*
X112646428Y-121504774D02*
X112549666Y-121553155D01*
X112549666Y-121553155D02*
X112501285Y-121601536D01*
X112501285Y-121601536D02*
X112452904Y-121698298D01*
X112452904Y-121698298D02*
X112452904Y-121795060D01*
X112452904Y-121795060D02*
X112501285Y-121940203D01*
X112501285Y-121940203D02*
X113081857Y-122520774D01*
X113081857Y-122520774D02*
X112452904Y-122520774D01*
X129628142Y-71085774D02*
X129966809Y-70601965D01*
X130208714Y-71085774D02*
X130208714Y-70069774D01*
X130208714Y-70069774D02*
X129821666Y-70069774D01*
X129821666Y-70069774D02*
X129724904Y-70118155D01*
X129724904Y-70118155D02*
X129676523Y-70166536D01*
X129676523Y-70166536D02*
X129628142Y-70263298D01*
X129628142Y-70263298D02*
X129628142Y-70408441D01*
X129628142Y-70408441D02*
X129676523Y-70505203D01*
X129676523Y-70505203D02*
X129724904Y-70553584D01*
X129724904Y-70553584D02*
X129821666Y-70601965D01*
X129821666Y-70601965D02*
X130208714Y-70601965D01*
X129289476Y-70069774D02*
X128660523Y-70069774D01*
X128660523Y-70069774D02*
X128999190Y-70456822D01*
X128999190Y-70456822D02*
X128854047Y-70456822D01*
X128854047Y-70456822D02*
X128757285Y-70505203D01*
X128757285Y-70505203D02*
X128708904Y-70553584D01*
X128708904Y-70553584D02*
X128660523Y-70650346D01*
X128660523Y-70650346D02*
X128660523Y-70892251D01*
X128660523Y-70892251D02*
X128708904Y-70989013D01*
X128708904Y-70989013D02*
X128757285Y-71037394D01*
X128757285Y-71037394D02*
X128854047Y-71085774D01*
X128854047Y-71085774D02*
X129144333Y-71085774D01*
X129144333Y-71085774D02*
X129241095Y-71037394D01*
X129241095Y-71037394D02*
X129289476Y-70989013D01*
X127789666Y-70408441D02*
X127789666Y-71085774D01*
X128031571Y-70021394D02*
X128273476Y-70747108D01*
X128273476Y-70747108D02*
X127644523Y-70747108D01*
X137248142Y-61464013D02*
X137296523Y-61512394D01*
X137296523Y-61512394D02*
X137441666Y-61560774D01*
X137441666Y-61560774D02*
X137538428Y-61560774D01*
X137538428Y-61560774D02*
X137683571Y-61512394D01*
X137683571Y-61512394D02*
X137780333Y-61415632D01*
X137780333Y-61415632D02*
X137828714Y-61318870D01*
X137828714Y-61318870D02*
X137877095Y-61125346D01*
X137877095Y-61125346D02*
X137877095Y-60980203D01*
X137877095Y-60980203D02*
X137828714Y-60786679D01*
X137828714Y-60786679D02*
X137780333Y-60689917D01*
X137780333Y-60689917D02*
X137683571Y-60593155D01*
X137683571Y-60593155D02*
X137538428Y-60544774D01*
X137538428Y-60544774D02*
X137441666Y-60544774D01*
X137441666Y-60544774D02*
X137296523Y-60593155D01*
X137296523Y-60593155D02*
X137248142Y-60641536D01*
X136280523Y-61560774D02*
X136861095Y-61560774D01*
X136570809Y-61560774D02*
X136570809Y-60544774D01*
X136570809Y-60544774D02*
X136667571Y-60689917D01*
X136667571Y-60689917D02*
X136764333Y-60786679D01*
X136764333Y-60786679D02*
X136861095Y-60835060D01*
X135796714Y-61560774D02*
X135603190Y-61560774D01*
X135603190Y-61560774D02*
X135506428Y-61512394D01*
X135506428Y-61512394D02*
X135458047Y-61464013D01*
X135458047Y-61464013D02*
X135361285Y-61318870D01*
X135361285Y-61318870D02*
X135312904Y-61125346D01*
X135312904Y-61125346D02*
X135312904Y-60738298D01*
X135312904Y-60738298D02*
X135361285Y-60641536D01*
X135361285Y-60641536D02*
X135409666Y-60593155D01*
X135409666Y-60593155D02*
X135506428Y-60544774D01*
X135506428Y-60544774D02*
X135699952Y-60544774D01*
X135699952Y-60544774D02*
X135796714Y-60593155D01*
X135796714Y-60593155D02*
X135845095Y-60641536D01*
X135845095Y-60641536D02*
X135893476Y-60738298D01*
X135893476Y-60738298D02*
X135893476Y-60980203D01*
X135893476Y-60980203D02*
X135845095Y-61076965D01*
X135845095Y-61076965D02*
X135796714Y-61125346D01*
X135796714Y-61125346D02*
X135699952Y-61173727D01*
X135699952Y-61173727D02*
X135506428Y-61173727D01*
X135506428Y-61173727D02*
X135409666Y-61125346D01*
X135409666Y-61125346D02*
X135361285Y-61076965D01*
X135361285Y-61076965D02*
X135312904Y-60980203D01*
X113904332Y-114900774D02*
X114242999Y-114416965D01*
X114484904Y-114900774D02*
X114484904Y-113884774D01*
X114484904Y-113884774D02*
X114097856Y-113884774D01*
X114097856Y-113884774D02*
X114001094Y-113933155D01*
X114001094Y-113933155D02*
X113952713Y-113981536D01*
X113952713Y-113981536D02*
X113904332Y-114078298D01*
X113904332Y-114078298D02*
X113904332Y-114223441D01*
X113904332Y-114223441D02*
X113952713Y-114320203D01*
X113952713Y-114320203D02*
X114001094Y-114368584D01*
X114001094Y-114368584D02*
X114097856Y-114416965D01*
X114097856Y-114416965D02*
X114484904Y-114416965D01*
X113033475Y-114223441D02*
X113033475Y-114900774D01*
X113275380Y-113836394D02*
X113517285Y-114562108D01*
X113517285Y-114562108D02*
X112888332Y-114562108D01*
X122008142Y-111725774D02*
X122346809Y-111241965D01*
X122588714Y-111725774D02*
X122588714Y-110709774D01*
X122588714Y-110709774D02*
X122201666Y-110709774D01*
X122201666Y-110709774D02*
X122104904Y-110758155D01*
X122104904Y-110758155D02*
X122056523Y-110806536D01*
X122056523Y-110806536D02*
X122008142Y-110903298D01*
X122008142Y-110903298D02*
X122008142Y-111048441D01*
X122008142Y-111048441D02*
X122056523Y-111145203D01*
X122056523Y-111145203D02*
X122104904Y-111193584D01*
X122104904Y-111193584D02*
X122201666Y-111241965D01*
X122201666Y-111241965D02*
X122588714Y-111241965D01*
X121621095Y-110806536D02*
X121572714Y-110758155D01*
X121572714Y-110758155D02*
X121475952Y-110709774D01*
X121475952Y-110709774D02*
X121234047Y-110709774D01*
X121234047Y-110709774D02*
X121137285Y-110758155D01*
X121137285Y-110758155D02*
X121088904Y-110806536D01*
X121088904Y-110806536D02*
X121040523Y-110903298D01*
X121040523Y-110903298D02*
X121040523Y-111000060D01*
X121040523Y-111000060D02*
X121088904Y-111145203D01*
X121088904Y-111145203D02*
X121669476Y-111725774D01*
X121669476Y-111725774D02*
X121040523Y-111725774D01*
X120072904Y-111725774D02*
X120653476Y-111725774D01*
X120363190Y-111725774D02*
X120363190Y-110709774D01*
X120363190Y-110709774D02*
X120459952Y-110854917D01*
X120459952Y-110854917D02*
X120556714Y-110951679D01*
X120556714Y-110951679D02*
X120653476Y-111000060D01*
X122008142Y-109820774D02*
X122346809Y-109336965D01*
X122588714Y-109820774D02*
X122588714Y-108804774D01*
X122588714Y-108804774D02*
X122201666Y-108804774D01*
X122201666Y-108804774D02*
X122104904Y-108853155D01*
X122104904Y-108853155D02*
X122056523Y-108901536D01*
X122056523Y-108901536D02*
X122008142Y-108998298D01*
X122008142Y-108998298D02*
X122008142Y-109143441D01*
X122008142Y-109143441D02*
X122056523Y-109240203D01*
X122056523Y-109240203D02*
X122104904Y-109288584D01*
X122104904Y-109288584D02*
X122201666Y-109336965D01*
X122201666Y-109336965D02*
X122588714Y-109336965D01*
X121621095Y-108901536D02*
X121572714Y-108853155D01*
X121572714Y-108853155D02*
X121475952Y-108804774D01*
X121475952Y-108804774D02*
X121234047Y-108804774D01*
X121234047Y-108804774D02*
X121137285Y-108853155D01*
X121137285Y-108853155D02*
X121088904Y-108901536D01*
X121088904Y-108901536D02*
X121040523Y-108998298D01*
X121040523Y-108998298D02*
X121040523Y-109095060D01*
X121040523Y-109095060D02*
X121088904Y-109240203D01*
X121088904Y-109240203D02*
X121669476Y-109820774D01*
X121669476Y-109820774D02*
X121040523Y-109820774D01*
X120701857Y-108804774D02*
X120072904Y-108804774D01*
X120072904Y-108804774D02*
X120411571Y-109191822D01*
X120411571Y-109191822D02*
X120266428Y-109191822D01*
X120266428Y-109191822D02*
X120169666Y-109240203D01*
X120169666Y-109240203D02*
X120121285Y-109288584D01*
X120121285Y-109288584D02*
X120072904Y-109385346D01*
X120072904Y-109385346D02*
X120072904Y-109627251D01*
X120072904Y-109627251D02*
X120121285Y-109724013D01*
X120121285Y-109724013D02*
X120169666Y-109772394D01*
X120169666Y-109772394D02*
X120266428Y-109820774D01*
X120266428Y-109820774D02*
X120556714Y-109820774D01*
X120556714Y-109820774D02*
X120653476Y-109772394D01*
X120653476Y-109772394D02*
X120701857Y-109724013D01*
X145503142Y-123694013D02*
X145551523Y-123742394D01*
X145551523Y-123742394D02*
X145696666Y-123790774D01*
X145696666Y-123790774D02*
X145793428Y-123790774D01*
X145793428Y-123790774D02*
X145938571Y-123742394D01*
X145938571Y-123742394D02*
X146035333Y-123645632D01*
X146035333Y-123645632D02*
X146083714Y-123548870D01*
X146083714Y-123548870D02*
X146132095Y-123355346D01*
X146132095Y-123355346D02*
X146132095Y-123210203D01*
X146132095Y-123210203D02*
X146083714Y-123016679D01*
X146083714Y-123016679D02*
X146035333Y-122919917D01*
X146035333Y-122919917D02*
X145938571Y-122823155D01*
X145938571Y-122823155D02*
X145793428Y-122774774D01*
X145793428Y-122774774D02*
X145696666Y-122774774D01*
X145696666Y-122774774D02*
X145551523Y-122823155D01*
X145551523Y-122823155D02*
X145503142Y-122871536D01*
X144535523Y-123790774D02*
X145116095Y-123790774D01*
X144825809Y-123790774D02*
X144825809Y-122774774D01*
X144825809Y-122774774D02*
X144922571Y-122919917D01*
X144922571Y-122919917D02*
X145019333Y-123016679D01*
X145019333Y-123016679D02*
X145116095Y-123065060D01*
X143567904Y-123790774D02*
X144148476Y-123790774D01*
X143858190Y-123790774D02*
X143858190Y-122774774D01*
X143858190Y-122774774D02*
X143954952Y-122919917D01*
X143954952Y-122919917D02*
X144051714Y-123016679D01*
X144051714Y-123016679D02*
X144148476Y-123065060D01*
X145503142Y-121154013D02*
X145551523Y-121202394D01*
X145551523Y-121202394D02*
X145696666Y-121250774D01*
X145696666Y-121250774D02*
X145793428Y-121250774D01*
X145793428Y-121250774D02*
X145938571Y-121202394D01*
X145938571Y-121202394D02*
X146035333Y-121105632D01*
X146035333Y-121105632D02*
X146083714Y-121008870D01*
X146083714Y-121008870D02*
X146132095Y-120815346D01*
X146132095Y-120815346D02*
X146132095Y-120670203D01*
X146132095Y-120670203D02*
X146083714Y-120476679D01*
X146083714Y-120476679D02*
X146035333Y-120379917D01*
X146035333Y-120379917D02*
X145938571Y-120283155D01*
X145938571Y-120283155D02*
X145793428Y-120234774D01*
X145793428Y-120234774D02*
X145696666Y-120234774D01*
X145696666Y-120234774D02*
X145551523Y-120283155D01*
X145551523Y-120283155D02*
X145503142Y-120331536D01*
X144535523Y-121250774D02*
X145116095Y-121250774D01*
X144825809Y-121250774D02*
X144825809Y-120234774D01*
X144825809Y-120234774D02*
X144922571Y-120379917D01*
X144922571Y-120379917D02*
X145019333Y-120476679D01*
X145019333Y-120476679D02*
X145116095Y-120525060D01*
X143906571Y-120234774D02*
X143809809Y-120234774D01*
X143809809Y-120234774D02*
X143713047Y-120283155D01*
X143713047Y-120283155D02*
X143664666Y-120331536D01*
X143664666Y-120331536D02*
X143616285Y-120428298D01*
X143616285Y-120428298D02*
X143567904Y-120621822D01*
X143567904Y-120621822D02*
X143567904Y-120863727D01*
X143567904Y-120863727D02*
X143616285Y-121057251D01*
X143616285Y-121057251D02*
X143664666Y-121154013D01*
X143664666Y-121154013D02*
X143713047Y-121202394D01*
X143713047Y-121202394D02*
X143809809Y-121250774D01*
X143809809Y-121250774D02*
X143906571Y-121250774D01*
X143906571Y-121250774D02*
X144003333Y-121202394D01*
X144003333Y-121202394D02*
X144051714Y-121154013D01*
X144051714Y-121154013D02*
X144100095Y-121057251D01*
X144100095Y-121057251D02*
X144148476Y-120863727D01*
X144148476Y-120863727D02*
X144148476Y-120621822D01*
X144148476Y-120621822D02*
X144100095Y-120428298D01*
X144100095Y-120428298D02*
X144051714Y-120331536D01*
X144051714Y-120331536D02*
X144003333Y-120283155D01*
X144003333Y-120283155D02*
X143906571Y-120234774D01*
X137248142Y-93214013D02*
X137296523Y-93262394D01*
X137296523Y-93262394D02*
X137441666Y-93310774D01*
X137441666Y-93310774D02*
X137538428Y-93310774D01*
X137538428Y-93310774D02*
X137683571Y-93262394D01*
X137683571Y-93262394D02*
X137780333Y-93165632D01*
X137780333Y-93165632D02*
X137828714Y-93068870D01*
X137828714Y-93068870D02*
X137877095Y-92875346D01*
X137877095Y-92875346D02*
X137877095Y-92730203D01*
X137877095Y-92730203D02*
X137828714Y-92536679D01*
X137828714Y-92536679D02*
X137780333Y-92439917D01*
X137780333Y-92439917D02*
X137683571Y-92343155D01*
X137683571Y-92343155D02*
X137538428Y-92294774D01*
X137538428Y-92294774D02*
X137441666Y-92294774D01*
X137441666Y-92294774D02*
X137296523Y-92343155D01*
X137296523Y-92343155D02*
X137248142Y-92391536D01*
X136861095Y-92391536D02*
X136812714Y-92343155D01*
X136812714Y-92343155D02*
X136715952Y-92294774D01*
X136715952Y-92294774D02*
X136474047Y-92294774D01*
X136474047Y-92294774D02*
X136377285Y-92343155D01*
X136377285Y-92343155D02*
X136328904Y-92391536D01*
X136328904Y-92391536D02*
X136280523Y-92488298D01*
X136280523Y-92488298D02*
X136280523Y-92585060D01*
X136280523Y-92585060D02*
X136328904Y-92730203D01*
X136328904Y-92730203D02*
X136909476Y-93310774D01*
X136909476Y-93310774D02*
X136280523Y-93310774D01*
X135893476Y-92391536D02*
X135845095Y-92343155D01*
X135845095Y-92343155D02*
X135748333Y-92294774D01*
X135748333Y-92294774D02*
X135506428Y-92294774D01*
X135506428Y-92294774D02*
X135409666Y-92343155D01*
X135409666Y-92343155D02*
X135361285Y-92391536D01*
X135361285Y-92391536D02*
X135312904Y-92488298D01*
X135312904Y-92488298D02*
X135312904Y-92585060D01*
X135312904Y-92585060D02*
X135361285Y-92730203D01*
X135361285Y-92730203D02*
X135941857Y-93310774D01*
X135941857Y-93310774D02*
X135312904Y-93310774D01*
X133438142Y-71085774D02*
X133776809Y-70601965D01*
X134018714Y-71085774D02*
X134018714Y-70069774D01*
X134018714Y-70069774D02*
X133631666Y-70069774D01*
X133631666Y-70069774D02*
X133534904Y-70118155D01*
X133534904Y-70118155D02*
X133486523Y-70166536D01*
X133486523Y-70166536D02*
X133438142Y-70263298D01*
X133438142Y-70263298D02*
X133438142Y-70408441D01*
X133438142Y-70408441D02*
X133486523Y-70505203D01*
X133486523Y-70505203D02*
X133534904Y-70553584D01*
X133534904Y-70553584D02*
X133631666Y-70601965D01*
X133631666Y-70601965D02*
X134018714Y-70601965D01*
X133099476Y-70069774D02*
X132470523Y-70069774D01*
X132470523Y-70069774D02*
X132809190Y-70456822D01*
X132809190Y-70456822D02*
X132664047Y-70456822D01*
X132664047Y-70456822D02*
X132567285Y-70505203D01*
X132567285Y-70505203D02*
X132518904Y-70553584D01*
X132518904Y-70553584D02*
X132470523Y-70650346D01*
X132470523Y-70650346D02*
X132470523Y-70892251D01*
X132470523Y-70892251D02*
X132518904Y-70989013D01*
X132518904Y-70989013D02*
X132567285Y-71037394D01*
X132567285Y-71037394D02*
X132664047Y-71085774D01*
X132664047Y-71085774D02*
X132954333Y-71085774D01*
X132954333Y-71085774D02*
X133051095Y-71037394D01*
X133051095Y-71037394D02*
X133099476Y-70989013D01*
X131551285Y-70069774D02*
X132035095Y-70069774D01*
X132035095Y-70069774D02*
X132083476Y-70553584D01*
X132083476Y-70553584D02*
X132035095Y-70505203D01*
X132035095Y-70505203D02*
X131938333Y-70456822D01*
X131938333Y-70456822D02*
X131696428Y-70456822D01*
X131696428Y-70456822D02*
X131599666Y-70505203D01*
X131599666Y-70505203D02*
X131551285Y-70553584D01*
X131551285Y-70553584D02*
X131502904Y-70650346D01*
X131502904Y-70650346D02*
X131502904Y-70892251D01*
X131502904Y-70892251D02*
X131551285Y-70989013D01*
X131551285Y-70989013D02*
X131599666Y-71037394D01*
X131599666Y-71037394D02*
X131696428Y-71085774D01*
X131696428Y-71085774D02*
X131938333Y-71085774D01*
X131938333Y-71085774D02*
X132035095Y-71037394D01*
X132035095Y-71037394D02*
X132083476Y-70989013D01*
X116928142Y-71624013D02*
X116976523Y-71672394D01*
X116976523Y-71672394D02*
X117121666Y-71720774D01*
X117121666Y-71720774D02*
X117218428Y-71720774D01*
X117218428Y-71720774D02*
X117363571Y-71672394D01*
X117363571Y-71672394D02*
X117460333Y-71575632D01*
X117460333Y-71575632D02*
X117508714Y-71478870D01*
X117508714Y-71478870D02*
X117557095Y-71285346D01*
X117557095Y-71285346D02*
X117557095Y-71140203D01*
X117557095Y-71140203D02*
X117508714Y-70946679D01*
X117508714Y-70946679D02*
X117460333Y-70849917D01*
X117460333Y-70849917D02*
X117363571Y-70753155D01*
X117363571Y-70753155D02*
X117218428Y-70704774D01*
X117218428Y-70704774D02*
X117121666Y-70704774D01*
X117121666Y-70704774D02*
X116976523Y-70753155D01*
X116976523Y-70753155D02*
X116928142Y-70801536D01*
X116589476Y-70704774D02*
X115960523Y-70704774D01*
X115960523Y-70704774D02*
X116299190Y-71091822D01*
X116299190Y-71091822D02*
X116154047Y-71091822D01*
X116154047Y-71091822D02*
X116057285Y-71140203D01*
X116057285Y-71140203D02*
X116008904Y-71188584D01*
X116008904Y-71188584D02*
X115960523Y-71285346D01*
X115960523Y-71285346D02*
X115960523Y-71527251D01*
X115960523Y-71527251D02*
X116008904Y-71624013D01*
X116008904Y-71624013D02*
X116057285Y-71672394D01*
X116057285Y-71672394D02*
X116154047Y-71720774D01*
X116154047Y-71720774D02*
X116444333Y-71720774D01*
X116444333Y-71720774D02*
X116541095Y-71672394D01*
X116541095Y-71672394D02*
X116589476Y-71624013D01*
X115041285Y-70704774D02*
X115525095Y-70704774D01*
X115525095Y-70704774D02*
X115573476Y-71188584D01*
X115573476Y-71188584D02*
X115525095Y-71140203D01*
X115525095Y-71140203D02*
X115428333Y-71091822D01*
X115428333Y-71091822D02*
X115186428Y-71091822D01*
X115186428Y-71091822D02*
X115089666Y-71140203D01*
X115089666Y-71140203D02*
X115041285Y-71188584D01*
X115041285Y-71188584D02*
X114992904Y-71285346D01*
X114992904Y-71285346D02*
X114992904Y-71527251D01*
X114992904Y-71527251D02*
X115041285Y-71624013D01*
X115041285Y-71624013D02*
X115089666Y-71672394D01*
X115089666Y-71672394D02*
X115186428Y-71720774D01*
X115186428Y-71720774D02*
X115428333Y-71720774D01*
X115428333Y-71720774D02*
X115525095Y-71672394D01*
X115525095Y-71672394D02*
X115573476Y-71624013D01*
X130898142Y-131410774D02*
X131236809Y-130926965D01*
X131478714Y-131410774D02*
X131478714Y-130394774D01*
X131478714Y-130394774D02*
X131091666Y-130394774D01*
X131091666Y-130394774D02*
X130994904Y-130443155D01*
X130994904Y-130443155D02*
X130946523Y-130491536D01*
X130946523Y-130491536D02*
X130898142Y-130588298D01*
X130898142Y-130588298D02*
X130898142Y-130733441D01*
X130898142Y-130733441D02*
X130946523Y-130830203D01*
X130946523Y-130830203D02*
X130994904Y-130878584D01*
X130994904Y-130878584D02*
X131091666Y-130926965D01*
X131091666Y-130926965D02*
X131478714Y-130926965D01*
X130511095Y-130491536D02*
X130462714Y-130443155D01*
X130462714Y-130443155D02*
X130365952Y-130394774D01*
X130365952Y-130394774D02*
X130124047Y-130394774D01*
X130124047Y-130394774D02*
X130027285Y-130443155D01*
X130027285Y-130443155D02*
X129978904Y-130491536D01*
X129978904Y-130491536D02*
X129930523Y-130588298D01*
X129930523Y-130588298D02*
X129930523Y-130685060D01*
X129930523Y-130685060D02*
X129978904Y-130830203D01*
X129978904Y-130830203D02*
X130559476Y-131410774D01*
X130559476Y-131410774D02*
X129930523Y-131410774D01*
X129543476Y-130491536D02*
X129495095Y-130443155D01*
X129495095Y-130443155D02*
X129398333Y-130394774D01*
X129398333Y-130394774D02*
X129156428Y-130394774D01*
X129156428Y-130394774D02*
X129059666Y-130443155D01*
X129059666Y-130443155D02*
X129011285Y-130491536D01*
X129011285Y-130491536D02*
X128962904Y-130588298D01*
X128962904Y-130588298D02*
X128962904Y-130685060D01*
X128962904Y-130685060D02*
X129011285Y-130830203D01*
X129011285Y-130830203D02*
X129591857Y-131410774D01*
X129591857Y-131410774D02*
X128962904Y-131410774D01*
X136129332Y-113534013D02*
X136177713Y-113582394D01*
X136177713Y-113582394D02*
X136322856Y-113630774D01*
X136322856Y-113630774D02*
X136419618Y-113630774D01*
X136419618Y-113630774D02*
X136564761Y-113582394D01*
X136564761Y-113582394D02*
X136661523Y-113485632D01*
X136661523Y-113485632D02*
X136709904Y-113388870D01*
X136709904Y-113388870D02*
X136758285Y-113195346D01*
X136758285Y-113195346D02*
X136758285Y-113050203D01*
X136758285Y-113050203D02*
X136709904Y-112856679D01*
X136709904Y-112856679D02*
X136661523Y-112759917D01*
X136661523Y-112759917D02*
X136564761Y-112663155D01*
X136564761Y-112663155D02*
X136419618Y-112614774D01*
X136419618Y-112614774D02*
X136322856Y-112614774D01*
X136322856Y-112614774D02*
X136177713Y-112663155D01*
X136177713Y-112663155D02*
X136129332Y-112711536D01*
X135258475Y-112614774D02*
X135451999Y-112614774D01*
X135451999Y-112614774D02*
X135548761Y-112663155D01*
X135548761Y-112663155D02*
X135597142Y-112711536D01*
X135597142Y-112711536D02*
X135693904Y-112856679D01*
X135693904Y-112856679D02*
X135742285Y-113050203D01*
X135742285Y-113050203D02*
X135742285Y-113437251D01*
X135742285Y-113437251D02*
X135693904Y-113534013D01*
X135693904Y-113534013D02*
X135645523Y-113582394D01*
X135645523Y-113582394D02*
X135548761Y-113630774D01*
X135548761Y-113630774D02*
X135355237Y-113630774D01*
X135355237Y-113630774D02*
X135258475Y-113582394D01*
X135258475Y-113582394D02*
X135210094Y-113534013D01*
X135210094Y-113534013D02*
X135161713Y-113437251D01*
X135161713Y-113437251D02*
X135161713Y-113195346D01*
X135161713Y-113195346D02*
X135210094Y-113098584D01*
X135210094Y-113098584D02*
X135258475Y-113050203D01*
X135258475Y-113050203D02*
X135355237Y-113001822D01*
X135355237Y-113001822D02*
X135548761Y-113001822D01*
X135548761Y-113001822D02*
X135645523Y-113050203D01*
X135645523Y-113050203D02*
X135693904Y-113098584D01*
X135693904Y-113098584D02*
X135742285Y-113195346D01*
X146773142Y-56384013D02*
X146821523Y-56432394D01*
X146821523Y-56432394D02*
X146966666Y-56480774D01*
X146966666Y-56480774D02*
X147063428Y-56480774D01*
X147063428Y-56480774D02*
X147208571Y-56432394D01*
X147208571Y-56432394D02*
X147305333Y-56335632D01*
X147305333Y-56335632D02*
X147353714Y-56238870D01*
X147353714Y-56238870D02*
X147402095Y-56045346D01*
X147402095Y-56045346D02*
X147402095Y-55900203D01*
X147402095Y-55900203D02*
X147353714Y-55706679D01*
X147353714Y-55706679D02*
X147305333Y-55609917D01*
X147305333Y-55609917D02*
X147208571Y-55513155D01*
X147208571Y-55513155D02*
X147063428Y-55464774D01*
X147063428Y-55464774D02*
X146966666Y-55464774D01*
X146966666Y-55464774D02*
X146821523Y-55513155D01*
X146821523Y-55513155D02*
X146773142Y-55561536D01*
X146434476Y-55464774D02*
X145805523Y-55464774D01*
X145805523Y-55464774D02*
X146144190Y-55851822D01*
X146144190Y-55851822D02*
X145999047Y-55851822D01*
X145999047Y-55851822D02*
X145902285Y-55900203D01*
X145902285Y-55900203D02*
X145853904Y-55948584D01*
X145853904Y-55948584D02*
X145805523Y-56045346D01*
X145805523Y-56045346D02*
X145805523Y-56287251D01*
X145805523Y-56287251D02*
X145853904Y-56384013D01*
X145853904Y-56384013D02*
X145902285Y-56432394D01*
X145902285Y-56432394D02*
X145999047Y-56480774D01*
X145999047Y-56480774D02*
X146289333Y-56480774D01*
X146289333Y-56480774D02*
X146386095Y-56432394D01*
X146386095Y-56432394D02*
X146434476Y-56384013D01*
X144837904Y-56480774D02*
X145418476Y-56480774D01*
X145128190Y-56480774D02*
X145128190Y-55464774D01*
X145128190Y-55464774D02*
X145224952Y-55609917D01*
X145224952Y-55609917D02*
X145321714Y-55706679D01*
X145321714Y-55706679D02*
X145418476Y-55755060D01*
X114388142Y-124425774D02*
X114726809Y-123941965D01*
X114968714Y-124425774D02*
X114968714Y-123409774D01*
X114968714Y-123409774D02*
X114581666Y-123409774D01*
X114581666Y-123409774D02*
X114484904Y-123458155D01*
X114484904Y-123458155D02*
X114436523Y-123506536D01*
X114436523Y-123506536D02*
X114388142Y-123603298D01*
X114388142Y-123603298D02*
X114388142Y-123748441D01*
X114388142Y-123748441D02*
X114436523Y-123845203D01*
X114436523Y-123845203D02*
X114484904Y-123893584D01*
X114484904Y-123893584D02*
X114581666Y-123941965D01*
X114581666Y-123941965D02*
X114968714Y-123941965D01*
X113420523Y-124425774D02*
X114001095Y-124425774D01*
X113710809Y-124425774D02*
X113710809Y-123409774D01*
X113710809Y-123409774D02*
X113807571Y-123554917D01*
X113807571Y-123554917D02*
X113904333Y-123651679D01*
X113904333Y-123651679D02*
X114001095Y-123700060D01*
X112549666Y-123748441D02*
X112549666Y-124425774D01*
X112791571Y-123361394D02*
X113033476Y-124087108D01*
X113033476Y-124087108D02*
X112404523Y-124087108D01*
X133438142Y-69084013D02*
X133486523Y-69132394D01*
X133486523Y-69132394D02*
X133631666Y-69180774D01*
X133631666Y-69180774D02*
X133728428Y-69180774D01*
X133728428Y-69180774D02*
X133873571Y-69132394D01*
X133873571Y-69132394D02*
X133970333Y-69035632D01*
X133970333Y-69035632D02*
X134018714Y-68938870D01*
X134018714Y-68938870D02*
X134067095Y-68745346D01*
X134067095Y-68745346D02*
X134067095Y-68600203D01*
X134067095Y-68600203D02*
X134018714Y-68406679D01*
X134018714Y-68406679D02*
X133970333Y-68309917D01*
X133970333Y-68309917D02*
X133873571Y-68213155D01*
X133873571Y-68213155D02*
X133728428Y-68164774D01*
X133728428Y-68164774D02*
X133631666Y-68164774D01*
X133631666Y-68164774D02*
X133486523Y-68213155D01*
X133486523Y-68213155D02*
X133438142Y-68261536D01*
X133099476Y-68164774D02*
X132470523Y-68164774D01*
X132470523Y-68164774D02*
X132809190Y-68551822D01*
X132809190Y-68551822D02*
X132664047Y-68551822D01*
X132664047Y-68551822D02*
X132567285Y-68600203D01*
X132567285Y-68600203D02*
X132518904Y-68648584D01*
X132518904Y-68648584D02*
X132470523Y-68745346D01*
X132470523Y-68745346D02*
X132470523Y-68987251D01*
X132470523Y-68987251D02*
X132518904Y-69084013D01*
X132518904Y-69084013D02*
X132567285Y-69132394D01*
X132567285Y-69132394D02*
X132664047Y-69180774D01*
X132664047Y-69180774D02*
X132954333Y-69180774D01*
X132954333Y-69180774D02*
X133051095Y-69132394D01*
X133051095Y-69132394D02*
X133099476Y-69084013D01*
X132131857Y-68164774D02*
X131502904Y-68164774D01*
X131502904Y-68164774D02*
X131841571Y-68551822D01*
X131841571Y-68551822D02*
X131696428Y-68551822D01*
X131696428Y-68551822D02*
X131599666Y-68600203D01*
X131599666Y-68600203D02*
X131551285Y-68648584D01*
X131551285Y-68648584D02*
X131502904Y-68745346D01*
X131502904Y-68745346D02*
X131502904Y-68987251D01*
X131502904Y-68987251D02*
X131551285Y-69084013D01*
X131551285Y-69084013D02*
X131599666Y-69132394D01*
X131599666Y-69132394D02*
X131696428Y-69180774D01*
X131696428Y-69180774D02*
X131986714Y-69180774D01*
X131986714Y-69180774D02*
X132083476Y-69132394D01*
X132083476Y-69132394D02*
X132131857Y-69084013D01*
X137248142Y-64004013D02*
X137296523Y-64052394D01*
X137296523Y-64052394D02*
X137441666Y-64100774D01*
X137441666Y-64100774D02*
X137538428Y-64100774D01*
X137538428Y-64100774D02*
X137683571Y-64052394D01*
X137683571Y-64052394D02*
X137780333Y-63955632D01*
X137780333Y-63955632D02*
X137828714Y-63858870D01*
X137828714Y-63858870D02*
X137877095Y-63665346D01*
X137877095Y-63665346D02*
X137877095Y-63520203D01*
X137877095Y-63520203D02*
X137828714Y-63326679D01*
X137828714Y-63326679D02*
X137780333Y-63229917D01*
X137780333Y-63229917D02*
X137683571Y-63133155D01*
X137683571Y-63133155D02*
X137538428Y-63084774D01*
X137538428Y-63084774D02*
X137441666Y-63084774D01*
X137441666Y-63084774D02*
X137296523Y-63133155D01*
X137296523Y-63133155D02*
X137248142Y-63181536D01*
X136861095Y-63181536D02*
X136812714Y-63133155D01*
X136812714Y-63133155D02*
X136715952Y-63084774D01*
X136715952Y-63084774D02*
X136474047Y-63084774D01*
X136474047Y-63084774D02*
X136377285Y-63133155D01*
X136377285Y-63133155D02*
X136328904Y-63181536D01*
X136328904Y-63181536D02*
X136280523Y-63278298D01*
X136280523Y-63278298D02*
X136280523Y-63375060D01*
X136280523Y-63375060D02*
X136328904Y-63520203D01*
X136328904Y-63520203D02*
X136909476Y-64100774D01*
X136909476Y-64100774D02*
X136280523Y-64100774D01*
X135312904Y-64100774D02*
X135893476Y-64100774D01*
X135603190Y-64100774D02*
X135603190Y-63084774D01*
X135603190Y-63084774D02*
X135699952Y-63229917D01*
X135699952Y-63229917D02*
X135796714Y-63326679D01*
X135796714Y-63326679D02*
X135893476Y-63375060D01*
X156298142Y-116074013D02*
X156346523Y-116122394D01*
X156346523Y-116122394D02*
X156491666Y-116170774D01*
X156491666Y-116170774D02*
X156588428Y-116170774D01*
X156588428Y-116170774D02*
X156733571Y-116122394D01*
X156733571Y-116122394D02*
X156830333Y-116025632D01*
X156830333Y-116025632D02*
X156878714Y-115928870D01*
X156878714Y-115928870D02*
X156927095Y-115735346D01*
X156927095Y-115735346D02*
X156927095Y-115590203D01*
X156927095Y-115590203D02*
X156878714Y-115396679D01*
X156878714Y-115396679D02*
X156830333Y-115299917D01*
X156830333Y-115299917D02*
X156733571Y-115203155D01*
X156733571Y-115203155D02*
X156588428Y-115154774D01*
X156588428Y-115154774D02*
X156491666Y-115154774D01*
X156491666Y-115154774D02*
X156346523Y-115203155D01*
X156346523Y-115203155D02*
X156298142Y-115251536D01*
X155330523Y-116170774D02*
X155911095Y-116170774D01*
X155620809Y-116170774D02*
X155620809Y-115154774D01*
X155620809Y-115154774D02*
X155717571Y-115299917D01*
X155717571Y-115299917D02*
X155814333Y-115396679D01*
X155814333Y-115396679D02*
X155911095Y-115445060D01*
X154459666Y-115154774D02*
X154653190Y-115154774D01*
X154653190Y-115154774D02*
X154749952Y-115203155D01*
X154749952Y-115203155D02*
X154798333Y-115251536D01*
X154798333Y-115251536D02*
X154895095Y-115396679D01*
X154895095Y-115396679D02*
X154943476Y-115590203D01*
X154943476Y-115590203D02*
X154943476Y-115977251D01*
X154943476Y-115977251D02*
X154895095Y-116074013D01*
X154895095Y-116074013D02*
X154846714Y-116122394D01*
X154846714Y-116122394D02*
X154749952Y-116170774D01*
X154749952Y-116170774D02*
X154556428Y-116170774D01*
X154556428Y-116170774D02*
X154459666Y-116122394D01*
X154459666Y-116122394D02*
X154411285Y-116074013D01*
X154411285Y-116074013D02*
X154362904Y-115977251D01*
X154362904Y-115977251D02*
X154362904Y-115735346D01*
X154362904Y-115735346D02*
X154411285Y-115638584D01*
X154411285Y-115638584D02*
X154459666Y-115590203D01*
X154459666Y-115590203D02*
X154556428Y-115541822D01*
X154556428Y-115541822D02*
X154749952Y-115541822D01*
X154749952Y-115541822D02*
X154846714Y-115590203D01*
X154846714Y-115590203D02*
X154895095Y-115638584D01*
X154895095Y-115638584D02*
X154943476Y-115735346D01*
X144384332Y-114804013D02*
X144432713Y-114852394D01*
X144432713Y-114852394D02*
X144577856Y-114900774D01*
X144577856Y-114900774D02*
X144674618Y-114900774D01*
X144674618Y-114900774D02*
X144819761Y-114852394D01*
X144819761Y-114852394D02*
X144916523Y-114755632D01*
X144916523Y-114755632D02*
X144964904Y-114658870D01*
X144964904Y-114658870D02*
X145013285Y-114465346D01*
X145013285Y-114465346D02*
X145013285Y-114320203D01*
X145013285Y-114320203D02*
X144964904Y-114126679D01*
X144964904Y-114126679D02*
X144916523Y-114029917D01*
X144916523Y-114029917D02*
X144819761Y-113933155D01*
X144819761Y-113933155D02*
X144674618Y-113884774D01*
X144674618Y-113884774D02*
X144577856Y-113884774D01*
X144577856Y-113884774D02*
X144432713Y-113933155D01*
X144432713Y-113933155D02*
X144384332Y-113981536D01*
X143803761Y-114320203D02*
X143900523Y-114271822D01*
X143900523Y-114271822D02*
X143948904Y-114223441D01*
X143948904Y-114223441D02*
X143997285Y-114126679D01*
X143997285Y-114126679D02*
X143997285Y-114078298D01*
X143997285Y-114078298D02*
X143948904Y-113981536D01*
X143948904Y-113981536D02*
X143900523Y-113933155D01*
X143900523Y-113933155D02*
X143803761Y-113884774D01*
X143803761Y-113884774D02*
X143610237Y-113884774D01*
X143610237Y-113884774D02*
X143513475Y-113933155D01*
X143513475Y-113933155D02*
X143465094Y-113981536D01*
X143465094Y-113981536D02*
X143416713Y-114078298D01*
X143416713Y-114078298D02*
X143416713Y-114126679D01*
X143416713Y-114126679D02*
X143465094Y-114223441D01*
X143465094Y-114223441D02*
X143513475Y-114271822D01*
X143513475Y-114271822D02*
X143610237Y-114320203D01*
X143610237Y-114320203D02*
X143803761Y-114320203D01*
X143803761Y-114320203D02*
X143900523Y-114368584D01*
X143900523Y-114368584D02*
X143948904Y-114416965D01*
X143948904Y-114416965D02*
X143997285Y-114513727D01*
X143997285Y-114513727D02*
X143997285Y-114707251D01*
X143997285Y-114707251D02*
X143948904Y-114804013D01*
X143948904Y-114804013D02*
X143900523Y-114852394D01*
X143900523Y-114852394D02*
X143803761Y-114900774D01*
X143803761Y-114900774D02*
X143610237Y-114900774D01*
X143610237Y-114900774D02*
X143513475Y-114852394D01*
X143513475Y-114852394D02*
X143465094Y-114804013D01*
X143465094Y-114804013D02*
X143416713Y-114707251D01*
X143416713Y-114707251D02*
X143416713Y-114513727D01*
X143416713Y-114513727D02*
X143465094Y-114416965D01*
X143465094Y-114416965D02*
X143513475Y-114368584D01*
X143513475Y-114368584D02*
X143610237Y-114320203D01*
X144384332Y-117344013D02*
X144432713Y-117392394D01*
X144432713Y-117392394D02*
X144577856Y-117440774D01*
X144577856Y-117440774D02*
X144674618Y-117440774D01*
X144674618Y-117440774D02*
X144819761Y-117392394D01*
X144819761Y-117392394D02*
X144916523Y-117295632D01*
X144916523Y-117295632D02*
X144964904Y-117198870D01*
X144964904Y-117198870D02*
X145013285Y-117005346D01*
X145013285Y-117005346D02*
X145013285Y-116860203D01*
X145013285Y-116860203D02*
X144964904Y-116666679D01*
X144964904Y-116666679D02*
X144916523Y-116569917D01*
X144916523Y-116569917D02*
X144819761Y-116473155D01*
X144819761Y-116473155D02*
X144674618Y-116424774D01*
X144674618Y-116424774D02*
X144577856Y-116424774D01*
X144577856Y-116424774D02*
X144432713Y-116473155D01*
X144432713Y-116473155D02*
X144384332Y-116521536D01*
X143900523Y-117440774D02*
X143706999Y-117440774D01*
X143706999Y-117440774D02*
X143610237Y-117392394D01*
X143610237Y-117392394D02*
X143561856Y-117344013D01*
X143561856Y-117344013D02*
X143465094Y-117198870D01*
X143465094Y-117198870D02*
X143416713Y-117005346D01*
X143416713Y-117005346D02*
X143416713Y-116618298D01*
X143416713Y-116618298D02*
X143465094Y-116521536D01*
X143465094Y-116521536D02*
X143513475Y-116473155D01*
X143513475Y-116473155D02*
X143610237Y-116424774D01*
X143610237Y-116424774D02*
X143803761Y-116424774D01*
X143803761Y-116424774D02*
X143900523Y-116473155D01*
X143900523Y-116473155D02*
X143948904Y-116521536D01*
X143948904Y-116521536D02*
X143997285Y-116618298D01*
X143997285Y-116618298D02*
X143997285Y-116860203D01*
X143997285Y-116860203D02*
X143948904Y-116956965D01*
X143948904Y-116956965D02*
X143900523Y-117005346D01*
X143900523Y-117005346D02*
X143803761Y-117053727D01*
X143803761Y-117053727D02*
X143610237Y-117053727D01*
X143610237Y-117053727D02*
X143513475Y-117005346D01*
X143513475Y-117005346D02*
X143465094Y-116956965D01*
X143465094Y-116956965D02*
X143416713Y-116860203D01*
D12*
%TO.C,C32*%
X145385000Y-88031252D02*
X145385000Y-87508748D01*
X146855000Y-88031252D02*
X146855000Y-87508748D01*
%TO.C,C20*%
X133046252Y-89575000D02*
X132523748Y-89575000D01*
X133046252Y-91045000D02*
X132523748Y-91045000D01*
D13*
%TO.C,J1*%
X80995000Y-65594000D02*
X90335000Y-65594000D01*
X80995000Y-121374000D02*
X80995000Y-65594000D01*
D14*
X85035000Y-121929000D02*
X85035000Y-121929000D01*
X85235000Y-121929000D02*
X85235000Y-121929000D01*
D13*
X86835000Y-121374000D02*
X80995000Y-121374000D01*
X89835000Y-121374000D02*
X95675000Y-121374000D01*
X95675000Y-65594000D02*
X92335000Y-65594000D01*
X95675000Y-121374000D02*
X95675000Y-65594000D01*
D14*
X85035000Y-121929000D02*
G75*
G02*
X85235000Y-121929000I100000J0D01*
G01*
X85235000Y-121929000D02*
G75*
G02*
X85035000Y-121929000I-100000J0D01*
G01*
D12*
%TO.C,R6*%
X116682936Y-115610000D02*
X117137064Y-115610000D01*
X116682936Y-117080000D02*
X117137064Y-117080000D01*
%TO.C,R17*%
X125392064Y-112435000D02*
X124937936Y-112435000D01*
X125392064Y-113905000D02*
X124937936Y-113905000D01*
%TO.C,R10*%
X116682936Y-119420000D02*
X117137064Y-119420000D01*
X116682936Y-120890000D02*
X117137064Y-120890000D01*
%TO.C,C17*%
X152370000Y-132481252D02*
X152370000Y-131958748D01*
X153840000Y-132481252D02*
X153840000Y-131958748D01*
%TO.C,C36*%
X118715000Y-74061252D02*
X118715000Y-73538748D01*
X120185000Y-74061252D02*
X120185000Y-73538748D01*
%TO.C,R8*%
X116682936Y-117515000D02*
X117137064Y-117515000D01*
X116682936Y-118985000D02*
X117137064Y-118985000D01*
%TO.C,C7*%
X132756248Y-109895000D02*
X133278752Y-109895000D01*
X132756248Y-111365000D02*
X133278752Y-111365000D01*
%TO.C,C34*%
X129236252Y-65445000D02*
X128713748Y-65445000D01*
X129236252Y-66915000D02*
X128713748Y-66915000D01*
%TO.C,R18*%
X126970000Y-128637064D02*
X126970000Y-128182936D01*
X128440000Y-128637064D02*
X128440000Y-128182936D01*
%TO.C,R12*%
X116682936Y-121325000D02*
X117137064Y-121325000D01*
X116682936Y-122795000D02*
X117137064Y-122795000D01*
%TO.C,R34*%
X129202064Y-71795000D02*
X128747936Y-71795000D01*
X129202064Y-73265000D02*
X128747936Y-73265000D01*
%TO.C,C19*%
X133046252Y-60365000D02*
X132523748Y-60365000D01*
X133046252Y-61835000D02*
X132523748Y-61835000D01*
%TO.C,R4*%
X116682936Y-113705000D02*
X117137064Y-113705000D01*
X116682936Y-115175000D02*
X117137064Y-115175000D01*
%TO.C,R21*%
X125392064Y-110530000D02*
X124937936Y-110530000D01*
X125392064Y-112000000D02*
X124937936Y-112000000D01*
%TO.C,R23*%
X125392064Y-108625000D02*
X124937936Y-108625000D01*
X125392064Y-110095000D02*
X124937936Y-110095000D01*
%TO.C,C11*%
X141301252Y-122595000D02*
X140778748Y-122595000D01*
X141301252Y-124065000D02*
X140778748Y-124065000D01*
%TO.C,C10*%
X140778748Y-120055000D02*
X141301252Y-120055000D01*
X140778748Y-121525000D02*
X141301252Y-121525000D01*
%TO.C,C22*%
X133046252Y-92115000D02*
X132523748Y-92115000D01*
X133046252Y-93585000D02*
X132523748Y-93585000D01*
%TO.C,R35*%
X133012064Y-71795000D02*
X132557936Y-71795000D01*
X133012064Y-73265000D02*
X132557936Y-73265000D01*
%TO.C,C35*%
X116175000Y-73538748D02*
X116175000Y-74061252D01*
X117645000Y-73538748D02*
X117645000Y-74061252D01*
%TO.C,R22*%
X128875000Y-128637064D02*
X128875000Y-128182936D01*
X130345000Y-128637064D02*
X130345000Y-128182936D01*
%TO.C,C6*%
X133278752Y-112435000D02*
X132756248Y-112435000D01*
X133278752Y-113905000D02*
X132756248Y-113905000D01*
%TO.C,C31*%
X145385000Y-58821252D02*
X145385000Y-58298748D01*
X146855000Y-58821252D02*
X146855000Y-58298748D01*
%TO.C,R14*%
X116682936Y-123230000D02*
X117137064Y-123230000D01*
X116682936Y-124700000D02*
X117137064Y-124700000D01*
%TO.C,C33*%
X128713748Y-67985000D02*
X129236252Y-67985000D01*
X128713748Y-69455000D02*
X129236252Y-69455000D01*
%TO.C,C21*%
X133046252Y-62905000D02*
X132523748Y-62905000D01*
X133046252Y-64375000D02*
X132523748Y-64375000D01*
%TO.C,C16*%
X152370000Y-115971252D02*
X152370000Y-115448748D01*
X153840000Y-115971252D02*
X153840000Y-115448748D01*
%TO.C,C8*%
X141301252Y-113705000D02*
X140778748Y-113705000D01*
X141301252Y-115175000D02*
X140778748Y-115175000D01*
%TO.C,C9*%
X140778748Y-116245000D02*
X141301252Y-116245000D01*
X140778748Y-117715000D02*
X141301252Y-117715000D01*
%TD*%
D15*
X163900000Y-73165000D03*
X168980000Y-58560000D03*
X166440000Y-56020000D03*
X166440000Y-61100000D03*
X171520000Y-56020000D03*
X171520000Y-61100000D03*
X163900000Y-123330000D03*
X168980000Y-88405000D03*
X166440000Y-85865000D03*
X166440000Y-90945000D03*
X171520000Y-85865000D03*
X171520000Y-90945000D03*
X76905000Y-121425000D03*
X79445000Y-121425000D03*
X76905000Y-118885000D03*
X79445000Y-118885000D03*
X76905000Y-116345000D03*
X79445000Y-116345000D03*
X76905000Y-113805000D03*
X79445000Y-113805000D03*
X76905000Y-111265000D03*
X79445000Y-111265000D03*
X76905000Y-108725000D03*
X79445000Y-108725000D03*
X168980000Y-110630000D03*
X166440000Y-108090000D03*
X166440000Y-113170000D03*
X171520000Y-108090000D03*
X171520000Y-113170000D03*
X168980000Y-134760000D03*
X166440000Y-132220000D03*
X166440000Y-137300000D03*
X171520000Y-132220000D03*
X171520000Y-137300000D03*
X76905000Y-88405000D03*
X79445000Y-88405000D03*
X76905000Y-85865000D03*
X79445000Y-85865000D03*
X76905000Y-83325000D03*
X79445000Y-83325000D03*
X76905000Y-80785000D03*
X79445000Y-80785000D03*
X76905000Y-78245000D03*
X79445000Y-78245000D03*
X76905000Y-75705000D03*
X79445000Y-75705000D03*
X76885000Y-104890000D03*
X79425000Y-104890000D03*
X76885000Y-102350000D03*
X79425000Y-102350000D03*
X76885000Y-99810000D03*
X79425000Y-99810000D03*
X76885000Y-97270000D03*
X79425000Y-97270000D03*
X76885000Y-94730000D03*
X79425000Y-94730000D03*
X76885000Y-92190000D03*
X79425000Y-92190000D03*
X91385000Y-66294000D03*
X88335000Y-120674000D03*
M02*
